<?xml version="1.0" encoding="utf-8"?>
<!-- Generator: Adobe Illustrator 27.5.0, SVG Export Plug-In . SVG Version: 6.00 Build 0)  -->
<svg version="1.1" xmlns="http://www.w3.org/2000/svg" xmlns:xlink="http://www.w3.org/1999/xlink" x="0px" y="0px"
	 viewBox="0 0 3710 3710" style="enable-background:new 0 0 3710 3710;" xml:space="preserve">
<g id="Background">
	<g>
		<g>
			<rect style="fill:#FFFFFF;" width="3710" height="3710"/>
		</g>
	</g>
</g>
<g id="Illustration">
	<g>
		<linearGradient id="SVGID_1_" gradientUnits="userSpaceOnUse" x1="3599.8081" y1="4071.436" x2="1124.1199" y2="996.7867">
			<stop  offset="0" style="stop-color:#B37CFF"/>
			<stop  offset="1" style="stop-color:#F895E7"/>
		</linearGradient>
		<path style="opacity:0.3;fill:url(#SVGID_1_);" d="M2921.746,2856.818c-57.031,59.752-110.993,98.285-153.627,128.729
			c-501.159,357.863-1094.162,253.548-1220.193,228.073c-186.107-37.618-545.847-110.333-805.933-414.723
			c-393.488-460.516-332.216-1186.046-27-1664.979c55.829-87.605,350.733-573.833,950.123-651.808
			c362.745-47.19,785.589,47.987,1091.801,303.302C3399.683,1321.342,3353.925,2404.014,2921.746,2856.818z"/>
		<g>
			<g>
				<g>
					
						<linearGradient id="SVGID_00000124871499786896542410000010642533957691435959_" gradientUnits="userSpaceOnUse" x1="-1078.2272" y1="2260.3071" x2="-1337.5337" y2="683.8905" gradientTransform="matrix(-1 0 0 1 1508.3602 0)">
						<stop  offset="0" style="stop-color:#B37CFF"/>
						<stop  offset="1" style="stop-color:#F895E7"/>
					</linearGradient>
					<path style="fill:url(#SVGID_00000124871499786896542410000010642533957691435959_);" d="M2618.018,2074.394
						c9.757,22.383,39.202,27.527,56.201,9.999c93.794-96.716,334.256-394.15,279.358-855.997
						c-46.359-390.009-34.435-605.894-22.23-703.522c2.58-20.644-22.694-32.584-37.03-17.507
						C2736.141,673.705,2264.476,1263.331,2618.018,2074.394z"/>
					<path style="fill:#FFFFFF;" d="M2651.025,2072.486c0.525,0.302,1.084,0.556,1.679,0.759c4.981,1.703,10.401-0.955,12.104-5.936
						c1.93-5.648,192.598-570.995,152.635-1116.188c-0.386-5.246-4.953-9.192-10.206-8.812c-5.251,0.387-9.195,4.954-8.812,10.206
						c39.673,541.225-149.741,1103.016-151.657,1108.626C2645.267,2065.53,2647.149,2070.256,2651.025,2072.486z"/>
				</g>
			</g>
			<g>
				
					<linearGradient id="SVGID_00000021807227131589273540000014871568810763710861_" gradientUnits="userSpaceOnUse" x1="3244.8005" y1="757.9493" x2="2672.5408" y2="2203.6594">
					<stop  offset="0" style="stop-color:#CB236D"/>
					<stop  offset="1" style="stop-color:#4C246D"/>
				</linearGradient>
				<path style="fill:url(#SVGID_00000021807227131589273540000014871568810763710861_);" d="M3221.497,480.574
					c3.605-13.756-15.627-23.453-27.796-14.091c-123.565,95.065-421.941,381.576-362.596,897.133
					c74.457,646.843-87.042,878.044-284.25,1016.547c0,0,267.517-60.662,440.845-295.022
					C3413.262,1509.731,3157.397,725.164,3221.497,480.574z"/>
				<path style="fill:#FFFFFF;" d="M3124.224,679.526c-16.979,71.363-32.318,142.988-44.598,215.015
					c-12.716,71.955-22.898,144.228-30.455,216.687c-7.234,72.48-12.891,145.077-14.967,217.796
					c-2.455,72.706-1.29,145.444,0.174,218.473c0.992,72.991,2.472,146.52-4.759,220.348c-7.137,73.679-24.58,147.739-57.198,216.75
					c-8.153,17.199-16.701,34.333-26.337,50.854c-9.284,16.685-19.429,33.014-29.91,49.177
					c-21.154,32.242-44.832,63.311-71.084,92.703c-52.688,58.677-115.741,110.311-184.856,153.607
					c-7.274,4.557-17.493,3.13-22.825-3.188c-5.235-6.203-3.81-14.815,3.131-19.439l0.049-0.033
					c16.461-10.944,32.756-22.038,48.417-33.725c7.941-5.736,15.568-11.766,23.324-17.668c7.486-6.15,15.253-12.051,22.509-18.396
					c29.515-24.947,56.952-51.668,81.949-80.023c50.264-56.434,90.966-119.712,122.261-185.589
					c15.22-33.105,27.581-67.139,36.859-101.896c9.248-34.767,15.413-70.222,19.236-106.023
					c7.656-71.642,6.888-144.426,6.503-217.414c-0.275-73.005,0.03-146.365,3.829-219.577c1.785-36.606,4.332-73.176,7.636-109.683
					c1.53-18.262,3.47-36.492,5.371-54.722c2.104-18.214,4.324-36.414,6.716-54.593c9.723-72.706,22.013-145.104,36.936-217.048
					c15.323-71.879,32.853-143.369,53.547-214.133c0.592-2.023,2.973-3.236,5.319-2.709
					C3123.282,675.587,3124.687,677.561,3124.224,679.526z"/>
			</g>
		</g>
		<g>
			<g>
				
					<linearGradient id="SVGID_00000165206258639745219840000004964608155542884268_" gradientUnits="userSpaceOnUse" x1="2853.5176" y1="1043.001" x2="998.5161" y2="2738.2637">
					<stop  offset="0" style="stop-color:#2B3582"/>
					<stop  offset="1" style="stop-color:#150E42"/>
				</linearGradient>
				<path style="fill:url(#SVGID_00000165206258639745219840000004964608155542884268_);" d="M2939.217,2918.551l-2366.792,40.032
					c-59.145-0.658-105.804-51.268-102.547-111.231l219.934-1754.188c5.171-41.239,39.818-71.764,80.202-70.659l2172.601,59.447
					L2939.217,2918.551z"/>
				
					<linearGradient id="SVGID_00000181775896594055469750000002257286530397695668_" gradientUnits="userSpaceOnUse" x1="500.274" y1="2030.7512" x2="2973.1714" y2="2030.7512">
					<stop  offset="0" style="stop-color:#2B3582"/>
					<stop  offset="1" style="stop-color:#150E42"/>
				</linearGradient>
				<path style="fill:url(#SVGID_00000181775896594055469750000002257286530397695668_);" d="M2966.381,2904.571l-2363.399,64.497
					c-59.145-0.658-105.804-51.268-102.547-111.231l177.381-1765.401h2295.356L2966.381,2904.571z"/>
			</g>
			<g>
				
					<linearGradient id="SVGID_00000163781461023205230040000005115029179996691841_" gradientUnits="userSpaceOnUse" x1="1910.9817" y1="1405.3081" x2="2192.093" y2="4306.7676">
					<stop  offset="0" style="stop-color:#53D8FF"/>
					<stop  offset="1" style="stop-color:#3840F7"/>
				</linearGradient>
				<path style="fill:url(#SVGID_00000163781461023205230040000005115029179996691841_);" d="M3235.973,2837.719
					c4.808,70.593-48.775,130.95-117.513,132.37l-2235.206,46.154c-31.337,0.093-57.19-25.228-58.654-57.448l-85.665-1885.581
					h2376.848L3235.973,2837.719z"/>
				<path style="opacity:0.38;fill:#FFFFFF;" d="M3168.079,2783.084c4.547,70.085-46.123,130.008-111.123,131.417l-2113.642,45.822
					c-29.633,0.093-54.079-25.046-55.464-57.035l-81.006-1872.014h2247.581L3168.079,2783.084z"/>
				
					<linearGradient id="SVGID_00000085971910653941194840000000416877399368500353_" gradientUnits="userSpaceOnUse" x1="2091.291" y1="-131.4144" x2="1857.0332" y2="1447.2729">
					<stop  offset="0" style="stop-color:#53D8FF"/>
					<stop  offset="1" style="stop-color:#3840F7"/>
				</linearGradient>
				<path style="fill:url(#SVGID_00000085971910653941194840000000416877399368500353_);" d="M3136.482,1167.339H672.548
					c-2.315,0-4.192-1.877-4.192-4.192V1047.01c0-16.411,13.304-29.715,29.716-29.715h2431.944c10.287,0,18.627,8.34,18.627,18.627
					v119.257C3148.642,1161.895,3143.198,1167.339,3136.482,1167.339z"/>
			</g>
			<g>
				<path style="fill:#FFFFFF;" d="M1343.327,2939.223c-3.514,0-6.464-2.742-6.674-6.297l-104.13-1756.798
					c-0.219-3.689,2.595-6.856,6.286-7.075c3.624-0.323,6.856,2.595,7.076,6.284l104.13,1756.798
					c0.219,3.689-2.595,6.856-6.286,7.075C1343.595,2939.22,1343.461,2939.223,1343.327,2939.223z"/>
				<path style="fill:#FFFFFF;" d="M1811.905,2942.717c-3.515,0-6.464-2.742-6.674-6.297l-104.128-1760.292
					c-0.217-3.689,2.596-6.859,6.285-7.075c3.652-0.323,6.858,2.595,7.076,6.284l104.128,1760.292
					c0.217,3.689-2.596,6.859-6.286,7.075C1812.173,2942.713,1812.039,2942.717,1811.905,2942.717z"/>
				<path style="fill:#FFFFFF;" d="M2280.484,2939.223c-3.515,0-6.462-2.742-6.675-6.297l-104.13-1752.135
					c-0.219-3.693,2.595-6.859,6.284-7.078c3.685-0.265,6.857,2.591,7.078,6.284l104.13,1752.138
					c0.219,3.689-2.594,6.856-6.284,7.075C2280.752,2939.22,2280.618,2939.223,2280.484,2939.223z"/>
				<path style="fill:#FFFFFF;" d="M2759.25,2932.233c-3.511,0-6.459-2.738-6.675-6.29l-105.262-1745.149
					c-0.222-3.689,2.588-6.859,6.278-7.081c3.683-0.281,6.861,2.588,7.084,6.277l105.262,1745.149
					c0.222,3.689-2.588,6.859-6.277,7.081C2759.522,2932.23,2759.385,2932.233,2759.25,2932.233z"/>
			</g>
			<g>
				
					<linearGradient id="SVGID_00000082340817561810928580000011806806546863050368_" gradientUnits="userSpaceOnUse" x1="1013.1503" y1="844.2131" x2="1038.2451" y2="2174.2698">
					<stop  offset="0" style="stop-color:#53D8FF"/>
					<stop  offset="1" style="stop-color:#3840F7"/>
				</linearGradient>
				<path style="fill:url(#SVGID_00000082340817561810928580000011806806546863050368_);" d="M1210.133,1306.279l-372.154,1.914
					c-6.351,0.033-11.677-5.426-12.285-12.591l-6.111-71.991c-0.694-8.179,4.979-15.258,12.229-15.258h373.849
					c6.446,0,11.795,5.646,12.254,12.932l4.417,70.078C1222.838,1299.398,1217.241,1306.242,1210.133,1306.279z"/>
				
					<linearGradient id="SVGID_00000011750976968878030540000012232623831625854868_" gradientUnits="userSpaceOnUse" x1="1472.4668" y1="835.5463" x2="1497.5616" y2="2165.603">
					<stop  offset="0" style="stop-color:#53D8FF"/>
					<stop  offset="1" style="stop-color:#3840F7"/>
				</linearGradient>
				<path style="fill:url(#SVGID_00000011750976968878030540000012232623831625854868_);" d="M1669.657,1308.609l-372.154,1.914
					c-6.351,0.033-11.677-5.426-12.285-12.591l-6.111-71.991c-0.694-8.18,4.979-15.258,12.229-15.258h373.849
					c6.446,0,11.795,5.646,12.254,12.932l4.416,70.078C1682.362,1301.728,1676.765,1308.572,1669.657,1308.609z"/>
				
					<linearGradient id="SVGID_00000039856426139108928000000013748711004548692097_" gradientUnits="userSpaceOnUse" x1="1946.7833" y1="972.114" x2="1946.7833" y2="2337.3054">
					<stop  offset="0" style="stop-color:#53D8FF"/>
					<stop  offset="1" style="stop-color:#3840F7"/>
				</linearGradient>
				<path style="fill:url(#SVGID_00000039856426139108928000000013748711004548692097_);" d="M2135.972,1315.599l-372.154,1.913
					c-6.351,0.033-11.677-5.426-12.285-12.591l-6.111-71.991c-0.694-8.179,4.979-15.258,12.229-15.258H2131.5
					c6.446,0,11.795,5.646,12.254,12.932l4.417,70.077C2148.677,1308.718,2143.079,1315.562,2135.972,1315.599z"/>
				
					<linearGradient id="SVGID_00000047025183495032489730000014340904910228934058_" gradientUnits="userSpaceOnUse" x1="2408.571" y1="972.1141" x2="2408.571" y2="2337.3054">
					<stop  offset="0" style="stop-color:#53D8FF"/>
					<stop  offset="1" style="stop-color:#3840F7"/>
				</linearGradient>
				<path style="fill:url(#SVGID_00000047025183495032489730000014340904910228934058_);" d="M2597.759,1322.589l-372.154,1.913
					c-6.351,0.033-11.677-5.426-12.285-12.591l-6.111-71.991c-0.694-8.179,4.979-15.258,12.229-15.258h373.848
					c6.446,0,11.795,5.646,12.254,12.932l4.417,70.077C2610.464,1315.708,2604.867,1322.552,2597.759,1322.589z"/>
				
					<linearGradient id="SVGID_00000014612806680088075920000005862647221650695297_" gradientUnits="userSpaceOnUse" x1="2877.1494" y1="972.1142" x2="2877.1494" y2="2337.3069">
					<stop  offset="0" style="stop-color:#53D8FF"/>
					<stop  offset="1" style="stop-color:#3840F7"/>
				</linearGradient>
				<path style="fill:url(#SVGID_00000014612806680088075920000005862647221650695297_);" d="M3066.338,1327.248l-372.154,1.914
					c-6.351,0.033-11.677-5.426-12.285-12.591l-6.111-71.991c-0.694-8.179,4.979-15.258,12.229-15.258h373.848
					c6.446,0,11.795,5.646,12.254,12.932l4.417,70.078C3079.043,1320.367,3073.446,1327.212,3066.338,1327.248z"/>
			</g>
			<path style="opacity:0.82;fill:#FFFFFF;" d="M3062.35,1557.619l-357.728,3.454c-6.104,0.059-11.224-9.794-11.809-22.726
				l-5.874-129.94c-0.667-14.763,4.786-27.54,11.755-27.54h359.357c6.196,0,11.338,10.19,11.779,23.342l4.245,126.486
				C3074.563,1545.2,3069.183,1557.553,3062.35,1557.619z"/>
			<path style="opacity:0.82;fill:#FFFFFF;" d="M1691.518,2028.331l-357.728,3.454c-6.104,0.059-11.224-9.794-11.809-22.726
				l-5.874-129.94c-0.667-14.763,4.786-27.54,11.755-27.54h359.357c6.196,0,11.338,10.19,11.779,23.342l4.245,126.486
				C1703.731,2015.911,1698.35,2028.265,1691.518,2028.331z"/>
			<path style="opacity:0.82;fill:#FFFFFF;" d="M1701.557,2237.281l-357.728,3.454c-6.104,0.059-11.224-9.793-11.809-22.726
				l-5.874-129.94c-0.667-14.763,4.786-27.54,11.755-27.54h359.357c6.196,0,11.338,10.19,11.779,23.342l4.245,126.486
				C1713.769,2224.861,1708.389,2237.215,1701.557,2237.281z"/>
			<path style="opacity:0.82;fill:#FFFFFF;" d="M1226.394,1642.577l-357.728,3.454c-6.104,0.059-11.224-9.793-11.809-22.726
				l-5.874-129.94c-0.667-14.763,4.786-27.54,11.755-27.54h359.357c6.196,0,11.338,10.19,11.779,23.342l4.245,126.486
				C1238.607,1630.157,1233.227,1642.511,1226.394,1642.577z"/>
			<path style="opacity:0.82;fill:#FFFFFF;" d="M1230.856,1860.712l-357.728,3.454c-6.104,0.059-11.224-9.793-11.809-22.726
				l-5.874-129.94c-0.667-14.763,4.786-27.54,11.755-27.54h359.357c6.196,0,11.338,10.19,11.779,23.342l4.245,126.486
				C1243.069,1848.292,1237.688,1860.646,1230.856,1860.712z"/>
			<path style="opacity:0.82;fill:#FFFFFF;" d="M2637.381,1764.273l-357.728,3.454c-6.104,0.059-11.224-9.794-11.809-22.726
				l-5.874-129.94c-0.667-14.763,4.786-27.54,11.755-27.54h359.357c6.196,0,11.338,10.19,11.779,23.342l4.245,126.486
				C2649.594,1751.853,2644.213,1764.207,2637.381,1764.273z"/>
			<path style="opacity:0.82;fill:#FFFFFF;" d="M3133.027,2749.323l-345.362,3.454c-5.894,0.059-10.836-9.794-11.401-22.726
				l-5.671-129.94c-0.644-14.763,4.621-27.54,11.349-27.54h346.935c5.981,0,10.946,10.19,11.372,23.342l4.098,126.486
				C3144.818,2736.903,3139.623,2749.257,3133.027,2749.323z"/>
			<path style="opacity:0.82;fill:#FFFFFF;" d="M2648.129,1944.165l-370.093,2.662c-6.315,0.045-11.612-7.547-12.217-17.514
				l-6.077-100.137c-0.69-11.377,4.951-21.223,12.161-21.223h371.778c6.41,0,11.73,7.853,12.187,17.989l4.392,97.476
				C2660.764,1934.594,2655.197,1944.114,2648.129,1944.165z"/>
			<path style="opacity:0.82;fill:#FFFFFF;" d="M1750.228,2745.522l-370.093,2.662c-6.316,0.045-11.612-7.547-12.217-17.513
				l-6.077-100.137c-0.69-11.377,4.952-21.223,12.161-21.223h371.778c6.41,0,11.73,7.853,12.187,17.989l4.392,97.476
				C1762.863,2735.951,1757.297,2745.472,1750.228,2745.522z"/>
			<path style="opacity:0.82;fill:#FFFFFF;" d="M1695.573,1822.469l-370.093,2.662c-6.315,0.045-11.612-7.547-12.217-17.513
				l-6.077-100.138c-0.691-11.377,4.952-21.223,12.161-21.223h371.778c6.41,0,11.73,7.853,12.187,17.989l4.392,97.476
				C1708.208,1812.898,1702.642,1822.418,1695.573,1822.469z"/>
			<path style="opacity:0.82;fill:#FFFFFF;" d="M2194.159,2316.142l-370.093,2.662c-6.316,0.045-11.612-7.547-12.217-17.513
				l-6.077-100.137c-0.691-11.377,4.951-21.224,12.161-21.224h371.778c6.41,0,11.73,7.853,12.187,17.989l4.392,97.476
				C2206.794,2306.571,2201.228,2316.091,2194.159,2316.142z"/>
			<path style="opacity:0.82;fill:#FFFFFF;" d="M3071.545,1735.215l-349.484,2.662c-5.964,0.045-10.965-7.547-11.537-17.513
				l-5.739-100.138c-0.652-11.377,4.676-21.223,11.484-21.223h351.076c6.053,0,11.076,7.853,11.508,17.989l4.147,97.476
				C3083.476,1725.644,3078.219,1735.165,3071.545,1735.215z"/>
		</g>
		<g>
			<g>
				
					<linearGradient id="SVGID_00000032638468563905810890000017479376365673377970_" gradientUnits="userSpaceOnUse" x1="-2692.7126" y1="1512.8593" x2="-3626.915" y2="2959.6338" gradientTransform="matrix(-1 0 0 1 -635.6489 0)">
					<stop  offset="0" style="stop-color:#FDF53F"/>
					<stop  offset="1" style="stop-color:#D93C65"/>
				</linearGradient>
				<path style="fill:url(#SVGID_00000032638468563905810890000017479376365673377970_);" d="M2521.928,1444.783l-664.545-5.959
					c-13.031-0.117-23.637,10.455-23.563,23.486l2.907,509.943c0.075,13.118,10.913,23.602,24.026,23.211
					c120.153-3.582,653.602-19.388,677.15-18.403c23.271,0.973,10.627-408.67,7.154-509.743
					C2544.629,1454.821,2534.431,1444.895,2521.928,1444.783z"/>
				<path style="fill:#FFFFFF;" d="M1855.188,1972.151l-2.909-509.944c-0.007-1.333,0.484-2.537,1.422-3.477
					c0.923-0.932,2.165-1.446,3.517-1.446l664.543,5.958c2.629,0.022,4.759,2.093,4.85,4.712
					c8.589,249.945,8.752,441.832,0.414,488.864l-0.319,1.799l-1.825,0.026c-88.067,1.238-569.136,15.519-664.678,18.371
					l-0.16,0.004C1857.381,1977.017,1855.204,1974.834,1855.188,1972.151z M2522.195,1468.108c-0.009-0.255-0.212-0.444-0.473-0.449
					l-664.543-5.958l0.02-2.209l-0.501,2.688l2.909,509.944c0.001,0.259,0.201,0.474,0.335,0.479l0.129-0.009
					c94.901-2.83,570.149-16.938,662.906-18.345C2530.957,1904.561,2530.669,1714.689,2522.195,1468.108z"/>
				<path style="fill:#FFFFFF;" d="M2507.7,1528.15L2507.7,1528.15c0,12.898-10.456,23.354-23.354,23.354h-570.176
					c-12.898,0-23.354-10.456-23.354-23.354l0,0c0-12.898,10.456-23.354,23.354-23.354h570.176
					C2497.244,1504.797,2507.7,1515.253,2507.7,1528.15z"/>
			</g>
			<g>
				<g>
					<path style="fill:#FFFFFF;" d="M2072.691,1911.016l-31.57-12.158c-4.421-1.717-7.28-6.053-7.114-10.794l0.834-23.384
						c-8.849-6.523-16.828-14.117-23.806-22.659l-23.352,2.006c-4.738,0.367-9.205-2.257-11.124-6.592l-13.722-30.913
						c-1.919-4.345-0.874-9.435,2.599-12.671l17.137-15.955c-1.655-10.906-1.935-21.917-0.835-32.858l-17.889-15.057
						c-3.646-3.059-4.948-8.098-3.236-12.551l12.148-31.538c1.707-4.435,6.071-7.309,10.8-7.145l23.39,0.837
						c6.524-8.853,14.121-16.83,22.661-23.807l-2.004-23.332c-0.406-4.737,2.24-9.211,6.586-11.144l30.899-13.716
						c4.351-1.928,9.454-0.88,12.685,2.593l15.956,17.137c10.9-1.661,21.917-1.941,32.859-0.832l15.055-17.883
						c3.058-3.65,8.097-4.953,12.553-3.245l31.538,12.149c4.439,1.704,7.311,6.045,7.145,10.808l-0.833,23.384
						c8.853,6.524,16.832,14.121,23.806,22.659l23.312-2.002c4.723-0.474,9.224,2.226,11.163,6.584l13.715,30.9
						c1.928,4.345,0.886,9.444-2.594,12.684l-17.137,15.959c1.655,10.902,1.934,21.913,0.835,32.854l17.893,15.066
						c3.645,3.059,4.942,8.102,3.231,12.542l-12.152,31.551c-1.718,4.452-6.062,7.252-10.802,7.132l-23.384-0.833
						c-6.524,8.849-14.12,16.831-22.661,23.807l2.004,23.328c0.406,4.737-2.24,9.216-6.587,11.149l-30.895,13.707
						c-4.337,1.928-9.431,0.893-12.69-2.584l-15.956-17.137c-10.902,1.653-21.914,1.937-32.855,0.833l-15.072,17.905
						c-2.162,2.563-5.307,3.961-8.533,3.961C2075.352,1911.757,2073.996,1911.516,2072.691,1911.016z M2097.819,1871.802
						c12.273,1.7,24.689,1.385,36.905-0.936l4.791-0.91l19.358,20.791l22.404-9.94l-2.431-28.307l3.889-2.942
						c9.918-7.507,18.481-16.502,25.449-26.74l2.745-4.03l28.377,1.01l8.808-22.866l-21.721-18.289l0.669-4.832
						c1.699-12.266,1.384-24.683-0.936-36.901l-0.911-4.789l20.792-19.363l-9.941-22.4l-28.309,2.429l-2.943-3.887
						c-7.5-9.914-16.496-18.478-26.737-25.45l-4.03-2.744l1.011-28.376l-22.869-8.81l-18.288,21.723l-4.833-0.669
						c-12.271-1.708-24.685-1.39-36.897,0.936l-4.794,0.911l-19.364-20.796l-22.399,9.945l2.431,28.307l-3.89,2.942
						c-9.917,7.507-18.481,16.503-25.451,26.741l-2.745,4.03l-28.373-1.014l-8.811,22.871l21.723,18.284l-0.669,4.832
						c-1.7,12.266-1.384,24.682,0.936,36.901l0.911,4.789l-20.794,19.367l9.946,22.4l28.304-2.429l2.944,3.887
						c7.508,9.919,16.504,18.483,26.738,25.45l4.031,2.744l-1.012,28.376l22.872,8.81l18.285-21.719L2097.819,1871.802z
						 M2243.985,1819.965c-0.016-0.004-0.034-0.004-0.05-0.004L2243.985,1819.965z M1975.236,1716.462
						c-0.005-0.004-0.011-0.009-0.015-0.013L1975.236,1716.462z M1982.947,1696.409L1982.947,1696.409L1982.947,1696.409
						L1982.947,1696.409z M2240.677,1689.959c0.008,0,0.014,0,0.022-0.004L2240.677,1689.959z M2064.85,1622.223l-0.011-0.009
						C2064.843,1622.214,2064.847,1622.218,2064.85,1622.223z M2155.163,1619.984c0.006-0.009,0.012-0.013,0.018-0.022
						L2155.163,1619.984z M2081.628,1842.313c-15.294-5.894-28.682-15.8-38.718-28.648c-3.004-3.849-2.321-9.401,1.525-12.404
						c3.845-3.003,9.4-2.321,12.401,1.523c8.067,10.333,18.837,18.297,31.145,23.039c18.132,6.985,37.894,6.493,55.652-1.394
						c17.757-7.882,31.383-22.206,38.367-40.335c6.983-18.129,6.489-37.893-1.393-55.651c-7.882-17.758-22.207-31.383-40.337-38.368
						c-18.131-6.985-37.894-6.493-55.653,1.393c-17.758,7.883-31.383,22.206-38.367,40.335c-1.868,4.854-3.219,9.889-4.015,14.967
						c-0.755,4.819-5.273,8.137-10.097,7.36c-4.821-0.755-8.116-5.272-7.361-10.095c0.988-6.312,2.664-12.564,4.982-18.582
						c8.68-22.534,25.616-40.339,47.689-50.137c22.073-9.802,46.638-10.411,69.173-1.73c22.535,8.68,40.341,25.614,50.137,47.687
						c9.797,22.073,10.411,46.639,1.731,69.173c-8.68,22.534-25.616,40.34-47.689,50.138c-11.736,5.212-24.177,7.822-36.643,7.822
						C2103.179,1848.405,2092.179,1846.377,2081.628,1842.313z"/>
					<path style="fill:#FFFFFF;" d="M2091.031,1789.923c-8.477-5.988-14.114-14.919-15.875-25.149
						c-1.76-10.229,0.568-20.528,6.555-29.006v0.004c5.987-8.478,14.917-14.117,25.145-15.877
						c10.226-1.765,20.528,0.569,29.006,6.553c17.497,12.361,21.679,36.651,9.32,54.154c-7.562,10.704-19.587,16.425-31.792,16.421
						C2105.644,1797.025,2097.825,1794.721,2091.031,1789.923z M2109.854,1737.309c-5.576,0.962-10.444,4.034-13.709,8.655v0.004
						c-3.264,4.616-4.532,10.234-3.574,15.812c0.96,5.574,4.034,10.445,8.655,13.707c9.542,6.744,22.782,4.457,29.522-5.078
						c6.738-9.544,4.458-22.784-5.08-29.523c-3.615-2.555-7.84-3.887-12.177-3.887
						C2112.284,1736.999,2111.067,1737.102,2109.854,1737.309z"/>
				</g>
				<g>
					<path style="fill:#FFFFFF;" d="M2356.31,1754.291l-4.405-9c-4.588-0.759-9.07-1.993-13.389-3.697l-8.396,5.458
						c-2.774,1.803-6.383,1.644-8.982-0.388l-12.832-10.009c-2.595-2.037-3.619-5.492-2.55-8.603l3.249-9.474
						c-2.703-3.771-4.994-7.818-6.846-12.085l-9.812-2.084c-3.223-0.686-5.662-3.348-6.067-6.618l-1.996-16.145
						c-0.4-3.257,1.307-6.424,4.281-7.9l9.001-4.405c0.757-4.59,1.994-9.073,3.696-13.392l-5.451-8.387
						c-1.803-2.766-1.653-6.377,0.38-8.987l10.021-12.848c2.035-2.584,5.488-3.598,8.593-2.533l9.473,3.249
						c3.776-2.705,7.822-4.996,12.089-6.847l2.08-9.807c0.684-3.214,3.334-5.652,6.623-6.07l16.106-1.993
						c3.285-0.375,6.464,1.29,7.932,4.275l4.404,9.004c4.591,0.755,9.071,1.993,13.393,3.697l8.352-5.427
						c2.755-1.825,6.369-1.691,9.024,0.354l12.825,10.005c2.601,2.032,3.628,5.492,2.557,8.607l-3.249,9.474
						c2.704,3.775,4.995,7.822,6.847,12.089l9.811,2.084c3.227,0.691,5.666,3.352,6.067,6.619l1.994,16.136
						c0.408,3.287-1.322,6.467-4.279,7.904l-9.002,4.405c-0.756,4.591-1.993,9.074-3.696,13.392l5.451,8.387
						c1.814,2.783,1.654,6.402-0.381,8.987l-9.996,12.818c-2.034,2.61-5.5,3.632-8.617,2.563l-9.473-3.249
						c-3.776,2.705-7.822,4.996-12.089,6.847l-2.08,9.807c-0.689,3.245-3.363,5.686-6.62,6.071l-16.168,2.002
						c-0.308,0.039-0.613,0.056-0.917,0.056C2360.333,1758.631,2357.612,1756.961,2356.31,1754.291z M2368.22,1748.475
						c-0.002-0.004-0.004-0.008-0.007-0.013L2368.22,1748.475z M2377.579,1730.911l3.433-1.264
						c5.364-1.976,10.337-4.793,14.779-8.37l2.848-2.295l12.555,4.306l5.164-6.623l-7.232-11.131l1.532-3.318
						c2.387-5.173,3.907-10.682,4.52-16.373l0.391-3.637l11.929-5.837l-1.031-8.336l-12.993-2.752l-1.264-3.435
						c-1.979-5.371-4.795-10.345-8.37-14.781l-2.295-2.847l4.306-12.555l-6.619-5.164l-11.133,7.235l-3.321-1.532
						c-5.177-2.395-10.685-3.913-16.367-4.521l-3.64-0.388l-5.837-11.934l-8.335,1.031l-2.757,12.991l-3.433,1.264
						c-5.364,1.976-10.337,4.793-14.779,8.37l-2.848,2.295l-12.555-4.306l-5.164,6.622l7.234,11.131l-1.532,3.322
						c-2.388,5.173-3.908,10.678-4.519,16.369l-0.391,3.637l-11.932,5.837l1.03,8.34l12.993,2.753l1.265,3.434
						c1.979,5.367,4.796,10.342,8.37,14.777l2.295,2.848l-4.306,12.555l6.623,5.168l11.128-7.235l3.32,1.532
						c5.18,2.386,10.689,3.909,16.374,4.521l3.636,0.393l5.838,11.929l8.334-1.031L2377.579,1730.911z M2378.702,1743.423
						l0.052-0.004C2378.736,1743.418,2378.719,1743.423,2378.702,1743.423z M2414.924,1724.564c-0.006,0-0.014-0.004-0.021-0.008
						L2414.924,1724.564z M2418.5,1719.961l-0.009-0.013C2418.494,1719.953,2418.497,1719.957,2418.5,1719.961z M2418.762,1713.58
						l0.033-0.043C2418.784,1713.554,2418.773,1713.567,2418.762,1713.58z M2431.014,1674.647l0.037-0.017
						C2431.038,1674.634,2431.026,1674.643,2431.014,1674.647z M2306.927,1640.344c-0.003-0.004-0.007-0.009-0.009-0.013
						L2306.927,1640.344z M2312.613,1629.463h0.044H2312.613z M2402.452,1624.406c0.024-0.017,0.048-0.03,0.072-0.047
						L2402.452,1624.406z M2362.783,1614.884c0.016-0.004,0.032-0.004,0.049-0.009L2362.783,1614.884z M2334.85,1716.294
						c-6.556-5.113-11.595-11.895-14.572-19.614c-1.317-3.417,0.383-7.252,3.798-8.568c3.415-1.312,7.25,0.388,8.567,3.796
						c2.113,5.48,5.695,10.299,10.359,13.936c6.866,5.358,15.402,7.727,24.053,6.649c8.644-1.07,16.354-5.44,21.71-12.309
						c11.058-14.173,8.52-34.705-5.657-45.763c-6.868-5.354-15.404-7.714-24.053-6.649c-8.644,1.07-16.354,5.44-21.71,12.309
						c-1.437,1.842-2.672,3.827-3.67,5.898c-1.591,3.292-5.554,4.677-8.849,3.085c-3.296-1.587-4.679-5.548-3.089-8.849
						c1.407-2.912,3.143-5.704,5.157-8.288c7.534-9.655,18.378-15.803,30.535-17.309c12.155-1.515,24.172,1.816,33.831,9.354
						c19.939,15.553,23.508,44.425,7.957,64.366c-7.534,9.655-18.378,15.803-30.535,17.309c-1.913,0.237-3.823,0.354-5.721,0.354
						C2352.8,1726.001,2342.988,1722.645,2334.85,1716.294z"/>
				</g>
			</g>
			
				<linearGradient id="SVGID_00000085939282501742458740000005314403313055273916_" gradientUnits="userSpaceOnUse" x1="-3279.8284" y1="3206.3555" x2="-3131.5132" y2="3206.3555" gradientTransform="matrix(-1 0 0 1 -635.6489 0)">
				<stop  offset="0" style="stop-color:#2B3582"/>
				<stop  offset="1" style="stop-color:#150E42"/>
			</linearGradient>
			<path style="fill:url(#SVGID_00000085939282501742458740000005314403313055273916_);" d="M2588.42,3236.259
				c-34.537,1.589-67.967,0.591-90.287-0.556c20.323-14.465,67.142-45.937,106.319-58.467l26.894-1.609
				c0,0,9.114,13.86,12.365,45.576C2639.254,3226.765,2626.226,3234.52,2588.42,3236.259z"/>
			
				<linearGradient id="SVGID_00000087372729290510351170000013726835827508876189_" gradientUnits="userSpaceOnUse" x1="-3279.8281" y1="3233.0225" x2="-3131.5132" y2="3233.0225" gradientTransform="matrix(-1 0 0 1 -635.6489 0)">
				<stop  offset="0" style="stop-color:#53D8FF"/>
				<stop  offset="1" style="stop-color:#3840F7"/>
			</linearGradient>
			<path style="fill:url(#SVGID_00000087372729290510351170000013726835827508876189_);" d="M2497.855,3235.9
				c0.089-0.063,0.188-0.133,0.278-0.197c22.32,1.147,55.75,2.145,90.287,0.556c37.806-1.739,50.834-9.494,55.291-15.055
				c0.15,1.461,0.304,2.912,0.427,4.45c0.559,6.96-4.608,13.071-11.57,13.598c-28.285,2.138-98.415,6.981-132.235,5.207
				C2495.872,3244.225,2494.217,3238.492,2497.855,3235.9z"/>
			
				<linearGradient id="SVGID_00000079481105996380463730000006226346706903527589_" gradientUnits="userSpaceOnUse" x1="-3540.3682" y1="3206.7256" x2="-3470.9214" y2="3206.7256" gradientTransform="matrix(-1 0 0 1 -635.6489 0)">
				<stop  offset="0" style="stop-color:#2B3582"/>
				<stop  offset="1" style="stop-color:#150E42"/>
			</linearGradient>
			<path style="fill:url(#SVGID_00000079481105996380463730000006226346706903527589_);" d="M2835.436,3227.016
				c2.529-16.214,6.585-39.653,9.718-45.646c4.916-9.401,21.745,0,21.745,0s11.814,5.509,17.251,14.691
				c3.466,5.853,13.052,22.507,19.546,33.813c0.747,1.301,1.058,2.685,1.019,4.025l-67.385,2.358
				C2835.684,3233.615,2834.91,3230.392,2835.436,3227.016z"/>
			
				<linearGradient id="SVGID_00000173127049019795144270000010412386940857346457_" gradientUnits="userSpaceOnUse" x1="-3540.365" y1="3238.293" x2="-3472.98" y2="3238.293" gradientTransform="matrix(-1 0 0 1 -635.6489 0)">
				<stop  offset="0" style="stop-color:#53D8FF"/>
				<stop  offset="1" style="stop-color:#3840F7"/>
			</linearGradient>
			<path style="fill:url(#SVGID_00000173127049019795144270000010412386940857346457_);" d="M2904.716,3233.9
				c-0.113,3.85-3.163,7.341-7.468,7.459l-48.007,1.321c-5.073,0.14-9.464-2.496-11.911-6.422L2904.716,3233.9z"/>
			
				<linearGradient id="SVGID_00000048479759919822559420000008254377880754222230_" gradientUnits="userSpaceOnUse" x1="-3510.9966" y1="3158.8496" x2="-3465.9363" y2="3158.8496" gradientTransform="matrix(-1 0 0 1 -635.6489 0)">
				<stop  offset="0" style="stop-color:#F9B776"/>
				<stop  offset="1" style="stop-color:#F47960"/>
			</linearGradient>
			<path style="fill:url(#SVGID_00000048479759919822559420000008254377880754222230_);" d="M2830.288,3127.482
				c0.581,1.945,9.289,44.156,13.101,62.682c1.054,5.12,5.666,8.715,10.887,8.454c2.851-0.143,6.169-0.399,9.648-0.85
				c6.172-0.799,10.873-5.953,11.109-12.172c0.618-16.228,0.922-47.385-5.037-59.458
				C2861.776,3109.482,2830.288,3127.482,2830.288,3127.482z"/>
			
				<linearGradient id="SVGID_00000178912025668659857440000012624488020638092427_" gradientUnits="userSpaceOnUse" x1="-3272.2844" y1="3155.8999" x2="-3234.7278" y2="3155.8999" gradientTransform="matrix(-1 0 0 1 -635.6489 0)">
				<stop  offset="0" style="stop-color:#F9B776"/>
				<stop  offset="1" style="stop-color:#F47960"/>
			</linearGradient>
			<path style="fill:url(#SVGID_00000178912025668659857440000012624488020638092427_);" d="M2636.635,3139.567
				c-3.735-0.119,1.49,19.282-4.16,38.352c-1.274,4.301-4.491,7.677-8.976,7.734c-2.907,0.037-6.351-0.019-9.849-0.299
				c-5.26-0.422-9.487-4.503-9.975-9.758l-4.596-49.46L2636.635,3139.567z"/>
			
				<linearGradient id="SVGID_00000181056175275201821860000016671781351366403774_" gradientUnits="userSpaceOnUse" x1="-2999.7441" y1="2576.4978" x2="-3725.4319" y2="3325.1716" gradientTransform="matrix(-1 0 0 1 -635.6489 0)">
				<stop  offset="0" style="stop-color:#2B3582"/>
				<stop  offset="1" style="stop-color:#150E42"/>
			</linearGradient>
			<path style="fill:url(#SVGID_00000181056175275201821860000016671781351366403774_);" d="M2532.175,2613.806
				c1.667,8.115,60.502,351.285,64.072,528.86c0.06,2.977,2.25,5.474,5.2,5.886c7.469,1.041,22.015,2.38,36.118-0.236
				c1.932-0.358,3.387-1.948,3.509-3.909c2.056-33.092,18.593-312.879-1.659-444.588c0,0,167.287,352.078,192.644,449.159
				c0.617,2.362,2.785,3.95,5.223,3.822c7.165-0.378,22.064-1.667,33.895-6.021c4.24-1.561,6.656-6.018,5.585-10.408
				c-14.167-58.099-113.456-458.386-180.869-546.578L2532.175,2613.806z"/>
			
				<linearGradient id="SVGID_00000001644702190170380850000018040304576868641175_" gradientUnits="userSpaceOnUse" x1="2610.2141" y1="1927.866" x2="2625.321" y2="2566.1152">
				<stop  offset="0" style="stop-color:#53D8FF"/>
				<stop  offset="1" style="stop-color:#3840F7"/>
			</linearGradient>
			<path style="fill:url(#SVGID_00000001644702190170380850000018040304576868641175_);" d="M2639.415,2702.014
				c0.554,0,1.108-0.208,1.535-0.626c0.867-0.847,0.883-2.239,0.035-3.105l-22.4-22.906c-0.848-0.869-2.239-0.881-3.105-0.034
				c-0.867,0.847-0.882,2.239-0.034,3.105l22.4,22.906C2638.275,2701.793,2638.845,2702.014,2639.415,2702.014z"/>
			
				<linearGradient id="SVGID_00000101067453569518760890000016597113275903151001_" gradientUnits="userSpaceOnUse" x1="-3063.6035" y1="2177.5537" x2="-3840.7297" y2="3363.9109" gradientTransform="matrix(-1 0 0 1 -635.6489 0)">
				<stop  offset="0" style="stop-color:#CB236D"/>
				<stop  offset="1" style="stop-color:#4C246D"/>
			</linearGradient>
			<path style="fill:url(#SVGID_00000101067453569518760890000016597113275903151001_);" d="M2325.052,2183.956
				c36.313,10.207,74.765,9.836,111.252,0.268c48.958-12.839,145.465-34.071,211.18-22.238l5.458,171.925l-224.645,25.675
				l-2.017-45.648c0,0-136.574-19.711-210.446-109.509c17.981-19.598,32.432-41.357,41.273-55.924
				C2274.544,2163.398,2296.744,2175.999,2325.052,2183.956z"/>
			
				<linearGradient id="SVGID_00000120552717828427830430000005807153616512671372_" gradientUnits="userSpaceOnUse" x1="-2746.8254" y1="1960.3198" x2="-2934.2065" y2="2254.5674" gradientTransform="matrix(-1 0 0 1 -635.6489 0)">
				<stop  offset="0" style="stop-color:#F9B776"/>
				<stop  offset="1" style="stop-color:#F47960"/>
			</linearGradient>
			<path style="fill:url(#SVGID_00000120552717828427830430000005807153616512671372_);" d="M2176.165,2014.517l17.326-7.607
				c0,0-0.86,86.525,63.616,141.595c-8.841,14.566-23.292,36.325-41.273,55.924
				C2179.42,2160.166,2158.238,2098.877,2176.165,2014.517z"/>
			
				<linearGradient id="SVGID_00000039133405289667658080000002458181862656703415_" gradientUnits="userSpaceOnUse" x1="-3158.333" y1="2214.5852" x2="-3140.7659" y2="2106.2549" gradientTransform="matrix(-1 0 0 1 -635.6489 0)">
				<stop  offset="0" style="stop-color:#F9B776"/>
				<stop  offset="1" style="stop-color:#F47960"/>
			</linearGradient>
			<path style="fill:url(#SVGID_00000039133405289667658080000002458181862656703415_);" d="M2539.907,2066.441
				c0,0,13.042,77.817,14.792,102.269c0,0-62.982,17.395-79.424,8.069l2.061-94.129L2539.907,2066.441z"/>
			<g>
				
					<linearGradient id="SVGID_00000055687240554703223820000001438263514993230729_" gradientUnits="userSpaceOnUse" x1="2574.9268" y1="2294.9607" x2="2733.5447" y2="2910.5513">
					<stop  offset="0" style="stop-color:#FDF53F"/>
					<stop  offset="1" style="stop-color:#D93C65"/>
				</linearGradient>
				<path style="fill:url(#SVGID_00000055687240554703223820000001438263514993230729_);" d="M2897.538,2299.664l-555.054-3.725
					c-12.708-0.085-23.029,10.245-22.932,22.953l2.336,306.579c0.097,12.781,10.688,22.98,23.464,22.597l549.044-16.501
					c12.196-0.366,21.938-10.277,22.094-22.478l3.674-286.354C2920.326,2310.102,2910.173,2299.749,2897.538,2299.664z"/>
				<path style="fill:#FFFFFF;" d="M2340.346,2625.328l-2.335-306.576c-0.008-1.182,0.426-2.248,1.255-3.081
					c0.83-0.837,1.895-1.277,3.094-1.277l555.057,3.727c1.171,0.009,2.225,0.457,3.048,1.29c0.826,0.837,1.256,1.903,1.242,3.089
					l-3.674,286.351c-0.031,2.321-1.871,4.194-4.19,4.267l-549.188,16.502C2342.296,2629.621,2340.363,2627.697,2340.346,2625.328z
					 M2897.385,2322.54l-554.957-3.823l2.158,306.486l549.029-16.498L2897.385,2322.54z"/>
				<path style="fill:#FFFFFF;" d="M2865.521,2353.21L2865.521,2353.21c0,9.887-5.758,17.902-12.861,17.902h-472.095
					c-7.103,0-12.861-8.015-12.861-17.902l0,0c0-9.887,5.758-17.902,12.861-17.902h472.095
					C2859.763,2335.308,2865.521,2343.323,2865.521,2353.21z"/>
				<path style="fill:#FFFFFF;" d="M2863.207,2397.607h-198.762c-7.036,0-12.741,5.704-12.741,12.741v164.103
					c0,7.175,5.922,12.935,13.094,12.736l194.695-5.398c6.77-0.188,12.21-5.64,12.384-12.41l4.068-158.705
					C2876.127,2403.512,2870.372,2397.607,2863.207,2397.607z"/>
				<path style="fill:#FFFFFF;" d="M2610.226,2401.644h-221.87c-4.827,0-8.741,4.807-8.741,10.736v0
					c0,5.93,3.914,10.737,8.741,10.737h221.87c4.827,0,8.74-4.807,8.74-10.737v0
					C2618.966,2406.45,2615.052,2401.644,2610.226,2401.644z"/>
				<path style="fill:#FFFFFF;" d="M2618.966,2458.354L2618.966,2458.354c0,5.919-3.906,10.717-8.724,10.717H2388.34
					c-4.818,0-8.725-4.798-8.725-10.717v-6.625c0-6.021,4.037-10.86,8.937-10.713l221.902,6.625
					C2615.188,2447.781,2618.966,2452.536,2618.966,2458.354z"/>
			</g>
			
				<linearGradient id="SVGID_00000003796354021774127630000003248016152514273678_" gradientUnits="userSpaceOnUse" x1="-3191.2173" y1="2093.9604" x2="-3968.342" y2="3280.3152" gradientTransform="matrix(-1 0 0 1 -635.6489 0)">
				<stop  offset="0" style="stop-color:#CB236D"/>
				<stop  offset="1" style="stop-color:#4C246D"/>
			</linearGradient>
			<path style="fill:url(#SVGID_00000003796354021774127630000003248016152514273678_);" d="M2592.351,2254.771l55.133-92.784
				c0,0,115.275,98.753,150.138,236.095l-61.141,38.416C2711.396,2391.686,2667.682,2332.027,2592.351,2254.771z"/>
			
				<linearGradient id="SVGID_00000023279502780251280220000017002688375381273216_" gradientUnits="userSpaceOnUse" x1="-3443.1501" y1="2524.5164" x2="-3334.6506" y2="2524.5164" gradientTransform="matrix(-1 0 0 1 -635.6489 0)">
				<stop  offset="0" style="stop-color:#F9B776"/>
				<stop  offset="1" style="stop-color:#F47960"/>
			</linearGradient>
			<path style="fill:url(#SVGID_00000023279502780251280220000017002688375381273216_);" d="M2712.933,2640.283
				c5.735-0.119,10.89-3.494,13.29-8.704c6.253-13.58,18.53-39.473,24.956-47.833c0,0-7.072-3.47-19.604-0.542
				s-23.145-2.196-23.511-9.149l58.597-25.113c2.109-5.983,10.624-39.551-30.18-112.444l61.141-38.416
				c13.052,51.418,14.857,108.233-4.911,167.316c0,0-11.53,67.113-34.873,80.682c-23.344,13.57-58.836-5.506-58.836-5.506
				L2712.933,2640.283z"/>
			<g>
				
					<linearGradient id="SVGID_00000040540439046482580510000012578900106434719677_" gradientUnits="userSpaceOnUse" x1="-3100.3992" y1="2037.0493" x2="-3220.0813" y2="2128.6245" gradientTransform="matrix(-1 0 0 1 -635.6489 0)">
					<stop  offset="0" style="stop-color:#F9B776"/>
					<stop  offset="1" style="stop-color:#F47960"/>
				</linearGradient>
				<path style="fill:url(#SVGID_00000040540439046482580510000012578900106434719677_);" d="M2469.139,1994.717
					c0,0-20.936,48.093-22.342,73.335c-1.406,25.242-6.845,41.621,22.342,46.704c29.187,5.083,53.774-9.457,67.094-34.601
					c0,0,20.87-38.744,16.189-54.611C2547.74,2009.678,2469.139,1994.717,2469.139,1994.717z"/>
				
					<linearGradient id="SVGID_00000182499651199215544340000000901579652842771618_" gradientUnits="userSpaceOnUse" x1="-3184.4807" y1="1964.7599" x2="-3076.1062" y2="2104.2917" gradientTransform="matrix(-1 0 0 1 -635.6489 0)">
					<stop  offset="0" style="stop-color:#2B3582"/>
					<stop  offset="1" style="stop-color:#150E42"/>
				</linearGradient>
				<path style="fill:url(#SVGID_00000182499651199215544340000000901579652842771618_);" d="M2526.26,2062.077h-3.69
					c0,0,15.203-31.183,1.845-36.661c-13.358-5.479-66.271-16.269-77.687-35.045c-11.006-18.1-1.191-41.48,13.494-48.023
					c0.929-0.414,2.025,0.023,2.5,0.922l1.217,2.302c0.833,1.576,3.161,1.338,3.657-0.375l0,0c0.47-1.625,2.66-1.979,3.554-0.543
					c3.495,5.615,12.958,14.745,38.337,19.429c36.013,6.646,59.82,21.222,60.406,46.11c0.037,1.577,1.723,2.446,3.069,1.625
					c2.658-1.62,6.913-2.38,12.599,2.401c9.888,8.315,5.842,29.883-15.835,47.625c-1.03,0.843-1.021,2.452,0.094,3.178
					c3.93,2.559,9.787,8.645-5.393,16.76c-15.527,8.3-24.717,7.395-28.184,6.508c-0.934-0.239-1.561-1.089-1.501-2.051l1.363-22.056
					c0.071-1.141-0.835-2.105-1.978-2.105H2526.26z"/>
				
					<linearGradient id="SVGID_00000170971795081646176320000015388160221687254683_" gradientUnits="userSpaceOnUse" x1="-3115.2441" y1="2017.6473" x2="-3234.927" y2="2109.2229" gradientTransform="matrix(-1 0 0 1 -635.6489 0)">
					<stop  offset="0" style="stop-color:#F9B776"/>
					<stop  offset="1" style="stop-color:#F47960"/>
				</linearGradient>
				<path style="fill:url(#SVGID_00000170971795081646176320000015388160221687254683_);" d="M2525.353,2066.692
					c0,0,7.987-30.72,21.76-22.107c13.773,8.614-7.147,34.422-18.221,35.571L2525.353,2066.692z"/>
			</g>
			
				<linearGradient id="SVGID_00000139281699667896531680000002629404889137416845_" gradientUnits="userSpaceOnUse" x1="-2801.0925" y1="1925.7617" x2="-2988.4746" y2="2220.0105" gradientTransform="matrix(-1 0 0 1 -635.6489 0)">
				<stop  offset="0" style="stop-color:#F9B776"/>
				<stop  offset="1" style="stop-color:#F47960"/>
			</linearGradient>
			<path style="fill:url(#SVGID_00000139281699667896531680000002629404889137416845_);" d="M2241.284,1942.374v34.745
				c0,0-28.285,35.981-65.119,37.398c0,0-32.441-2.132-31.343-26.159l51.885-9.913c0,0,21.778-6.397,27.868-9.722
				C2224.574,1968.724,2229.05,1943.472,2241.284,1942.374z"/>
		</g>
		<g>
			<g>
				<g>
					
						<linearGradient id="SVGID_00000152254605475692237220000008437080000651097764_" gradientUnits="userSpaceOnUse" x1="706.7221" y1="1971.4254" x2="663.4885" y2="2163.0762">
						<stop  offset="0" style="stop-color:#A737D5"/>
						<stop  offset="1" style="stop-color:#EF497A"/>
					</linearGradient>
					<path style="fill:url(#SVGID_00000152254605475692237220000008437080000651097764_);" d="M896.512,2162.359
						c-36.605-87.242-169.216-351.743-403.801-270.053c-3.453,1.203-3.052,6.231,0.543,6.897
						c51.726,9.586,243.394,58.001,397.102,266.618C892.86,2169.219,898.146,2166.251,896.512,2162.359z"/>
					
						<linearGradient id="SVGID_00000042726580159768311370000006694866261500203195_" gradientUnits="userSpaceOnUse" x1="612.8709" y1="2153.4167" x2="587.0829" y2="2267.7324" gradientTransform="matrix(0.9986 -0.0538 0.0538 0.9986 -34.597 -69.4387)">
						<stop  offset="0" style="stop-color:#A737D5"/>
						<stop  offset="1" style="stop-color:#EF497A"/>
					</linearGradient>
					<path style="fill:url(#SVGID_00000042726580159768311370000006694866261500203195_);" d="M894.504,2167.814
						c-52.739-49.708-209.77-242.013-418.311-154.129c-2.291,0.965-1.83,4.358,0.642,4.619
						c51.541,5.447,307.43,37.859,416.666,153.729C896.397,2175.104,897.576,2170.709,894.504,2167.814z"/>
					
						<linearGradient id="SVGID_00000181773136126024172790000004926316499244146310_" gradientUnits="userSpaceOnUse" x1="506.8561" y1="2265.5718" x2="436.0439" y2="2579.4763" gradientTransform="matrix(0.9819 -0.1894 0.1894 0.9819 -133.1587 -230.2052)">
						<stop  offset="0" style="stop-color:#A737D5"/>
						<stop  offset="1" style="stop-color:#EF497A"/>
					</linearGradient>
					<path style="fill:url(#SVGID_00000181773136126024172790000004926316499244146310_);" d="M889.552,2145.986
						c-5.009-65.759-34.393-314.029-194.285-365.241c-1.166-0.373-2.164,0.955-1.456,1.954
						c19.263,27.169,159.437,227.921,193.245,363.684C887.432,2147.898,889.67,2147.542,889.552,2145.986z"/>
					
						<linearGradient id="SVGID_00000066503040669105971060000016672840715886074507_" gradientUnits="userSpaceOnUse" x1="1093.343" y1="1531.8733" x2="1067.8446" y2="1644.9055" gradientTransform="matrix(0.9601 0.2796 -0.2796 0.9601 128.4922 387.9004)">
						<stop  offset="0" style="stop-color:#A737D5"/>
						<stop  offset="1" style="stop-color:#EF497A"/>
					</linearGradient>
					<path style="fill:url(#SVGID_00000066503040669105971060000016672840715886074507_);" d="M905.465,2221.333
						c1.406,0.763,2.776-1.055,1.643-2.184c-28.245-28.138-145.188-131.537-293.661-80.622
						C445.241,2196.21,739.759,2131.427,905.465,2221.333z"/>
					
						<linearGradient id="SVGID_00000002360641910495844210000014864691975701345723_" gradientUnits="userSpaceOnUse" x1="928.907" y1="1917.2853" x2="854.8066" y2="2245.7654">
						<stop  offset="0" style="stop-color:#A737D5"/>
						<stop  offset="1" style="stop-color:#EF497A"/>
					</linearGradient>
					<path style="fill:url(#SVGID_00000002360641910495844210000014864691975701345723_);" d="M901.584,2169.817
						c-0.339,4.919-7.329,5.503-8.422,0.695c-17.734-77.987-55.324-293.046,54.08-347.748
						C1076.732,1758.019,919.173,1914.801,901.584,2169.817z"/>
					
						<linearGradient id="SVGID_00000164509288334892762960000008557332647344005307_" gradientUnits="userSpaceOnUse" x1="1423.6847" y1="1108.8652" x2="1377.8098" y2="1312.2247" gradientTransform="matrix(0.9241 0.3822 -0.3822 0.9241 141.7369 506.458)">
						<stop  offset="0" style="stop-color:#A737D5"/>
						<stop  offset="1" style="stop-color:#EF497A"/>
					</linearGradient>
					<path style="fill:url(#SVGID_00000164509288334892762960000008557332647344005307_);" d="M894.029,2169.271
						c18.381-47.891,89.234-196.588,236.686-116.243c2.487,1.355,1.676,5.14-1.151,5.318
						c-33.175,2.086-143.476,16.4-230.781,113.759C896.687,2174.442,892.904,2172.201,894.029,2169.271z"/>
					
						<linearGradient id="SVGID_00000036930820034679741280000001369150301327087508_" gradientUnits="userSpaceOnUse" x1="1012.4249" y1="2149.853" x2="994.8524" y2="2227.7505">
						<stop  offset="0" style="stop-color:#A737D5"/>
						<stop  offset="1" style="stop-color:#EF497A"/>
					</linearGradient>
					<path style="fill:url(#SVGID_00000036930820034679741280000001369150301327087508_);" d="M898.01,2181.292
						c6.778-29.573,42.053-88.884,221.537-34.558c1.076,0.326,0.793,1.942-0.325,1.825c-35.27-3.663-154.445-11.761-212.859,37.837
						C902.61,2189.581,896.91,2186.09,898.01,2181.292z"/>
				</g>
				
					<linearGradient id="SVGID_00000101805379277398081440000007345850375083335062_" gradientUnits="userSpaceOnUse" x1="883.6687" y1="2576.5586" x2="960.7225" y2="2576.5586">
					<stop  offset="0" style="stop-color:#A737D5"/>
					<stop  offset="1" style="stop-color:#EF497A"/>
				</linearGradient>
				<path style="fill:url(#SVGID_00000101805379277398081440000007345850375083335062_);" d="M949.664,2990.696l0.065-6.057
					l-0.002-6.506l-0.096-13.031l-0.171-26.07l-0.759-52.141c-0.465-34.756-1.152-69.507-1.889-104.247
					c-1.578-69.48-3.572-138.933-6.745-208.309c-3.112-69.375-7.4-138.686-14.077-207.729c-3.423-34.51-7.547-68.942-13.106-103.125
					c-5.457-34.182-12.49-68.194-23.915-100.85l3.098-1.266c6.8,16.116,12.755,32.651,17.238,49.548l3.502,12.645
					c1.101,4.23,2.047,8.491,3.078,12.738l3.034,12.757l2.688,12.82c6.934,34.241,12.294,68.762,16.498,103.386
					c4.31,34.615,7.497,69.34,10.337,104.077c2.653,34.749,4.644,69.536,6.379,104.326c1.508,34.799,2.633,69.609,3.445,104.42
					c0.546,34.816,1.078,69.628,0.891,104.442c-0.039,34.813-0.563,69.622-1.436,104.421l-1.851,52.188l-1.145,26.088l-0.779,13.044
					l-0.437,6.528c-0.191,2.198-0.241,4.226-0.672,6.962L949.664,2990.696z"/>
				<g>
					
						<linearGradient id="SVGID_00000025436388982877144300000016586082973813953927_" gradientUnits="userSpaceOnUse" x1="-3770.9995" y1="2228.6394" x2="-3803.3289" y2="2371.9519" gradientTransform="matrix(-1 0 0 1 -2600.3784 0)">
						<stop  offset="0" style="stop-color:#A737D5"/>
						<stop  offset="1" style="stop-color:#EF497A"/>
					</linearGradient>
					<path style="fill:url(#SVGID_00000025436388982877144300000016586082973813953927_);" d="M1028.7,2371.415
						c27.372-65.238,126.536-263.026,301.954-201.94c2.582,0.899,2.282,4.659-0.406,5.157
						c-38.68,7.168-182.006,43.372-296.945,199.372C1031.431,2376.545,1027.479,2374.326,1028.7,2371.415z"/>
					
						<linearGradient id="SVGID_00000094618051513411201030000004069900701399803801_" gradientUnits="userSpaceOnUse" x1="-3867.561" y1="2150.2678" x2="-3886.8447" y2="2235.7507" gradientTransform="matrix(-0.9986 -0.0538 -0.0538 0.9986 -2565.7813 -69.4387)">
						<stop  offset="0" style="stop-color:#A737D5"/>
						<stop  offset="1" style="stop-color:#EF497A"/>
					</linearGradient>
					<path style="fill:url(#SVGID_00000094618051513411201030000004069900701399803801_);" d="M1030.202,2375.495
						c39.437-37.17,156.862-180.973,312.804-115.255c1.713,0.722,1.368,3.259-0.48,3.454
						c-38.541,4.073-229.89,28.31-311.574,114.955C1028.786,2380.946,1027.905,2377.66,1030.202,2375.495z"/>
					
						<linearGradient id="SVGID_00000083785408007549230000000009027932466159891118_" gradientUnits="userSpaceOnUse" x1="-3963.5469" y1="1683.993" x2="-4016.4988" y2="1918.7246" gradientTransform="matrix(-0.9819 -0.1894 -0.1894 0.9819 -2467.2195 -230.2052)">
						<stop  offset="0" style="stop-color:#A737D5"/>
						<stop  offset="1" style="stop-color:#EF497A"/>
					</linearGradient>
					<path style="fill:url(#SVGID_00000083785408007549230000000009027932466159891118_);" d="M1033.905,2359.173
						c3.745-49.173,25.719-234.825,145.283-273.12c0.872-0.279,1.618,0.715,1.089,1.461
						c-14.405,20.316-119.224,170.435-144.505,271.956C1035.49,2360.602,1033.817,2360.336,1033.905,2359.173z"/>
					
						<linearGradient id="SVGID_00000083069468086845200360000006500548723576564109_" gradientUnits="userSpaceOnUse" x1="-3157.9966" y1="2987.1685" x2="-3177.0637" y2="3071.6917" gradientTransform="matrix(-0.9601 0.2796 0.2796 0.9601 -2728.8706 387.9004)">
						<stop  offset="0" style="stop-color:#A737D5"/>
						<stop  offset="1" style="stop-color:#EF497A"/>
					</linearGradient>
					<path style="fill:url(#SVGID_00000083069468086845200360000006500548723576564109_);" d="M1022.005,2415.516
						c-1.051,0.57-2.076-0.789-1.229-1.633c21.121-21.041,108.569-98.361,219.594-60.288
						C1366.151,2396.729,1145.917,2348.286,1022.005,2415.516z"/>
					
						<linearGradient id="SVGID_00000070083449321227295720000001031392827622006662_" gradientUnits="userSpaceOnUse" x1="-3604.854" y1="2188.1545" x2="-3660.2646" y2="2433.7854" gradientTransform="matrix(-1 0 0 1 -2600.3784 0)">
						<stop  offset="0" style="stop-color:#A737D5"/>
						<stop  offset="1" style="stop-color:#EF497A"/>
					</linearGradient>
					<path style="fill:url(#SVGID_00000070083449321227295720000001031392827622006662_);" d="M1024.907,2376.993
						c0.254,3.678,5.481,4.115,6.298,0.52c13.261-58.317,41.37-219.134-40.44-260.039
						C893.935,2069.058,1011.755,2186.297,1024.907,2376.993z"/>
					
						<linearGradient id="SVGID_00000178168675263161206390000011247677970014559415_" gradientUnits="userSpaceOnUse" x1="-2701.905" y1="3065.1653" x2="-2736.2095" y2="3217.2336" gradientTransform="matrix(-0.9241 0.3822 0.3822 0.9241 -2742.1152 506.458)">
						<stop  offset="0" style="stop-color:#A737D5"/>
						<stop  offset="1" style="stop-color:#EF497A"/>
					</linearGradient>
					<path style="fill:url(#SVGID_00000178168675263161206390000011247677970014559415_);" d="M1030.557,2376.585
						c-13.745-35.812-66.727-147.005-176.989-86.924c-1.86,1.013-1.253,3.844,0.861,3.977
						c24.807,1.56,107.289,12.264,172.574,85.066C1028.57,2380.451,1031.398,2378.776,1030.557,2376.585z"/>
					
						<linearGradient id="SVGID_00000031899965025279932060000009351052909371934895_" gradientUnits="userSpaceOnUse" x1="-3542.4011" y1="2362.064" x2="-3555.5415" y2="2420.314" gradientTransform="matrix(-1 0 0 1 -2600.3784 0)">
						<stop  offset="0" style="stop-color:#A737D5"/>
						<stop  offset="1" style="stop-color:#EF497A"/>
					</linearGradient>
					<path style="fill:url(#SVGID_00000031899965025279932060000009351052909371934895_);" d="M1027.58,2385.573
						c-5.068-22.114-31.446-66.466-165.661-25.842c-0.804,0.244-0.593,1.452,0.243,1.365c26.374-2.739,115.49-8.794,159.172,28.293
						C1024.14,2391.772,1028.403,2389.161,1027.58,2385.573z"/>
				</g>
				
					<linearGradient id="SVGID_00000074430182073955608540000013077375907433049785_" gradientUnits="userSpaceOnUse" x1="979.7028" y1="2681.1328" x2="1039.2129" y2="2681.1328">
					<stop  offset="0" style="stop-color:#A737D5"/>
					<stop  offset="1" style="stop-color:#EF497A"/>
				</linearGradient>
				<path style="fill:url(#SVGID_00000074430182073955608540000013077375907433049785_);" d="M986.18,2991.754
					c-0.352-2.195-0.365-3.671-0.507-5.323l-0.312-4.886l-0.552-9.758c-0.365-6.503-0.596-13.007-0.848-19.511l-1.292-39.029
					c-0.855-26.024-0.921-52.054-1.09-78.087c-0.053-26.033-0.102-52.076,0.401-78.113c0.544-26.034,1.17-52.077,2.295-78.106
					c1.164-26.028,2.545-52.055,4.378-78.063c2.003-25.997,4.317-51.987,7.533-77.897l2.503-19.423l2.961-19.372
					c2.09-12.9,4.289-25.787,7.095-38.576c1.279-6.412,2.726-12.799,4.352-19.148c0.81-3.174,1.557-6.357,2.419-9.517l2.737-9.449
					c3.534-12.61,8.058-24.997,13.38-36.985l3.098,1.266c-3.947,12.308-7.526,24.676-10.126,37.346l-2.014,9.468
					c-0.623,3.168-1.131,6.367-1.702,9.546l-1.733,9.531l-1.51,9.581c-0.997,6.388-2.002,12.769-2.796,19.197
					c-0.837,6.419-1.85,12.799-2.531,19.243c-1.542,12.853-2.908,25.731-4.25,38.614c-4.962,51.583-8.563,103.359-11.116,155.217
					c-2.524,51.86-4.257,103.782-5.591,155.734c-0.69,25.977-0.879,51.96-1.428,77.95l-0.476,38.987l-0.12,19.492l-0.041,9.74
					l0.056,9.273L986.18,2991.754z"/>
				<g>
					
						<linearGradient id="SVGID_00000109721369591603604580000013441712116003450261_" gradientUnits="userSpaceOnUse" x1="344.8367" y1="2736.5415" x2="316.2081" y2="2863.4497" gradientTransform="matrix(0.9817 -0.1902 0.1902 0.9817 -170.6797 -236.5895)">
						<stop  offset="0" style="stop-color:#A737D5"/>
						<stop  offset="1" style="stop-color:#EF497A"/>
					</linearGradient>
					<path style="fill:url(#SVGID_00000109721369591603604580000013441712116003450261_);" d="M817.884,2484.121
						c-31.332-51.142-138.524-203.828-260.835-126.556c-1.801,1.137-0.959,4.272,1.151,4.3
						c30.35,0.406,144.388,10.059,256.636,125.118C816.665,2488.856,819.282,2486.403,817.884,2484.121z"/>
					
						<linearGradient id="SVGID_00000026867295768889096420000005113930605385534393_" gradientUnits="userSpaceOnUse" x1="216.6314" y1="2871.127" x2="199.4161" y2="2947.4409" gradientTransform="matrix(0.9701 -0.2428 0.2428 0.9701 -217.4897 -298.4319)">
						<stop  offset="0" style="stop-color:#A737D5"/>
						<stop  offset="1" style="stop-color:#EF497A"/>
					</linearGradient>
					<path style="fill:url(#SVGID_00000026867295768889096420000005113930605385534393_);" d="M817.42,2487.789
						c-35.835-25.654-147.959-130.04-254.822-51.7c-1.174,0.861-0.498,2.955,0.928,2.85c29.738-2.19,178.041-9.671,253.845,51.627
						C819.38,2492.19,819.507,2489.283,817.42,2487.789z"/>
					
						<linearGradient id="SVGID_00000049223118039802712270000004741105380495321756_" gradientUnits="userSpaceOnUse" x1="-36.385" y1="2966.6416" x2="-82.0599" y2="3169.1145" gradientTransform="matrix(0.9279 -0.3728 0.3728 0.9279 -344.5607 -437.9108)">
						<stop  offset="0" style="stop-color:#A737D5"/>
						<stop  offset="1" style="stop-color:#EF497A"/>
					</linearGradient>
					<path style="fill:url(#SVGID_00000049223118039802712270000004741105380495321756_);" d="M811.953,2474.534
						c-10.879-41.016-57.86-194.726-154.318-209.62c-0.703-0.108-1.104,0.841-0.582,1.394
						c14.193,15.067,117.844,126.634,153.54,208.749C810.991,2475.973,812.21,2475.504,811.953,2474.534z"/>
					
						<linearGradient id="SVGID_00000046323121644101918840000011135912310566952853_" gradientUnits="userSpaceOnUse" x1="922.4597" y1="2305.8911" x2="907.7439" y2="2371.125" gradientTransform="matrix(0.9958 0.0919 -0.0919 0.9958 29.6854 120.4094)">
						<stop  offset="0" style="stop-color:#A737D5"/>
						<stop  offset="1" style="stop-color:#EF497A"/>
					</linearGradient>
					<path style="fill:url(#SVGID_00000046323121644101918840000011135912310566952853_);" d="M830.157,2520.418
						c0.886,0.329,1.437-0.97,0.659-1.56c-19.378-14.698-98.002-67.271-175.511-18.863
						C567.494,2554.838,725.681,2481.703,830.157,2520.418z"/>
					
						<linearGradient id="SVGID_00000146482189370368896550000016000096843488624521_" gradientUnits="userSpaceOnUse" x1="470.8924" y1="2701.7437" x2="423.4673" y2="2911.9751" gradientTransform="matrix(0.9817 -0.1902 0.1902 0.9817 -170.6797 -236.5895)">
						<stop  offset="0" style="stop-color:#A737D5"/>
						<stop  offset="1" style="stop-color:#EF497A"/>
					</linearGradient>
					<path style="fill:url(#SVGID_00000146482189370368896550000016000096843488624521_);" d="M821.659,2488.281
						c0.411,3.146-3.46,4.279-4.666,1.36c-19.554-47.354-67.096-179.176-12.087-225.708
						C870.016,2208.857,800.347,2325.174,821.659,2488.281z"/>
					
						<linearGradient id="SVGID_00000068663637819111207520000013346046059502637998_" gradientUnits="userSpaceOnUse" x1="1237.5531" y1="1974.5355" x2="1209.8672" y2="2097.2644" gradientTransform="matrix(0.9799 0.1994 -0.1994 0.9799 65.2402 233.334)">
						<stop  offset="0" style="stop-color:#A737D5"/>
						<stop  offset="1" style="stop-color:#EF497A"/>
					</linearGradient>
					<path style="fill:url(#SVGID_00000068663637819111207520000013346046059502637998_);" d="M817.33,2488.762
						c4.503-32.279,26.255-134.008,119.265-99.341c1.569,0.585,1.575,3.066,0.002,3.488c-18.457,4.944-78.919,26.047-116.238,97.125
						C819.463,2491.74,817.055,2490.737,817.33,2488.762z"/>
					
						<linearGradient id="SVGID_00000103235752846744528660000008130326345817855140_" gradientUnits="userSpaceOnUse" x1="519.8384" y1="2851.238" x2="509.021" y2="2899.1907" gradientTransform="matrix(0.9817 -0.1902 0.1902 0.9817 -170.6797 -236.5895)">
						<stop  offset="0" style="stop-color:#A737D5"/>
						<stop  offset="1" style="stop-color:#EF497A"/>
					</linearGradient>
					<path style="fill:url(#SVGID_00000103235752846744528660000008130326345817855140_);" d="M821.048,2495.924
						c0.201-19.433,12.834-60.776,120.724-46.055c0.646,0.088,0.685,1.14,0.04,1.189c-20.343,1.54-88.554,9.447-115.428,47.179
						C824.658,2500.661,821.015,2499.077,821.048,2495.924z"/>
				</g>
				
					<linearGradient id="SVGID_00000080169254143032929260000000140956290196010143_" gradientUnits="userSpaceOnUse" x1="809.9918" y1="2742.9399" x2="955.4868" y2="2742.9399">
					<stop  offset="0" style="stop-color:#A737D5"/>
					<stop  offset="1" style="stop-color:#EF497A"/>
				</linearGradient>
				<path style="fill:url(#SVGID_00000080169254143032929260000000140956290196010143_);" d="M948.608,3001.867l-3.049-16.04
					l-3.246-16.442l-6.662-32.855l-13.762-65.614c-4.687-21.848-9.521-43.662-14.501-65.438
					c-4.851-21.804-9.865-43.569-15.054-65.288c-10.431-43.423-21.807-86.598-34.122-129.442l-4.695-16.041l-4.881-15.976
					c-3.265-10.643-6.584-21.279-10.267-31.77c-7.389-20.965-15.048-41.887-25.343-61.552l2.867-1.724
					c6.097,9.496,11.572,19.416,16.351,29.606c2.458,5.072,4.897,10.157,7.012,15.366c2.228,5.17,4.371,10.372,6.37,15.622
					c8.245,20.92,15.576,42.165,22.137,63.62c13.17,42.902,23.914,86.431,34.116,130.037c5.045,21.817,9.913,43.672,14.614,65.558
					c4.51,21.927,8.872,43.882,13.084,65.863c4.201,21.982,8.333,43.977,12.012,66.055l5.482,33.12l2.584,16.59l1.205,8.314
					l0.577,4.17c0.167,1.418,0.404,2.656,0.501,4.589L948.608,3001.867z"/>
			</g>
			<g>
				
					<linearGradient id="SVGID_00000159454341264965010740000011088673762911214728_" gradientUnits="userSpaceOnUse" x1="1024.1792" y1="3370.824" x2="971.1403" y2="3091.1643">
					<stop  offset="0" style="stop-color:#CB236D"/>
					<stop  offset="1" style="stop-color:#4C246D"/>
				</linearGradient>
				<path style="fill:url(#SVGID_00000159454341264965010740000011088673762911214728_);" d="M878.425,2941.054h142.87
					c9.364,0,16.293,14.112,14.187,28.893c-9.141,64.153-20.096,129.244-42.511,195.316c-4.14,12.204-12.024,19.855-20.62,19.855
					h-46.62c-8.466,0-16.234-7.535-20.247-19.612c-17.958-54.059-35.236-118.501-43.766-191.64
					C859.732,2956.844,867.731,2941.054,878.425,2941.054z"/>
			</g>
		</g>
		<g>
			<g>
				
					<linearGradient id="SVGID_00000096755765636977711050000015796349511648034744_" gradientUnits="userSpaceOnUse" x1="1585.9242" y1="641.4098" x2="561.9808" y2="1772.434">
					<stop  offset="0" style="stop-color:#CB236D"/>
					<stop  offset="1" style="stop-color:#4C246D"/>
				</linearGradient>
				<path style="fill:url(#SVGID_00000096755765636977711050000015796349511648034744_);" d="M529.82,1163.297
					c0,309.906,260.729,561.135,582.355,561.135s596.76-262.207,596.76-572.113c0-309.906-275.134-550.157-596.76-550.157
					S529.82,853.391,529.82,1163.297z"/>
				<g>
					<path style="fill:#FFFFFF;" d="M1663.212,1026.856c0.346,0,0.692-0.038,1.037-0.128c2.148-0.553,3.424-2.672,2.855-4.745
						c-6.268-22.674-14.271-45.166-23.794-66.848c-0.868-1.968-3.24-2.868-5.271-2.058c-2.046,0.84-3,3.109-2.136,5.085
						c9.377,21.342,17.259,43.486,23.425,65.819C1659.807,1025.714,1661.437,1026.856,1663.212,1026.856z"/>
					<path style="fill:#FFFFFF;" d="M1574.221,851.499c0.84,0,1.692-0.258,2.418-0.779c1.771-1.287,2.125-3.723,0.789-5.426
						c-107.896-137.867-281.693-220.168-464.908-220.168c-78.246,0-153.929,15.288-224.939,45.423
						c-2.031,0.863-2.953,3.156-2.058,5.109c0.891,1.96,3.268,2.845,5.302,1.99c69.98-29.711,144.572-44.772,221.695-44.772
						c180.706,0,352.098,81.151,458.484,217.08C1571.797,850.97,1572.999,851.499,1574.221,851.499z"/>
				</g>
				
					<linearGradient id="SVGID_00000005970246890526755690000002919359087280448424_" gradientUnits="userSpaceOnUse" x1="1115.3666" y1="1415.1605" x2="1135.4445" y2="130.2177">
					<stop  offset="0" style="stop-color:#B37CFF"/>
					<stop  offset="1" style="stop-color:#F895E7"/>
				</linearGradient>
				<path style="fill:url(#SVGID_00000005970246890526755690000002919359087280448424_);" d="M609.051,1163.297
					c0,268.258,225.691,485.724,504.092,485.724s516.561-226.968,516.561-495.225c0-268.258-238.159-476.223-516.561-476.223
					S609.051,895.039,609.051,1163.297z"/>
				
					<linearGradient id="SVGID_00000151543755218086603430000000055417053350706060_" gradientUnits="userSpaceOnUse" x1="1281.1188" y1="2388.8887" x2="993.3459" y2="655.5511">
					<stop  offset="0" style="stop-color:#B37CFF"/>
					<stop  offset="1" style="stop-color:#F895E7"/>
				</linearGradient>
				<path style="fill:url(#SVGID_00000151543755218086603430000000055417053350706060_);" d="M609.053,1163.297
					c0-268.258,225.689-485.724,504.092-485.724c150.754,0,289.686,61.002,385.416,159.515l-388.317,311.328l-79.828,494.057
					C791.377,1604.439,609.053,1404.401,609.053,1163.297z"/>
				<path style="opacity:0.23;fill:#FFFFFF;" d="M677.664,1129.529c0,242.098,207.913,438.357,464.385,438.357
					c256.473,0,475.871-204.834,475.871-446.932c0-242.098-219.398-429.781-475.871-429.781
					C885.577,691.173,677.664,887.432,677.664,1129.529z"/>
				<path style="opacity:0.78;fill:#FFFFFF;" d="M1500.88,1138.104c1.247,20.618,19.601,36.36,41.001,35.16
					c21.397-1.2,37.734-18.887,36.488-39.505c-1.245-20.618-19.602-36.36-41-35.16
					C1515.972,1099.798,1499.635,1117.485,1500.88,1138.104z"/>
				<path style="opacity:0.78;fill:#FFFFFF;" d="M662.421,1185.128c1.244,20.618,19.602,36.36,40.998,35.16
					c21.398-1.2,37.736-18.888,36.49-39.506c-1.245-20.618-19.602-36.36-40.999-35.159
					C677.512,1146.823,661.175,1164.509,662.421,1185.128z"/>
				<path style="opacity:0.78;fill:#FFFFFF;" d="M1188.876,1520.708c-21.086,3.711-35.056,23.19-31.205,43.507
					c3.851,20.317,24.067,33.78,45.151,30.068c21.085-3.711,35.056-23.19,31.205-43.506
					C1230.176,1530.459,1209.961,1516.998,1188.876,1520.708z"/>
				<path style="opacity:0.78;fill:#FFFFFF;" d="M1037.968,724.604c-21.086,3.711-35.057,23.189-31.206,43.506
					c3.851,20.318,24.065,33.779,45.151,30.067c21.085-3.71,35.056-23.189,31.206-43.506
					C1079.269,734.354,1059.053,720.893,1037.968,724.604z"/>
				<path style="opacity:0.78;fill:#FFFFFF;" d="M912.963,1542.083c-3.945,9.588-2.96,18.565,2.2,20.052
					c5.159,1.486,12.54-5.082,16.483-14.668c3.944-9.588,2.958-18.567-2.201-20.054
					C924.286,1525.927,916.905,1532.495,912.963,1542.083z"/>
				<path style="opacity:0.78;fill:#FFFFFF;" d="M1250.274,786.977c-3.944,9.588-2.958,18.565,2.201,20.052
					c5.161,1.487,12.54-5.081,16.485-14.667c3.944-9.588,2.959-18.567-2.201-20.054
					C1261.599,770.823,1254.218,777.39,1250.274,786.977z"/>
				<path style="opacity:0.78;fill:#FFFFFF;" d="M736.839,1398.538c-8.537,6.222-12.533,14.388-8.924,18.239
					c3.609,3.853,13.454,1.932,21.993-4.288c8.537-6.223,12.531-14.388,8.923-18.239
					C755.222,1390.398,745.376,1392.318,736.839,1398.538z"/>
				<path style="opacity:0.78;fill:#FFFFFF;" d="M1432.014,921.954c-8.536,6.221-12.532,14.387-8.924,18.239
					c3.607,3.854,13.455,1.932,21.992-4.288c8.538-6.221,12.533-14.388,8.924-18.24
					C1450.397,913.813,1440.552,915.734,1432.014,921.954z"/>
				<path style="opacity:0.78;fill:#FFFFFF;" d="M714.719,970.988c-9.664-4.433-19.026-4.087-20.91,0.774
					c-1.886,4.861,4.42,12.395,14.084,16.829c9.664,4.434,19.027,4.088,20.911-0.774
					C730.688,982.957,724.383,975.422,714.719,970.988z"/>
				<path style="opacity:0.78;fill:#FFFFFF;" d="M1474.029,1345.852c-9.664-4.434-19.026-4.088-20.911,0.773
					c-1.886,4.861,4.42,12.397,14.085,16.83c9.663,4.435,19.026,4.087,20.911-0.773
					C1489.999,1357.822,1483.692,1350.286,1474.029,1345.852z"/>
				<path style="opacity:0.78;fill:#FFFFFF;" d="M875.152,811.278c-5.869-8.625-14.058-13.013-18.289-9.801
					c-4.231,3.212-2.9,12.807,2.968,21.431c5.87,8.624,14.06,13.012,18.288,9.801C882.351,829.497,881.021,819.901,875.152,811.278z
					"/>
				<path style="opacity:0.78;fill:#FFFFFF;" d="M1322.09,1511.536c-5.87-8.623-14.059-13.011-18.289-9.8
					c-4.23,3.21-2.901,12.804,2.969,21.429c5.869,8.625,14.058,13.013,18.288,9.801
					C1329.289,1529.755,1327.959,1520.161,1322.09,1511.536z"/>
				
					<linearGradient id="SVGID_00000098208007882547504440000017273785334096355712_" gradientUnits="userSpaceOnUse" x1="1170.3088" y1="1164.7876" x2="1618.7017" y2="1432.4845">
					<stop  offset="0" style="stop-color:#CB236D"/>
					<stop  offset="1" style="stop-color:#4C246D"/>
				</linearGradient>
				<path style="fill:url(#SVGID_00000098208007882547504440000017273785334096355712_);" d="M1127.226,1148.131L1400,1279.217
					c5.285,2.539,11.47-1.275,11.291-6.962l-1.071-33.834c-0.207-6.58,7.837-10.227,12.966-5.875l197.225,167.321
					c6.033,5.12,1.071,14.624-6.791,13.005l-254.016-52.262c-6.078-1.251-8.277-8.511-3.852-12.715l29.739-28.256
					c3.675-3.492,2.885-9.399-1.588-11.88l-264.054-146.371c-3.677-2.038-4.993-6.533-2.962-10.124l0,0
					C1118.897,1147.709,1123.466,1146.325,1127.226,1148.131z"/>
				<path style="fill:#FFFFFF;" d="M1589.741,1399.085c2.536,0,4.831-1.364,5.989-3.661c1.385-2.749,0.673-5.893-1.77-7.84
					l-43.158-34.378c-1.495-1.192-3.718-0.987-4.952,0.457c-1.24,1.443-1.027,3.576,0.471,4.774l43.158,34.379
					c-57.506-12.654-192.19-40.934-194.984-41.206c-1.886-0.211-3.66,1.159-3.859,3.026c-0.192,1.841,1.176,3.483,3.065,3.708
					c4.037,0.623,107.252,22.235,194.547,40.582C1588.751,1399.031,1589.249,1399.085,1589.741,1399.085z"/>
				
					<linearGradient id="SVGID_00000077300637466246638660000005013304456991395483_" gradientUnits="userSpaceOnUse" x1="1180.2886" y1="739.2969" x2="903.4698" y2="1518.7598">
					<stop  offset="0" style="stop-color:#CB236D"/>
					<stop  offset="1" style="stop-color:#4C246D"/>
				</linearGradient>
				<path style="fill:url(#SVGID_00000077300637466246638660000005013304456991395483_);" d="M1106.356,1135.434l0.476-226.269
					c-0.079-5.01-5.678-8.124-10.219-5.685l-27.017,14.509c-5.255,2.823-11.473-1.761-10.02-7.387l55.877-216.338
					c1.709-6.617,11.431-6.73,13.302-0.152l60.479,212.517c1.446,5.085-3.553,9.683-8.758,8.051l-34.97-10.957
					c-4.323-1.355-8.794,1.633-8.994,6.008l-16.413,225.892c-0.164,3.596-3.278,6.407-7.014,6.332l0,0
					C1109.387,1141.881,1106.413,1138.999,1106.356,1135.434z"/>
				<path style="fill:#FFFFFF;" d="M1170.676,885.883c0.378,0,0.76-0.064,1.131-0.204c1.574-0.595,2.357-2.291,1.776-3.813
					c-1.126-3.276-25.394-89.787-45.868-162.987c-0.726-2.589-3.01-4.291-5.868-4.226c-2.79,0.069-5.058,1.882-5.649,4.511
					l-10.413,46.436c-0.36,1.609,0.702,3.201,2.375,3.545c1.655,0.356,3.315-0.67,3.682-2.285l10.413-46.436
					c13.026,48.447,44.634,161.344,45.539,163.565C1168.271,885.166,1169.439,885.883,1170.676,885.883z"/>
				
					<linearGradient id="SVGID_00000111873881467079224400000016377402305548048542_" gradientUnits="userSpaceOnUse" x1="1170.4224" y1="1083.6283" x2="902.7252" y2="1404.8645">
					<stop  offset="0" style="stop-color:#CB236D"/>
					<stop  offset="1" style="stop-color:#4C246D"/>
				</linearGradient>
				
					<ellipse style="fill:url(#SVGID_00000111873881467079224400000016377402305548048542_);" cx="1115.748" cy="1149.237" rx="41.449" ry="39.94"/>
			</g>
		</g>
	</g>
</g>
</svg>
