<?xml version="1.0" encoding="utf-8"?>
<!-- Generator: Adobe Illustrator 27.5.0, SVG Export Plug-In . SVG Version: 6.00 Build 0)  -->
<svg version="1.1" xmlns="http://www.w3.org/2000/svg" xmlns:xlink="http://www.w3.org/1999/xlink" x="0px" y="0px"
	 viewBox="0 0 500 500" style="enable-background:new 0 0 500 500;" xml:space="preserve">
<g id="BACKGROUND">
	<rect style="fill:#FFFFFF;" width="500" height="500"/>
</g>
<g id="OBJECTS">
	<path style="fill:#C2D1EF;" d="M59.986,166.406c13.376-20.615,41.435-32.608,63.947-39.873
		c38.122-12.303,77.919-19.733,117.986-21.033c39.292-1.274,81.447,1.461,117.176,19.224
		c79.701,39.625,112.524,151.814,70.051,229.494c-8.441,15.437-22.259,28.807-39.425,32.667
		c-15.996,3.597-32.959-1.476-46.82-10.232c-13.943-8.808-24.004-21.161-35.831-32.331c-11.885-11.225-23.87-22.701-36.11-33.638
		c-27.793-24.836-61.268-47.123-99.101-51.659c-17.264-2.07-34.785-0.905-52.068-2.814c-30.259-3.342-64.765-26.74-67.423-59.361
		C51.405,185.028,54.428,174.973,59.986,166.406z"/>
	<ellipse style="fill:#C2D1EF;" cx="244.529" cy="396.607" rx="207.635" ry="12.179"/>
	<g>
		<g>
			<g>
				<path style="fill:#284486;" d="M210.071,297.825c0,0,50.473-9.566,60.529,6.8c10.056,16.366-20.464,87.958-20.464,87.958
					h-65.171c0,0-7.07-44.801-12.018-76.626L210.071,297.825z"/>
				<path style="fill:#1F3663;" d="M244.523,304.625c-10.056-16.366-57.633-1.81-57.633-1.81s8.666-76.012-28.807-73.297
					l-0.017-0.083H68.645l-2.286,51.457L90.747,392.58h68.14c0,0,0.001,0.003,0.001,0.003h65.171
					C224.059,392.583,254.58,320.991,244.523,304.625z"/>
				<path style="fill:#284486;" d="M249.969,323.192c0,0-53.35,19.816-102.636,0l-5.179,18.037c0,0,66.378,28.962,109.085-3.557
					L249.969,323.192z"/>
			</g>
			<g>
				<g>
					<g>
						<path style="fill:#363636;" d="M171.764,390.137l-3.363,8.79l22.318,9.86c0,0,2.675-7.338-2.675-9.707
							c-5.35-2.369-5.58-2.752-4.968-4.586L171.764,390.137z"/>
						<path style="fill:#3D4A54;" d="M124.832,303.009l17.179,22.122l49.586,2.453l-20.861,63.014l13.052,4.989
							c0,0,40.985-69.572,28.945-86.378C200.695,292.404,124.832,303.009,124.832,303.009z"/>
					</g>
					<g>
						<path style="fill:#363636;" d="M240.459,365.476l5.107,7.905l21.138-12.188c0,0-4.341-6.492-9.413-3.574
							c-5.072,2.918-5.516,2.878-6.635,1.301L240.459,365.476z"/>
						<path style="fill:#53606B;" d="M118.345,300.423c0,0-10.418,45.578,86.857,15.82l34.924,49.972l11.396-7.224
							c0,0-20.952-54.71-37.811-61.844C196.852,290.012,118.345,300.423,118.345,300.423z"/>
					</g>
				</g>
				<g>
					<g>
						<path style="fill:#1B1B28;" d="M119.544,193.184c0,0-6.771-3.201-6.74-11.835c0,0-7.141-1.661,0.29-2.894
							c0,0-5.201-7.769,1.939-2.191c0,0,1.443-12.713,10.881-11.345c0,0,8.086-8.704,15.396-2.817c0,0,11.338-4.738,14.271,2.683
							c0,0,8.849,3.843,4.785,16.846c-4.064,13.004-31.661,13.734-31.661,13.734L119.544,193.184z"/>
						<g>
							<path style="fill:#E7AC8D;" d="M141.797,223.475c0.255-3.765,1.694-7.442,4.061-10.381c2.428-3.014,5.748-5.21,8.183-8.219
								c3.057-3.778,4.543-8.706,4.504-13.565c-0.039-4.86-1.54-9.645-3.917-13.885c-15.502-5.454-28.672-4.132-38.165,7.873
								c7.972,11.545,13.596,26.645,15.161,40.587c0,0-12.182,10.449-11.589,20.597c0.592,10.148,38.812,7.458,38.197-3.072
								C157.618,232.879,141.797,223.475,141.797,223.475z"/>
							<g>
								<g>
									<path style="fill:#1B1B28;" d="M145.58,190.619c0.067,1.14-0.532,2.103-1.337,2.15c-0.805,0.047-1.511-0.839-1.578-1.979
										c-0.066-1.14,0.532-2.103,1.337-2.15C144.807,188.592,145.513,189.478,145.58,190.619z"/>
									<path style="fill:#FFFFFF;" d="M144.324,190.095c0.023,0.403-0.188,0.742-0.472,0.759s-0.534-0.296-0.557-0.699
										c-0.023-0.403,0.188-0.743,0.472-0.759C144.051,189.379,144.3,189.692,144.324,190.095z"/>
								</g>
								<g>
									<path style="fill:#1B1B28;" d="M154.247,190.113c0.067,1.14-0.532,2.103-1.337,2.15c-0.805,0.047-1.511-0.839-1.578-1.979
										c-0.067-1.14,0.532-2.102,1.337-2.15C153.474,188.086,154.181,188.972,154.247,190.113z"/>
									<path style="fill:#FFFFFF;" d="M152.991,189.589c0.023,0.403-0.188,0.742-0.472,0.759
										c-0.284,0.017-0.534-0.296-0.557-0.699s0.188-0.742,0.472-0.759C152.718,188.873,152.967,189.186,152.991,189.589z"/>
								</g>
								<path style="fill:#1B1B28;" d="M144.37,184.076c-0.108,0.292-0.353,0.685-0.624,0.954c-0.278,0.283-0.607,0.518-0.985,0.661
									c-0.379,0.136-0.792,0.22-1.225,0.208c-0.432,0-0.872-0.086-1.312-0.195l-0.023-0.006c-0.201-0.05-0.404,0.073-0.454,0.274
									c-0.046,0.187,0.057,0.376,0.233,0.441c0.474,0.176,0.966,0.331,1.492,0.391c0.523,0.072,1.075,0.034,1.613-0.099
									c0.54-0.138,1.047-0.415,1.481-0.77c0.44-0.371,0.781-0.761,1.079-1.336c0.176-0.339,0.043-0.757-0.296-0.932
									c-0.339-0.176-0.757-0.043-0.933,0.296c-0.012,0.024-0.023,0.049-0.033,0.073L144.37,184.076z"/>
								<path style="fill:#1B1B28;" d="M150.788,184.294c0.212,0.539,0.475,0.918,0.84,1.294c0.361,0.358,0.817,0.65,1.315,0.783
									c0.495,0.132,1.001,0.143,1.466,0.058c0.235-0.035,0.452-0.114,0.675-0.171l0.625-0.257
									c0.191-0.079,0.282-0.297,0.203-0.488c-0.072-0.176-0.264-0.267-0.443-0.218l-0.044,0.012l-0.564,0.153
									c-0.188,0.02-0.375,0.066-0.558,0.068c-0.367,0.021-0.713-0.042-1.016-0.164c-0.303-0.124-0.552-0.339-0.755-0.596
									c-0.195-0.247-0.363-0.608-0.422-0.861l-0.006-0.025c-0.087-0.372-0.46-0.603-0.832-0.516
									c-0.372,0.087-0.603,0.46-0.515,0.832C150.766,184.23,150.777,184.265,150.788,184.294z"/>
								<path style="fill:#BC7F64;" d="M149.799,196.397c-0.2,0.012-0.375-0.136-0.395-0.336c-0.021-0.206,0.129-0.39,0.335-0.411
									c0.173-0.018,0.343-0.132,0.457-0.305c0.113-0.174,0.148-0.377,0.095-0.542c-0.055-0.165-0.202-0.307-0.396-0.381
									c-0.192-0.073-0.399-0.064-0.548,0.024c-0.178,0.102-0.408,0.044-0.513-0.133c-0.104-0.179-0.045-0.408,0.133-0.513
									c0.349-0.205,0.784-0.233,1.194-0.078c0.41,0.155,0.718,0.464,0.843,0.849c0.126,0.384,0.061,0.816-0.178,1.184
									c-0.239,0.367-0.607,0.601-1.008,0.642C149.81,196.396,149.804,196.397,149.799,196.397z"/>
								<g>
									<g>
										<path style="fill:#C66B6B;" d="M150.598,200.644c-0.1,0.3-0.35,0.45-0.71,0.49c-0.17,0.02-0.37,0.02-0.6,0
											c-0.88-0.09-2.11-0.5-3.51-0.96c-1.66-0.54-3.12-0.99-3.79-1.54c-0.16-0.14-0.28-0.28-0.35-0.43
											c-0.07-0.15-0.08-0.31-0.03-0.48c0.15-0.46,0.76-0.93,1.6-1.23c0.29-0.09,0.61-0.17,0.94-0.22
											c0.86-0.15,1.86-0.13,2.84,0.19c1.36,0.44,2.41,1.34,3.02,2.23c0.1,0.15,0.2,0.3,0.28,0.45
											C150.598,199.724,150.718,200.274,150.598,200.644z"/>
									</g>
									<path style="fill:#FFFFFF;" d="M150.288,199.144c-1.11-0.01-2.25-0.2-3.31-0.56c-1.4-0.47-2.62-1.17-3.77-2.09
										c0.29-0.09,0.61-0.17,0.94-0.22c0.86-0.15,1.86-0.13,2.84,0.19c1.36,0.44,2.41,1.34,3.02,2.23
										C150.108,198.844,150.208,198.994,150.288,199.144z"/>
									<path style="fill:#E58F8F;" d="M149.288,201.134c-0.88-0.09-2.11-0.5-3.51-0.96c-1.66-0.54-3.12-0.99-3.79-1.54
										c1.27-0.12,2.54-0.02,3.77,0.4C147.068,199.484,148.278,200.174,149.288,201.134z"/>
								</g>
							</g>
						</g>
						<path style="fill:#1B1B28;" d="M124.729,195.45c0,0,2.659-4.293-0.036-11.103c0,0,6.107,3.625,2.375-1.287
							c0,0,7.312,3.018,2.985-1.323c0,0,9.34,2.709,8.363-2.326c0,0,10.043,4.161,9.08-0.53c0,0,10.281,4.3,8.824,0.327
							c-1.457-3.973-2.256-4.539-2.256-4.539s-21.584-10.377-39.183,9.485c0,0,5.963,9.623,7.198,10.805
							C123.315,196.141,124.729,195.45,124.729,195.45z"/>
						<path style="fill:#1B1B28;" d="M126.977,202.476c0,0,2.16,6.739,1.351,8.004c-0.81,1.264-3.997-7.431-3.997-7.431
							L126.977,202.476z"/>
						<g>
							<path style="fill:#E7AC8D;" d="M128.471,202.839c-1.521,2.035-5.53,1.609-8.954-0.95c-3.425-2.559-4.969-6.284-3.448-8.318
								c1.521-2.035,5.529-1.609,8.954,0.95C128.447,197.08,129.991,200.804,128.471,202.839z"/>
							<path style="fill:#BC7F64;" d="M123.556,201.07c-0.416,0.024-0.819-0.068-1.073-0.127c-0.202-0.046-0.328-0.247-0.283-0.449
								c0.046-0.201,0.252-0.328,0.449-0.282c0.515,0.118,1.084,0.2,1.38-0.08c0.304-0.29,0.204-0.863,0.167-1.032
								c-0.204-0.912-0.886-1.791-1.87-2.414c-0.928-0.587-2.03-0.918-3.078-1.207c-0.199-0.055-0.317-0.261-0.262-0.461
								c0.056-0.2,0.261-0.318,0.462-0.262c1.102,0.304,2.264,0.655,3.279,1.296c1.168,0.739,1.95,1.763,2.201,2.884
								c0.16,0.72,0.021,1.354-0.381,1.738C124.261,200.948,123.904,201.049,123.556,201.07z"/>
						</g>
					</g>
					<g>
						<g>
							<path style="fill:#E7AC8D;" d="M179.885,243.498l12.697,4.22l17.552-24.102l6.131,4.893c0,0-10.751,31.235-20.925,32.514
								c-10.175,1.278-20.925-5.809-20.925-5.809L179.885,243.498z"/>
							<path style="fill:#E7AC8D;" d="M224.423,223.595c0,0,6.586,0.825,6.505,2.279c-0.081,1.454-2.814-0.005-5.9,0.763
								c-3.086,0.768-10.467,4.596-14.152,0.828c-3.685-3.767,3.505-8.787,3.505-8.787s-2.596-6.379-1.606-7.31
								c0.989-0.931,4.12,6.005,4.12,6.005s2.485-10.116,4.015-9.902c1.53,0.214-0.448,10.179-0.448,10.179
								s4.562-10.902,6.194-10.605c1.632,0.296-3.523,12.729-3.523,12.729s7.677-7.703,8.824-6.991
								C233.102,213.494,224.423,223.595,224.423,223.595z"/>
						</g>
						<g>
							<g>
								<path style="fill:#FF5A45;" d="M131.524,225.046c0,0,8.444,6.454,10.624-1.431c0,0,18.52,5.29,21.11,8.037
									c1.36,1.443,0.561,19.122,5.028,35.122c4.039,14.467,13.446,27.472,13.446,27.472s-25.713,23.168-64.121,13.193
									c0,0-4.207-14.557-5.812-30.809c-1.691-17.125-0.756-36.055,0.438-38.71C114.565,232.745,131.524,225.046,131.524,225.046z"
									/>
								<path style="fill:#FF5A45;" d="M113.378,236.266c0,0-6.601,8.047-10.9,21.948l13.985,5.656l5.52-21.096L113.378,236.266z"/>
								<path style="fill:#FF5A45;" d="M162.138,230.819c0,0,12.507,8.04,18.041,12.042l-7.025,14.587l-16.022-8.025
									L162.138,230.819z"/>
							</g>
							<g>
								<path style="fill:#CC392E;" d="M164.768,251.153c-0.164,0-0.315-0.108-0.361-0.273c-1.531-5.465-3.834-10.674-6.845-15.482
									c-0.11-0.176-0.057-0.407,0.119-0.517c0.177-0.111,0.407-0.057,0.517,0.118c3.049,4.87,5.382,10.145,6.932,15.678
									c0.056,0.2-0.061,0.407-0.26,0.463C164.836,251.148,164.801,251.153,164.768,251.153z"/>
								<path style="fill:#CC392E;" d="M118.195,264.277c-0.043,0-0.087-0.008-0.129-0.023c-0.194-0.071-0.294-0.287-0.223-0.481
									l6.028-16.389c0.071-0.194,0.287-0.293,0.481-0.222c0.194,0.071,0.294,0.287,0.223,0.481l-6.028,16.389
									C118.492,264.183,118.348,264.277,118.195,264.277z"/>
							</g>
						</g>
					</g>
				</g>
			</g>
			<path style="fill:#284486;" d="M95.505,302.814c0,0,9.113-79.863-31.687-72.96c-31.375,5.309,3.684,162.729,3.684,162.729h65.171
				c0,0,30.52-71.592,20.464-87.958C143.081,288.259,95.505,302.814,95.505,302.814z"/>
			<g>
				<path style="fill:#E7AC8D;" d="M115.599,263.537l-3.123,13.021l25.028,16.204l-5.216,6.427c0,0-30.384-8.701-32.218-18.79
					c-1.834-10.089,3.926-21.571,3.926-21.571L115.599,263.537z"/>
				<path style="fill:#E9AE8F;" d="M131.368,295.192c0,0-2.691,7.991,13.553,5.473c0,0,0.971,1.897,2.012,1.888
					c1.041-0.009,7.737-5.574,5.264-9.033c0,0,1.821,1.308,2.842,0.438c1.02-0.87-4.185-6.432-6.168-6.677
					C146.887,287.035,132.776,288.361,131.368,295.192z"/>
			</g>
		</g>
		<g>
			<path style="fill:#FFFFFF;" d="M204.745,135.653c-19.931,0-36.089,9.276-36.089,20.718c0,5.909,4.316,11.235,11.227,15.009
				c-0.145,1.983-1.03,6.517-5.992,8.827c0,0,8.621,0.706,12.263-6.078c5.43,1.877,11.79,2.959,18.591,2.959
				c19.932,0,36.089-9.276,36.089-20.718S224.676,135.653,204.745,135.653z"/>
		</g>
	</g>
	<g>
		<g>
			<path style="fill:#284486;" d="M370.08,256.116c-1.02,0-2.039-0.361-2.853-1.084l-9.899-8.82
				c-0.601-0.53-1.375-0.823-2.178-0.823h-68.42c-2.36,0-4.28-1.924-4.28-4.29v-93.23c0-2.36,1.92-4.28,4.28-4.28h59.242v1H286.73
				c-1.808,0-3.28,1.472-3.28,3.28v93.23c0,1.814,1.472,3.29,3.28,3.29h68.42c1.047,0,2.056,0.382,2.841,1.075l9.901,8.821
				c1.246,1.107,3.127,1.108,4.375-0.001l9.9-8.819c0.786-0.694,1.795-1.076,2.842-1.076h68.42c1.809,0,3.28-1.476,3.28-3.29v-93.23
				c0-1.809-1.472-3.28-3.28-3.28h-69.553v-1h69.553c2.36,0,4.28,1.92,4.28,4.28v93.23c0,2.366-1.92,4.29-4.28,4.29h-68.42
				c-0.803,0-1.577,0.293-2.179,0.824l-9.898,8.818C372.119,255.755,371.1,256.116,370.08,256.116z"/>
			<g>
				<g>
					<circle style="fill:#284486;" cx="418.389" cy="235.436" r="3.745"/>
					<circle style="fill:#284486;" cx="431.23" cy="235.436" r="2.648"/>
					<path style="fill:#284486;" d="M445.114,235.436c0,1.463-1.186,2.648-2.648,2.648c-1.463,0-2.648-1.186-2.648-2.648
						s1.186-2.648,2.648-2.648C443.928,232.788,445.114,233.974,445.114,235.436z"/>
				</g>
				<g>
					<rect x="289.93" y="239.15" style="fill:#284486;" width="39.745" height="1"/>
					<rect x="289.93" y="234.898" style="fill:#284486;" width="39.745" height="1"/>
				</g>
			</g>
		</g>
		<g>
			<path style="fill:#3D4A54;" d="M401.21,244.889h-16.2c-0.93,0-1.82,0.34-2.51,0.95l-4.54,4.04l-5.36,4.78
				c-1.44,1.28-3.6,1.28-5.04,0l-5.36-4.78l-4.54-4.04c-0.69-0.61-1.58-0.95-2.51-0.95h-14.97c0.31-3.67,0.66-7.37,0.9-9.93
				c0.07-0.65,0.12-1.23,0.17-1.71c0.1-1.03,0.16-1.63,0.16-1.63l20.51-0.66l10.13-0.33l27.49-0.88c0.25,1.09,0.46,2.41,0.66,3.88
				c0.05,0.37,0.1,0.75,0.14,1.15C400.72,237.908,401,241.548,401.21,244.889z"/>
			<g>
				<g>
					<path style="fill:#1B1B28;" d="M383.675,106.481c-0.82-3.491-4.136-5.997-7.485-7.128s-6.868-1.234-10.295-1.962
						c-4.848-1.031-9.505-3.313-14.392-3.9c-5.126-0.617-10.499,0.861-13.769,4.655c-3.687,4.278-4.186,10.795-2.793,16.631
						c1.391,5.83,4.842,11.65,10.206,14.242c3.458,1.671,7.329,1.843,11.023,1.625c7.385-0.437,14.585-2.324,21.097-5.531
						l2.896-3.898c0.296-2.54,1.221-5.064,2.249-7.344C383.441,111.591,384.274,109.031,383.675,106.481z"/>
					<g>
						<path style="fill:#E7AC8D;" d="M363.247,154.6c-0.84-3.679-2.834-7.087-5.631-9.62c-2.868-2.598-6.491-4.249-9.364-6.841
							c-3.609-3.255-5.845-7.89-6.565-12.697c-0.72-4.806,0.017-9.768,1.703-14.326c14.462-7.806,27.677-8.554,38.926,1.822
							c-6.073,12.647-8.994,27.049-8.365,41.065c0,0,13.383,9.811,14.381,19.927c0.998,10.117-37.174,13.421-38.209,2.924
							C349.087,166.358,363.247,154.6,363.247,154.6z"/>
						<g>
							<g>
								<g>
									<path style="fill:#1B1B28;" d="M354.385,122.737c0.112,1.137,0.853,1.994,1.656,1.915c0.802-0.079,1.362-1.065,1.25-2.201
										c-0.112-1.137-0.853-1.994-1.656-1.915C354.832,120.614,354.273,121.6,354.385,122.737z"/>
									<path style="fill:#FFFFFF;" d="M355.544,122.023c0.04,0.401,0.301,0.704,0.585,0.676c0.283-0.028,0.481-0.376,0.441-0.777
										c-0.04-0.401-0.301-0.704-0.585-0.676C355.702,121.274,355.505,121.622,355.544,122.023z"/>
								</g>
								<g>
									<path style="fill:#1B1B28;" d="M345.745,123.589c0.112,1.137,0.853,1.994,1.656,1.915c0.802-0.079,1.362-1.065,1.25-2.201
										c-0.112-1.137-0.853-1.994-1.656-1.915C346.192,121.467,345.633,122.452,345.745,123.589z"/>
									<path style="fill:#FFFFFF;" d="M346.904,122.876c0.04,0.401,0.301,0.704,0.585,0.676c0.283-0.028,0.481-0.376,0.441-0.777
										c-0.04-0.401-0.301-0.704-0.585-0.676C347.062,122.126,346.864,122.474,346.904,122.876z"/>
								</g>
								<path style="fill:#1B1B28;" d="M354.497,118.628c0.174-0.258,0.505-0.582,0.832-0.78c0.337-0.209,0.712-0.36,1.114-0.409
									c0.4-0.043,0.822-0.026,1.239,0.088c0.42,0.102,0.827,0.29,1.229,0.501l0.021,0.011c0.183,0.096,0.41,0.025,0.506-0.159
									c0.089-0.171,0.034-0.379-0.122-0.484c-0.419-0.283-0.86-0.551-1.357-0.733c-0.491-0.194-1.036-0.287-1.591-0.286
									c-0.557,0.007-1.116,0.155-1.621,0.397c-0.515,0.257-0.939,0.554-1.364,1.043c-0.251,0.288-0.221,0.725,0.067,0.976
									c0.288,0.251,0.725,0.221,0.976-0.067c0.018-0.021,0.034-0.042,0.049-0.064L354.497,118.628z"/>
								<path style="fill:#1B1B28;" d="M348.592,118.333c-0.429-0.389-0.833-0.612-1.326-0.788c-0.482-0.161-1.02-0.221-1.526-0.12
									c-0.503,0.101-0.961,0.315-1.34,0.598c-0.195,0.135-0.354,0.303-0.529,0.453l-0.446,0.507
									c-0.136,0.155-0.121,0.391,0.034,0.527c0.143,0.126,0.355,0.122,0.494-0.001l0.034-0.03l0.437-0.387
									c0.16-0.101,0.307-0.225,0.47-0.308c0.32-0.181,0.658-0.278,0.983-0.303c0.327-0.023,0.645,0.059,0.941,0.2
									c0.285,0.134,0.594,0.384,0.76,0.585l0.016,0.02c0.243,0.295,0.68,0.337,0.974,0.093c0.295-0.243,0.337-0.68,0.093-0.974
									C348.64,118.38,348.615,118.354,348.592,118.333z"/>
								<path style="fill:#BC7F64;" d="M351.119,129.102c0.199-0.02,0.349-0.192,0.338-0.394c-0.012-0.207-0.188-0.365-0.395-0.354
									c-0.174,0.009-0.36-0.077-0.499-0.23c-0.139-0.154-0.205-0.349-0.178-0.52c0.028-0.172,0.151-0.335,0.332-0.438
									c0.178-0.102,0.384-0.126,0.545-0.062c0.192,0.073,0.41-0.02,0.486-0.212c0.075-0.193-0.019-0.41-0.212-0.487
									c-0.377-0.148-0.81-0.107-1.191,0.109c-0.381,0.217-0.636,0.571-0.7,0.97c-0.065,0.399,0.067,0.816,0.361,1.142
									c0.293,0.325,0.693,0.499,1.096,0.477C351.108,129.104,351.114,129.103,351.119,129.102z"/>
								<path style="fill:#BC7F64;" d="M351.575,133.288c-0.193,0-0.357-0.148-0.374-0.344c-0.017-0.207,0.137-0.388,0.344-0.404
									c3.073-0.251,5.918-2.212,7.247-4.996c0.09-0.188,0.317-0.265,0.5-0.177c0.188,0.089,0.267,0.313,0.178,0.5
									c-1.442,3.02-4.529,5.147-7.864,5.42C351.596,133.287,351.585,133.288,351.575,133.288z"/>
							</g>
							<path style="fill:#3D4A54;" d="M356.51,117.568c-0.26,0-0.52,0.02-0.77,0.07c-0.88,0.14-1.69,0.54-2.33,1.11
								c-0.89,0.79-1.47,1.91-1.57,3.17c-0.62-0.2-1.14-0.03-1.49,0.2c-0.33-1.12-1.03-2.06-1.95-2.64
								c-0.34-0.22-0.71-0.38-1.1-0.48c-0.31-0.09-0.64-0.13-0.98-0.13c-2.35,0-4.26,2.11-4.26,4.71c0,2.59,1.91,4.71,4.26,4.71
								c2.35,0,4.26-2.12,4.26-4.71c0-0.31-0.03-0.62-0.08-0.91c0.17-0.16,0.63-0.49,1.33-0.21c0.1,2.51,2.15,4.52,4.68,4.52
								c2.6,0,4.71-2.11,4.71-4.7C361.22,119.678,359.11,117.568,356.51,117.568z M346.32,127.769c-2.07,0-3.75-1.88-3.75-4.19
								c0-2.31,1.68-4.19,3.75-4.19s3.75,1.88,3.75,4.19C350.07,125.888,348.39,127.769,346.32,127.769z M356.51,126.468
								c-2.31,0-4.19-1.88-4.19-4.19c0-1.35,0.65-2.56,1.65-3.32c0.17-0.14,0.35-0.26,0.55-0.36c0,0,0-0.01,0.01,0
								c0.59-0.33,1.27-0.51,1.98-0.51c2.31,0,4.19,1.88,4.19,4.19C360.7,124.589,358.82,126.468,356.51,126.468z"/>
						</g>
					</g>
					<path style="fill:#1B1B28;" d="M374.61,131.547c0,0-1.082,6.994-0.086,8.117c0.997,1.123,2.789-7.963,2.789-7.963
						L374.61,131.547z"/>
					<path style="fill:#1B1B28;" d="M375.707,123.446c0,0-4.806-0.626-4.245-7.963c0.561-7.338-8.534-6.459-11.982-3.936
						c-3.321,2.429-16.732,5.045-18.069,2.217l1.415-3.669c0,0,8.951-7.49,22.055-6.573c13.104,0.917,17.767,8.516,17.767,8.516
						l-4.054,11.409H375.707z"/>
					<g>
						<path style="fill:#E7AC8D;" d="M373.191,132.138c1.819,1.773,5.713,0.727,8.697-2.335c2.984-3.062,3.927-6.982,2.108-8.754
							c-1.819-1.773-5.713-0.727-8.697,2.335C372.315,126.446,371.372,130.366,373.191,132.138z"/>
						<path style="fill:#BC7F64;" d="M377.77,129.625c0.415-0.041,0.798-0.195,1.04-0.292c0.193-0.077,0.286-0.296,0.209-0.488
							c-0.077-0.192-0.3-0.285-0.488-0.208c-0.49,0.197-1.039,0.367-1.375,0.136c-0.345-0.239-0.336-0.821-0.326-0.993
							c0.059-0.932,0.596-1.908,1.471-2.676c0.826-0.724,1.862-1.223,2.852-1.673c0.188-0.085,0.272-0.307,0.187-0.496
							c-0.086-0.189-0.308-0.273-0.497-0.186c-1.041,0.472-2.134,1-3.037,1.792c-1.039,0.912-1.651,2.045-1.724,3.192
							c-0.046,0.737,0.19,1.34,0.647,1.657C377.054,129.614,377.423,129.658,377.77,129.625z"/>
					</g>
				</g>
				<g>
					<g>
						<path style="fill:#284486;" d="M373.95,154.003l-6.751,8.464c0,0-2.767-5.471-3.952-7.867c0,0-17.191,8.685-19.217,11.87
							c-2.026,3.186-6.348,64.954-6.348,64.954s29.618,17.908,65.458,0.874c0,0-4.561-64.642-7.823-69.287
							C392.056,158.368,373.95,154.003,373.95,154.003z"/>
						<g>
							<g>
								<path style="fill:#53606B;" d="M363.247,154.6c0,0-16.79,8.003-19.771,11.213c-2.981,3.21-7.338,66.268-7.338,66.268
									s7.338,6.191,26.14,8.369C362.278,240.45,359.973,193.947,363.247,154.6z"/>
								<polygon style="fill:#3D4A54;" points="363.247,154.6 353.794,168.336 361.758,182.949 								"/>
							</g>
							<path style="fill:#53606B;" d="M343.476,165.813c0,0-20.46,30.666-16.287,43.518c4.244,13.07,20.295-1.949,20.295-1.949
								L343.476,165.813z"/>
						</g>
						<g>
							<path style="fill:#53606B;" d="M373.95,154.003c0,0,17.564,3.785,21.691,8.256c4.127,4.471,8.943,70.739,8.943,70.739
								s-16.917,7.911-31.904,8.026C372.68,241.024,369.227,199.977,373.95,154.003z"/>
							<path style="fill:#3D4A54;" d="M373.95,154.003l9.604,13.736l-11.635,14.926C372.28,172.854,372.834,163.285,373.95,154.003z
								"/>
						</g>
					</g>
					<g>
						<g>
							<path style="fill:#3D4A54;" d="M345.973,177.418c-0.552,0-1-0.448-1-1v-12.346c0-0.552,0.448-1,1-1c0.552,0,1,0.448,1,1
								v12.346C346.973,176.971,346.525,177.418,345.973,177.418z"/>
							<polygon style="fill:#FF5A45;" points="327.31,176.438 353.211,172.769 356.891,214.8 334.228,215.724 							"/>
						</g>
						<g>
							<g>
								<path style="fill:#E9AE8F;" d="M366.921,203.124c0,0-2.333,8.103-14.259-3.211c0,0-1.878,1.008-2.729,0.408
									c-0.851-0.6-3.191-8.986,0.811-10.423c0,0-2.242,0.039-2.586-1.257c-0.344-1.296,7.101-2.908,8.872-1.981
									C358.8,187.587,369.65,196.706,366.921,203.124z"/>
								<path style="fill:#53606B;" d="M391.743,178.883l5.188,21.584l-31.165-5.184l-1.233,11.498c0,0,36.23,15.607,44.026,6.894
									c7.796-8.713-12.755-51.208-12.755-51.208L391.743,178.883z"/>
							</g>
							<path style="fill:#3D4A54;" d="M396.931,200.843c-0.021,0-0.041-0.002-0.062-0.005l-23.527-3.914
								c-0.204-0.034-0.343-0.228-0.309-0.432c0.033-0.204,0.219-0.344,0.432-0.309l22.975,3.822l-4.592-19.986
								c-0.047-0.202,0.079-0.403,0.281-0.449c0.204-0.05,0.403,0.08,0.449,0.281l4.718,20.532c0.028,0.122-0.007,0.25-0.092,0.341
								C397.133,200.801,397.033,200.843,396.931,200.843z"/>
							<path style="fill:#3D4A54;" d="M399.533,216.119c-9.359,0-26.009-5.479-26.736-5.72c-0.196-0.065-0.303-0.277-0.238-0.474
								c0.065-0.196,0.277-0.305,0.475-0.238c0.183,0.061,18.384,6.061,27.402,5.663c0.006,0,0.012,0,0.017,0
								c0.2,0,0.366,0.157,0.375,0.358c0.009,0.207-0.151,0.382-0.358,0.391C400.166,216.112,399.853,216.119,399.533,216.119z"/>
						</g>
					</g>
				</g>
			</g>
		</g>
	</g>
	<g>
		<g>
			<path style="fill:#284486;" d="M418.26,391.862c-5.769-8.808-9.534-17.711-11.285-26.645c0.001-0.049,0.008-0.097,0.005-0.147
				c-0.01-0.15-0.05-0.291-0.101-0.426c-1.624-8.718-1.343-17.464,0.882-26.181c3.406-13.342,10.319-21.619,10.389-21.701
				c0.534-0.632,0.456-1.578-0.175-2.113c-0.632-0.535-1.576-0.458-2.113,0.173c-0.299,0.352-7.373,8.793-10.972,22.762
				c-1.774,6.885-2.828,15.85-1.139,26.197c-12.189,0.797-26.087,1.231-40.431,1.259v-49.247c0-0.828-0.672-1.5-1.5-1.5
				s-1.5,0.672-1.5,1.5v49.247c-14.344-0.028-28.243-0.462-40.431-1.259c1.689-10.348,0.635-19.313-1.139-26.197
				c-3.599-13.969-10.673-22.409-10.972-22.762c-0.536-0.631-1.48-0.708-2.113-0.173c-0.631,0.535-0.709,1.482-0.175,2.113
				c0.069,0.082,6.982,8.359,10.389,21.701c2.225,8.717,2.506,17.463,0.882,26.181c-0.051,0.134-0.09,0.275-0.101,0.426
				c-0.003,0.05,0.003,0.098,0.005,0.147c-1.751,8.934-5.516,17.837-11.285,26.645c-0.454,0.693-0.26,1.623,0.433,2.077
				c0.254,0.166,0.539,0.245,0.821,0.245c0.488,0,0.968-0.238,1.256-0.678c6.22-9.498,9.714-18.523,11.442-26.756
				c12.339,0.817,26.44,1.26,40.989,1.289v35.837c0,0.828,0.672,1.5,1.5,1.5s1.5-0.672,1.5-1.5V368.04
				c14.548-0.029,28.649-0.472,40.988-1.289c1.728,8.233,5.222,17.258,11.442,26.756c0.288,0.439,0.768,0.678,1.256,0.678
				c0.282,0,0.567-0.079,0.821-0.245C418.52,393.485,418.714,392.555,418.26,391.862z"/>
			<ellipse style="fill:#FF5A45;" cx="361.82" cy="315.793" rx="81.172" ry="8.749"/>
		</g>
		<g>
			<g>
				<polygon style="fill:#3D4A54;" points="340.086,305.524 316.725,314.111 316.725,316.71 376.981,316.71 400.342,308.123 
					400.342,305.524 				"/>
				<g>
					<g>
						<rect x="340.086" y="264.277" style="fill:#53606B;" width="60.256" height="41.248"/>
						<g>
							<circle style="fill:#FF5A45;" cx="372.27" cy="266.068" r="0.502"/>
							<circle style="fill:#3D4A54;" cx="370.308" cy="266.068" r="0.881"/>
						</g>
					</g>
					<g>
						<rect x="342.226" y="267.688" style="fill:#284486;" width="55.976" height="36.086"/>
						<polygon style="fill:#5A79B7;" points="398.202,267.688 342.226,303.774 342.226,267.688 						"/>
					</g>
				</g>
			</g>
			<path style="fill:#284486;" d="M312.459,299.503h-1.434v-2.194c0-2.191-14.904-2.191-14.904,0v15.707
				c0,2.752,14.904,2.752,14.904,0v-2.309h1.434c1.445,0,2.621-1.176,2.621-2.621v-5.962
				C315.08,300.679,313.904,299.503,312.459,299.503z M314.08,308.086c0,0.893-0.728,1.621-1.621,1.621h-1.434v-9.204h1.434
				c0.893,0,1.621,0.728,1.621,1.621V308.086z"/>
			<g>
				<g>
					<path style="fill:#FF5A45;" d="M418.18,299.018c0,0-3.41-22.857,21.026-34.141C439.206,264.877,438.619,289.956,418.18,299.018
						z"/>
					<path style="fill:#CC392E;" d="M418.161,299.026c0,0-10.947-16.966,4.441-34.75
						C422.602,264.277,431.168,284.452,418.161,299.026z"/>
					<path style="fill:#FF5A45;" d="M418.694,298.602c0,0-13.916-9.023-8.378-27.529
						C410.317,271.073,423.529,283.302,418.694,298.602z"/>
				</g>
				<path style="fill:#284486;" d="M430.569,305.599c0,3.79-1.063,7.23-2.819,9.86c0,1.158-16.84,1.158-16.84,0
					c-1.749-2.63-2.812-6.07-2.812-9.86c0-3.36,0.837-6.45,2.246-8.94c0-1.325,17.979-1.325,17.979,0
					C429.732,299.149,430.569,302.239,430.569,305.599z"/>
			</g>
		</g>
	</g>
</g>
</svg>
