<?xml version="1.0" encoding="utf-8"?>
<!-- Generator: Adobe Illustrator 27.5.0, SVG Export Plug-In . SVG Version: 6.00 Build 0)  -->
<svg version="1.1" xmlns="http://www.w3.org/2000/svg" xmlns:xlink="http://www.w3.org/1999/xlink" x="0px" y="0px"
	 viewBox="0 0 750 500" style="enable-background:new 0 0 750 500;" xml:space="preserve">
<g id="BACKGROUND">
	<rect style="fill:#F7F7F7;" width="750" height="500"/>
	<g style="opacity:0.2;">
		<path style="fill:#90599C;" d="M131.418,63.91c-28.861,10.229-50.969,37.434-55.078,67.777
			c-4.053,29.929,8.161,60.43,3.279,90.234c-5.142,31.394-28.357,57.029-36.583,87.759c-12.262,45.808,11.986,95.463,48.834,125.311
			c17.648,14.296,38.787,25.294,61.441,26.91c42.825,3.055,79.943-26.581,118.207-46.053
			c48.289-24.573,106.678-33.658,157.128-13.895"/>
	</g>
	<g style="opacity:0.2;">
		<path style="fill:#90599C;" d="M401.138,330.553c2.066,7.819,6.418,14.844,11.286,21.302
			c17.978,23.846,43.565,41.31,71.272,52.451c27.707,11.142,57.534,16.233,87.327,18.271c29.159,1.995,57.19,0.404,81.833-16.625
			c19.899-13.75,32.331-34.617,35.572-58.548c4.052-29.928-8.161-60.429-3.279-90.234c5.142-31.394,28.357-57.029,36.583-87.759
			c12.262-45.808-11.986-95.463-48.834-125.311c-17.648-14.296-38.787-25.294-61.441-26.91
			c-42.825-3.055-79.943,26.581-118.207,46.053C444.96,87.817,386.571,96.902,336.122,77.139"/>
	</g>
</g>
<g id="OBJECTS">
	<g>
		<g>
			<g>
				<path style="fill:#2CB6CA;" d="M693.715,84.211c-0.61-0.788-1.594-1.197-2.569-1.404c-2.845-0.606-5.799,0.236-8.483,1.358
					c-6.357,2.658-11.984,6.997-16.252,12.403c2.454-6.184,4.672-12.463,6.669-18.819c7.367-7.131,11.32-18.847,9.751-28.834
					c-0.341-2.167-1.344-4.712-3.517-5.016c-0.987-0.138-1.977,0.257-2.819,0.79c-2.459,1.554-3.985,4.219-5.122,6.897
					c-3.476,8.188-4.134,17.532-1.9,26.138c-1.738,5.45-3.631,10.846-5.709,16.167c0.001-8.569-3.524-17.163-9.807-23.022
					c-1.605-1.496-3.964-2.881-5.861-1.78c-0.862,0.5-1.397,1.421-1.732,2.36c-0.978,2.74-0.536,5.779,0.22,8.588
					c2.257,8.386,7.309,15.979,14.121,21.358c-2.761,6.495-5.768,12.88-9.019,19.137c1.417-8.536-0.716-17.685-6.062-24.517
					c-1.352-1.728-3.467-3.463-5.513-2.671c-0.929,0.36-1.602,1.186-2.079,2.061c-1.393,2.554-1.429,5.625-1.12,8.518
					c0.942,8.801,4.879,17.242,10.966,23.663c-4.116,7.389-8.579,14.58-13.351,21.561c3.37-8.513,2.927-18.546-1.48-26.601
					c-1.053-1.925-2.858-3.98-5.005-3.531c-0.975,0.204-1.773,0.91-2.386,1.696c-1.789,2.294-2.325,5.318-2.489,8.223
					c-0.516,9.109,2.167,18.359,7.437,25.803c-4.157,5.772-8.535,11.383-13.124,16.82c4.234-8.426,4.548-18.817,0.528-27.377
					c-0.932-1.986-2.607-4.149-4.778-3.833c-0.986,0.144-1.826,0.799-2.486,1.546c-1.927,2.179-2.648,5.165-2.991,8.054
					c-1.075,9.041,1.021,18.419,5.801,26.164c-5.422,6.15-11.111,12.064-17.063,17.71c4.73-8.592,5.226-19.481,1.046-28.383
					c-0.933-1.986-2.607-4.149-4.778-3.833c-0.986,0.143-1.826,0.799-2.486,1.546c-1.927,2.179-2.648,5.165-2.991,8.053
					c-1.063,8.947,0.974,18.226,5.649,25.924c-5.12,4.688-10.419,9.184-15.889,13.472c4.792-7.509,6.344-17.106,3.831-25.677
					c-0.618-2.105-1.941-4.499-4.135-4.52c-0.996-0.009-1.927,0.51-2.693,1.147c-2.238,1.859-3.407,4.698-4.189,7.501
					c-2.37,8.496-1.843,17.76,1.408,25.955c-8.929,6.62-18.267,12.715-27.998,18.189c-1.932,1.087-0.2,4.058,1.735,2.969
					c9.784-5.504,19.179-11.632,28.167-18.287c8.795,6.535,21.157,7.946,31.176,3.491c2.005-0.891,4.202-2.521,3.931-4.698
					c-0.123-0.989-0.761-1.842-1.494-2.517c-2.139-1.972-5.109-2.754-7.99-3.156c-6.429-0.899-13.063-0.185-19.185,1.969
					c5.468-4.305,10.764-8.816,15.886-13.517c9.613,4.824,21.766,4.243,30.82-1.588c1.845-1.188,3.766-3.135,3.165-5.245
					c-0.273-0.958-1.034-1.704-1.862-2.259c-2.416-1.621-5.47-1.939-8.379-1.896c-5.47,0.081-10.908,1.314-15.906,3.534
					c4.448-4.412,8.732-8.985,12.873-13.683c9.575,4.695,21.603,4.074,30.582-1.709c1.845-1.188,3.766-3.135,3.165-5.245
					c-0.273-0.958-1.035-1.704-1.862-2.259c-2.416-1.621-5.471-1.939-8.379-1.896c-6.168,0.091-12.295,1.651-17.797,4.436
					c3.997-4.833,7.824-9.804,11.49-14.893c9.836,4.069,21.776,2.701,30.367-3.613c1.768-1.299,3.566-3.361,2.836-5.43
					c-0.332-0.94-1.138-1.637-1.998-2.14c-2.511-1.469-5.58-1.598-8.48-1.376c-6.366,0.488-12.589,2.544-18.044,5.858
					c4.512-6.662,8.747-13.51,12.672-20.536c10.562,2.772,22.517-0.49,30.153-8.307c1.533-1.569,2.972-3.896,1.915-5.818
					c-0.48-0.873-1.388-1.43-2.319-1.787c-2.716-1.041-5.765-0.67-8.591,0.021c-6.546,1.6-12.655,4.895-17.651,9.413
					c3.414-6.51,6.572-13.154,9.46-19.919c11.021,1.311,22.582-3.802,29.009-12.854C693.999,88.467,695.058,85.945,693.715,84.211z"
					/>
			</g>
			<g style="opacity:0.2;">
				<path style="fill:#90599C;" d="M704.124,214.674c-0.037-0.723-0.454-1.375-0.949-1.903c-1.445-1.542-3.556-2.265-5.621-2.71
					c-4.893-1.053-10.049-0.8-14.836,0.653c4.028-2.669,7.956-5.493,11.784-8.454c7.351-1.196,14.569-6.541,17.777-13.147
					c0.696-1.434,1.154-3.367-0.016-4.449c-0.531-0.492-1.285-0.667-2.008-0.699c-2.111-0.094-4.127,0.862-5.916,1.987
					c-5.47,3.44-9.739,8.738-11.977,14.796c-3.297,2.529-6.665,4.96-10.111,7.271c3.555-5.109,5.019-11.696,3.704-17.796
					c-0.336-1.558-1.168-3.362-2.756-3.493c-0.721-0.059-1.423,0.268-2.012,0.688c-1.72,1.228-2.717,3.223-3.432,5.212
					c-2.133,5.936-2.271,12.56-0.441,18.593c-4.341,2.727-8.783,5.287-13.317,7.669c4.386-4.502,6.911-10.841,6.557-17.133
					c-0.089-1.591-0.63-3.503-2.179-3.88c-0.703-0.171-1.447,0.043-2.095,0.367c-1.89,0.945-3.186,2.761-4.201,4.614
					c-3.09,5.638-4.244,12.305-3.279,18.658c-5.52,2.698-11.165,5.134-16.906,7.316c5.542-3.678,9.44-9.843,10.154-16.475
					c0.171-1.585-0.053-3.559-1.519-4.182c-0.666-0.283-1.435-0.193-2.126,0.021c-2.018,0.626-3.592,2.206-4.896,3.87
					c-4.087,5.217-6.325,11.846-6.271,18.471c-4.874,1.717-9.812,3.246-14.803,4.584c6.02-3.267,10.519-9.333,11.673-16.104
					c0.268-1.571,0.167-3.556-1.259-4.268c-0.647-0.324-1.42-0.281-2.124-0.11c-2.053,0.5-3.722,1.981-5.125,3.561
					c-4.392,4.945-7.033,11.406-7.396,18.007c-5.784,1.417-11.63,2.583-17.521,3.481c6.385-3.161,11.198-9.447,12.399-16.49
					c0.268-1.571,0.167-3.555-1.259-4.268c-0.648-0.324-1.42-0.281-2.124-0.11c-2.053,0.5-3.721,1.981-5.125,3.561
					c-4.346,4.893-6.981,11.271-7.387,17.801c-4.998,0.671-10.022,1.153-15.063,1.441c5.972-2.489,10.88-7.567,12.937-13.721
					c0.505-1.512,0.709-3.488-0.59-4.41c-0.59-0.419-1.361-0.495-2.082-0.434c-2.106,0.18-3.981,1.388-5.609,2.734
					c-4.938,4.083-8.467,9.825-9.929,16.06c-8.07,0.243-16.167,0.003-24.24-0.771c-1.603-0.154-1.802,2.337-0.197,2.491
					c8.117,0.778,16.261,1.021,24.381,0.782c2.532,7.546,9.318,13.516,17.14,15.016c1.565,0.3,3.551,0.24,4.293-1.171
					c0.337-0.641,0.31-1.414,0.154-2.121c-0.458-2.063-1.904-3.762-3.455-5.197c-3.461-3.203-7.712-5.53-12.256-6.785
					c5.046-0.298,10.076-0.791,15.08-1.469c3.73,6.864,11.218,11.56,19.035,11.84c1.593,0.057,3.546-0.307,4.063-1.814
					c0.235-0.685,0.09-1.445-0.173-2.119c-0.768-1.969-2.457-3.426-4.21-4.607c-3.295-2.221-7.049-3.742-10.95-4.492
					c4.482-0.786,8.934-1.734,13.352-2.818c3.761,6.772,11.19,11.392,18.943,11.669c1.593,0.057,3.546-0.307,4.063-1.814
					c0.235-0.685,0.09-1.445-0.173-2.119c-0.768-1.969-2.457-3.426-4.21-4.607c-3.716-2.505-8.016-4.117-12.452-4.739
					c4.389-1.223,8.733-2.6,13.03-4.113c4.177,6.507,11.864,10.645,19.605,10.444c1.593-0.041,3.521-0.524,3.943-2.061
					c0.192-0.698,0.001-1.448-0.303-2.105c-0.888-1.918-2.664-3.268-4.485-4.339c-3.998-2.35-8.562-3.707-13.189-3.993
					c5.454-2.1,10.821-4.426,16.076-6.988c5.148,6.035,13.629,9.05,21.425,7.557c1.565-0.3,3.389-1.09,3.556-2.674
					c0.076-0.72-0.235-1.429-0.641-2.027c-1.188-1.748-3.159-2.791-5.131-3.552c-4.567-1.762-9.576-2.331-14.43-1.711
					c4.736-2.465,9.376-5.117,13.905-7.952c6.027,5.355,15.042,7.102,22.629,4.371C702.527,217.33,704.205,216.266,704.124,214.674z
					"/>
			</g>
		</g>
		<g>
			<g>
				<path style="fill:#90599C;" d="M56.285,168.913c0.61-0.788,1.594-1.196,2.569-1.404c2.845-0.606,5.799,0.236,8.483,1.358
					c6.357,2.658,11.984,6.997,16.252,12.403c-2.454-6.184-4.672-12.463-6.669-18.819c-7.367-7.131-11.32-18.847-9.751-28.834
					c0.341-2.167,1.344-4.712,3.517-5.015c0.987-0.138,1.977,0.257,2.819,0.789c2.459,1.554,3.985,4.219,5.122,6.897
					c3.476,8.188,4.134,17.532,1.9,26.138c1.738,5.45,3.631,10.846,5.709,16.167c-0.001-8.569,3.524-17.163,9.807-23.022
					c1.605-1.496,3.964-2.881,5.861-1.78c0.862,0.5,1.397,1.421,1.732,2.36c0.978,2.74,0.536,5.779-0.22,8.588
					c-2.257,8.385-7.31,15.979-14.121,21.358c2.761,6.495,5.768,12.88,9.019,19.137c-1.417-8.536,0.715-17.685,6.062-24.517
					c1.352-1.728,3.467-3.463,5.513-2.671c0.929,0.36,1.602,1.186,2.079,2.061c1.393,2.554,1.429,5.625,1.119,8.518
					c-0.942,8.801-4.879,17.242-10.966,23.663c4.116,7.389,8.579,14.58,13.351,21.561c-3.37-8.513-2.927-18.546,1.48-26.601
					c1.053-1.925,2.858-3.98,5.005-3.531c0.975,0.204,1.773,0.91,2.386,1.696c1.789,2.294,2.325,5.318,2.489,8.223
					c0.516,9.109-2.167,18.359-7.437,25.803c4.157,5.772,8.535,11.383,13.124,16.82c-4.234-8.426-4.548-18.817-0.528-27.378
					c0.932-1.986,2.607-4.149,4.778-3.833c0.986,0.143,1.826,0.799,2.486,1.546c1.927,2.179,2.648,5.165,2.991,8.053
					c1.075,9.041-1.021,18.419-5.801,26.164c5.422,6.15,11.111,12.064,17.063,17.71c-4.73-8.592-5.226-19.481-1.046-28.383
					c0.933-1.986,2.607-4.149,4.778-3.833c0.986,0.143,1.826,0.799,2.486,1.546c1.927,2.179,2.648,5.165,2.991,8.053
					c1.063,8.947-0.974,18.226-5.649,25.924c5.12,4.688,10.419,9.184,15.889,13.472c-4.792-7.509-6.344-17.106-3.83-25.677
					c0.617-2.105,1.941-4.499,4.135-4.52c0.996-0.009,1.927,0.51,2.693,1.147c2.238,1.859,3.407,4.698,4.189,7.5
					c2.37,8.496,1.843,17.76-1.408,25.955c8.929,6.62,18.267,12.715,27.998,18.189c1.932,1.087,0.199,4.058-1.736,2.969
					c-9.785-5.504-19.179-11.633-28.167-18.287c-8.795,6.535-21.157,7.946-31.176,3.491c-2.005-0.891-4.202-2.521-3.931-4.698
					c0.123-0.989,0.761-1.842,1.494-2.517c2.139-1.972,5.109-2.754,7.99-3.156c6.429-0.899,13.063-0.185,19.185,1.969
					c-5.468-4.305-10.764-8.816-15.886-13.517c-9.613,4.824-21.766,4.243-30.82-1.588c-1.844-1.188-3.766-3.135-3.165-5.245
					c0.273-0.958,1.035-1.704,1.862-2.259c2.416-1.621,5.47-1.939,8.379-1.896c5.47,0.081,10.908,1.314,15.906,3.534
					c-4.447-4.412-8.732-8.984-12.873-13.684c-9.575,4.695-21.603,4.074-30.582-1.709c-1.845-1.188-3.766-3.135-3.165-5.245
					c0.273-0.958,1.035-1.704,1.862-2.259c2.416-1.621,5.47-1.939,8.379-1.896c6.168,0.091,12.295,1.651,17.797,4.436
					c-3.997-4.833-7.824-9.804-11.49-14.893c-9.836,4.069-21.776,2.701-30.367-3.613c-1.768-1.299-3.566-3.361-2.836-5.43
					c0.332-0.94,1.138-1.637,1.998-2.14c2.511-1.469,5.58-1.598,8.48-1.376c6.366,0.488,12.589,2.544,18.044,5.858
					c-4.512-6.662-8.747-13.51-12.672-20.537c-10.562,2.772-22.517-0.49-30.153-8.307c-1.533-1.569-2.972-3.896-1.916-5.818
					c0.48-0.873,1.389-1.43,2.319-1.787c2.716-1.041,5.765-0.67,8.591,0.021c6.546,1.6,12.654,4.895,17.651,9.413
					c-3.414-6.509-6.572-13.154-9.46-19.919c-11.021,1.311-22.582-3.802-29.009-12.854
					C56.001,173.169,54.942,170.647,56.285,168.913z"/>
			</g>
			<g style="opacity:0.2;">
				<path style="fill:#90599C;" d="M45.876,299.376c0.037-0.723,0.454-1.375,0.949-1.903c1.445-1.542,3.556-2.266,5.621-2.71
					c4.893-1.052,10.049-0.8,14.836,0.653c-4.028-2.669-7.956-5.493-11.784-8.454c-7.351-1.195-14.569-6.541-17.777-13.147
					c-0.696-1.434-1.154-3.367,0.016-4.45c0.531-0.492,1.285-0.667,2.008-0.699c2.111-0.094,4.127,0.862,5.915,1.987
					c5.47,3.44,9.739,8.738,11.977,14.797c3.298,2.529,6.665,4.96,10.111,7.271c-3.555-5.109-5.019-11.695-3.704-17.796
					c0.336-1.558,1.168-3.362,2.756-3.493c0.721-0.059,1.423,0.268,2.012,0.688c1.72,1.228,2.717,3.223,3.432,5.212
					c2.133,5.936,2.271,12.56,0.441,18.593c4.341,2.727,8.783,5.287,13.317,7.669c-4.386-4.502-6.911-10.841-6.557-17.133
					c0.089-1.591,0.63-3.503,2.179-3.88c0.703-0.171,1.447,0.043,2.095,0.367c1.89,0.945,3.186,2.761,4.201,4.614
					c3.09,5.638,4.244,12.305,3.279,18.659c5.52,2.698,11.164,5.134,16.905,7.316c-5.541-3.678-9.44-9.843-10.154-16.475
					c-0.171-1.585,0.053-3.559,1.519-4.182c0.666-0.283,1.435-0.193,2.126,0.021c2.018,0.625,3.592,2.206,4.896,3.87
					c4.087,5.217,6.325,11.846,6.271,18.47c4.874,1.717,9.812,3.246,14.803,4.584c-6.02-3.267-10.519-9.333-11.673-16.105
					c-0.268-1.571-0.167-3.555,1.258-4.268c0.647-0.324,1.42-0.281,2.124-0.11c2.053,0.5,3.722,1.981,5.125,3.561
					c4.392,4.945,7.033,11.406,7.396,18.007c5.784,1.417,11.63,2.583,17.521,3.481c-6.385-3.161-11.198-9.447-12.399-16.49
					c-0.268-1.571-0.167-3.555,1.259-4.268c0.647-0.324,1.42-0.281,2.124-0.11c2.053,0.5,3.722,1.981,5.125,3.561
					c4.346,4.893,6.981,11.272,7.387,17.801c4.998,0.671,10.022,1.153,15.063,1.441c-5.972-2.489-10.88-7.567-12.937-13.721
					c-0.505-1.511-0.709-3.488,0.59-4.41c0.59-0.419,1.361-0.495,2.082-0.434c2.105,0.18,3.981,1.388,5.61,2.734
					c4.938,4.083,8.467,9.824,9.928,16.06c8.07,0.243,16.167,0.003,24.24-0.771c1.603-0.154,1.802,2.337,0.197,2.49
					c-8.117,0.778-16.261,1.021-24.381,0.782c-2.532,7.546-9.318,13.516-17.14,15.016c-1.565,0.3-3.551,0.24-4.293-1.17
					c-0.337-0.641-0.31-1.414-0.153-2.121c0.458-2.063,1.904-3.762,3.455-5.197c3.461-3.203,7.712-5.53,12.256-6.785
					c-5.046-0.298-10.076-0.791-15.08-1.469c-3.731,6.864-11.218,11.56-19.035,11.84c-1.593,0.057-3.546-0.306-4.063-1.814
					c-0.235-0.685-0.09-1.445,0.173-2.119c0.768-1.969,2.457-3.426,4.21-4.607c3.295-2.221,7.049-3.742,10.95-4.492
					c-4.482-0.786-8.934-1.734-13.352-2.818c-3.761,6.772-11.19,11.392-18.943,11.669c-1.593,0.057-3.546-0.306-4.063-1.814
					c-0.235-0.685-0.09-1.445,0.173-2.119c0.768-1.969,2.457-3.426,4.209-4.607c3.716-2.505,8.016-4.117,12.452-4.739
					c-4.389-1.223-8.733-2.599-13.03-4.113c-4.177,6.507-11.864,10.645-19.605,10.444c-1.593-0.041-3.521-0.525-3.944-2.061
					c-0.192-0.698-0.001-1.448,0.303-2.105c0.888-1.918,2.664-3.268,4.485-4.339c3.998-2.35,8.562-3.706,13.189-3.993
					c-5.454-2.1-10.821-4.426-16.076-6.988c-5.148,6.035-13.629,9.05-21.425,7.557c-1.565-0.3-3.389-1.09-3.556-2.674
					c-0.076-0.72,0.235-1.429,0.641-2.027c1.188-1.748,3.16-2.791,5.131-3.552c4.567-1.762,9.576-2.331,14.43-1.711
					c-4.736-2.465-9.376-5.116-13.905-7.952c-6.027,5.354-15.042,7.102-22.629,4.371C47.473,302.032,45.795,300.968,45.876,299.376z
					"/>
			</g>
		</g>
		<g>
			<g>
				<rect x="304.572" y="370.321" style="fill:#292954;" width="138.153" height="74.812"/>
				<path style="fill:#3D3D91;" d="M467.136,456.072H280.161c-3.994,0-7.232-3.238-7.232-7.232v-7.339
					c0-3.994,3.238-7.232,7.232-7.232h186.976c3.994,0,7.231,3.238,7.231,7.232v7.339
					C474.368,452.834,471.13,456.072,467.136,456.072z"/>
				<g style="opacity:0.23;">
					<path style="fill:#292954;" d="M304.572,412.54c46.051-5.828,92.102-11.655,138.153-17.483v-24.736H304.572V412.54z"/>
				</g>
				<path style="fill:#3D3D91;" d="M602.322,379.849H144.975c-10.093,0-18.275-8.182-18.275-18.275V62.204
					c0-10.093,8.182-18.276,18.275-18.276h457.347c10.093,0,18.275,8.182,18.275,18.276v299.369
					C620.597,371.666,612.415,379.849,602.322,379.849z"/>
				<path style="fill:#F7F7F7;" d="M591.525,361.165H155.773c-5.459,0-9.884-4.425-9.884-9.884V72.496
					c0-5.458,4.425-9.884,9.884-9.884h435.752c5.458,0,9.884,4.425,9.884,9.884v278.785
					C601.408,356.74,596.983,361.165,591.525,361.165z"/>
				<g>
					<path style="fill:#B4D9E3;" d="M361.233,204.684H170.839c-5.119,0-9.269-4.15-9.269-9.269V83.039
						c0-5.119,4.15-9.269,9.269-9.269h190.394c5.119,0,9.269,4.15,9.269,9.269v112.376
						C370.502,200.534,366.352,204.684,361.233,204.684z"/>
					<g>
						<g>
							<path style="fill:#A34562;" d="M306.276,151.478c2.394-5.32,2.815-11.236,2.678-16.996
								c-0.116-4.866,0.116-10.702-3.542-14.455c-1.37-1.406-3.053-2.183-4.715-2.886c-11.388-4.821-23.37-7.28-35.35-7.254
								c-2.831,0.006-5.691,0.155-8.426,1.104c-5.242,1.818-10.922,5.205-14.434,10.746c-4.095,6.461-2.195,18.662-0.468,26.021"/>
						</g>
						<g>
							<path style="fill:#EA7F9D;" d="M305.99,141.495c4.9-0.062,9.413,3.76,10.46,8.407c1.046,4.647-1.161,9.706-5.051,12.599
								c-2.98,2.217-8.033,2.712-11.517,1.529"/>
						</g>
						<g>
							<path style="fill:#EA7F9D;" d="M202.104,158.63c-1.79-2.301-1.53-5.607-0.581-8.364c0.949-2.756,2.492-5.318,3.064-8.176
								c0.145-0.725,0.153-1.63-0.472-2.025c-0.755-0.477-1.701,0.202-2.288,0.874c-1.421,1.627-2.569,3.493-3.379,5.495
								c-0.662-1.695-0.577-3.542-0.393-5.318c0.186-1.799,0.143-3.607-0.057-5.414c-0.051-0.459-0.117-0.928-0.337-1.333
								c-0.22-0.405-0.628-0.739-1.089-0.745c-1.609-0.019-1.963,3.318-2.151,4.433c-0.208,1.237-0.304,2.488-0.361,3.74
								c-0.037,0.817,0.118,1.872-0.23,2.621c-0.675-3.545-0.859-7.265-1.274-10.854c-0.127-1.092-1.03-2.747-2.128-1.489
								c-0.99,1.135-1.138,2.982-1.136,4.411c0.004,2.444,0.102,4.829-0.262,7.263c-0.191-1.606-0.445-3.205-0.762-4.791
								c-0.293-1.463-0.667-2.973-1.622-4.118c-0.242-0.29-0.59-0.573-0.958-0.486c-0.166,0.04-0.306,0.151-0.422,0.275
								c-0.585,0.625-0.666,1.556-0.702,2.412c-0.114,2.714-0.079,5.435,0.103,8.146c-0.28-1.49-0.564-2.997-1.189-4.378
								c-0.46-1.018-1.994-3.585-3.45-3.346c-1.742,0.286-0.399,4.111-0.124,5.099c0.613,2.198,0.998,4.46,1.149,6.737
								c0.313,4.732,0.165,9.178,1.372,13.892"/>
						</g>
						<path style="fill:#1E314F;" d="M187.074,156.241c5.639-0.784,11.318-1.272,16.977-1.896
							c1.912,7.498,7.444,20.005,9.574,23.123c2.512,3.678,9.71,14.616,24.314,10.277c9.302-2.764,16.189-3.838,19.963-4.253
							c0.592-0.065,1.135-0.268,1.621-0.558l0,0c4.387,4.087,10.415,6.475,16.335,5.715c3.939-0.505,7.672-2.552,10.307-5.496
							c-0.001,0-0.002,0-0.002,0c0.017,0.001,0.033,0.006,0.051,0.007c19.93,0.545,29.814,14.13,33.734,21.525H190.922
							c-11.966-12.989-11.668-37.698-11.016-47.487C182.296,156.886,184.686,156.573,187.074,156.241z"/>
						<g>
							<path style="fill:#DB7595;" d="M282.225,178.919c-0.091,2.263,1.682,4.145,3.939,4.233
								c-2.635,2.945-6.368,4.992-10.307,5.496c-5.921,0.759-11.949-1.628-16.336-5.715c1.094-0.652,1.86-1.793,1.981-3.128
								l0.917-10.092l20.225-1.199L282.225,178.919z"/>
						</g>
						<path style="fill:#F7F7F7;" d="M259.151,204.641l-4.794-20.676c1.38-0.213,2.568-0.366,3.545-0.473
							c0.592-0.065,1.135-0.268,1.621-0.558l0,0c4.387,4.087,10.415,6.475,16.335,5.715c3.939-0.505,7.672-2.552,10.307-5.496
							c-0.001,0-0.002,0-0.002,0c0.017,0.001,0.033,0.006,0.051,0.007c1.484,0.04,2.901,0.166,4.275,0.343l-10.376,21.139H259.151z"
							/>
						<g>
							<path style="fill:#D6E3E8;" d="M257.901,183.492c0.592-0.065,1.135-0.268,1.621-0.558l0,0
								c4.387,4.087,10.415,6.475,16.335,5.715c3.939-0.505,7.672-2.552,10.307-5.496c-0.001,0-0.002,0-0.002,0
								c0.017,0.001,0.033,0.006,0.051,0.007c1.883,0.051,3.667,0.229,5.374,0.497c-0.894,1.184-1.978,2.248-3.123,3.189
								c-5.059,4.157-11.654,6.512-18.189,6.099c-6.475-0.409-12.795-3.638-16.633-8.866
								C255.332,183.804,256.761,183.617,257.901,183.492z"/>
						</g>
						<g>
							<path style="fill:#324E77;" d="M205.906,160.263c0.096,0.27,0.193,0.54,0.293,0.813c-5.105,0.833-11.85,1.799-19.295,2.654
								c-2.506,0.287-4.926,0.54-7.249,0.768c0.001-0.374,0.004-0.744,0.008-1.105c2.28-0.247,4.654-0.509,7.111-0.79
								C194.123,161.759,200.803,160.914,205.906,160.263z"/>
							<path style="fill:#324E77;" d="M220.309,204.641c-1.296-0.637-2.611-1.329-3.939-2.092
								c-5.062-2.929-10.327-6.967-14.321-12.535c-1.99-2.775-3.536-5.727-4.863-8.625c-1.309-2.907-2.44-5.767-3.387-8.537
								c-1.282-3.717-2.225-7.255-2.935-10.502c0.307,0.037,0.619,0.06,0.936,0.062c0.753,3.132,1.718,6.532,2.987,10.096
								c0.964,2.73,2.104,5.552,3.41,8.417c1.322,2.853,2.845,5.737,4.775,8.428c3.87,5.397,8.977,9.365,13.927,12.294
								c1.921,1.13,3.822,2.118,5.671,2.994H220.309z"/>
							<path style="fill:#324E77;" d="M297.982,191.929c-1.486,1.902-2.769,4.279-3.548,6.952c-0.551,1.97-0.832,3.909-0.951,5.76
								h-1.091c0.087-1.942,0.37-3.999,0.951-6.071c0.824-2.832,2.21-5.326,3.823-7.295c1.604-1.934,3.398-3.378,5.087-4.271
								c0.288,0.142,0.577,0.283,0.858,0.43c-0.129,0.073-0.257,0.144-0.389,0.223C301.15,188.588,299.482,190.035,297.982,191.929z
								"/>
							<path style="fill:#324E77;" d="M244.381,204.641c0.164-3.467,0.609-6.56,1.092-8.845c0.555-2.639,1.104-4.217,1.243-4.183
								c0.319,0.07-0.935,5.695-1.211,13.028H244.381z"/>
						</g>
						<g>
							<g>
								<path style="fill:#DD9D50;" d="M257.185,204.641c-1.62-6.778-3.217-13.562-4.767-20.356c1.472-0.258,2.772-0.452,3.89-0.6
									c1.598,6.995,3.246,13.978,4.919,20.956H257.185z"/>
								<path style="fill:#DD9D50;" d="M278.264,204.641c3.691-7.09,7.382-14.181,11.073-21.271c1.42,0.143,2.795,0.341,4.106,0.612
									c-3.585,6.886-7.17,13.773-10.755,20.659H278.264z"/>
							</g>
						</g>
						<g>
							<path style="fill:#EA7F9D;" d="M242.396,135.44c-4.852-0.688-9.817,2.526-11.449,7.001c-1.632,4.475-0.09,9.775,3.398,13.142
								c3.195,3.084,10.686,4.27,14.465,1.62"/>
						</g>
						<g>
							<g>
								<path style="fill:#B25270;" d="M244.104,154.295c-0.16,0.029-0.453-0.962-0.903-2.536c-0.46-1.563-1.088-3.739-2.382-5.777
									c-1.292-2.02-3.12-3.345-4.573-3.905c-1.46-0.586-2.5-0.53-2.509-0.717c-0.031-0.119,1.048-0.488,2.759-0.046
									c1.691,0.418,3.84,1.803,5.277,4.055c1.419,2.242,1.941,4.578,2.21,6.214C244.24,153.237,244.251,154.268,244.104,154.295z"
									/>
							</g>
							<g>
								<path style="fill:#B25270;" d="M240.731,155.173c-0.085,0.112-0.751-0.183-1.493-1.067c-0.737-0.863-1.484-2.39-1.463-4.199
									c0.025-1.809,0.812-3.316,1.57-4.16c0.765-0.864,1.438-1.142,1.52-1.029c0.107,0.132-0.354,0.62-0.872,1.501
									c-0.52,0.87-1.063,2.193-1.084,3.702c-0.018,1.51,0.491,2.846,0.989,3.729C240.393,154.544,240.842,155.044,240.731,155.173
									z"/>
							</g>
						</g>
						<g>
							<g>
								<path style="fill:#EA7F9D;" d="M242.186,135.151c1.045,0.013,2.09-0.004,3.133-0.065c9.074-0.531,18.116-3.546,25.177-9.27
									c4.045-3.279,7.377-7.486,9.603-12.184c0.912,2.023,2.015,3.956,3.313,5.744c5.456,7.516,13.715,12.643,22.68,15.238
									c0.246,3.671,0.076,7.429-0.239,11.037c-0.829,9.506-3.704,20.436-12.867,25.309c-10.714,5.698-25.05,5.467-36.055,0.692
									c-10.078-4.374-13.643-15.858-14.438-25.993c-0.116-1.474-0.234-3.085-0.323-4.766
									C242.07,138.989,242.063,137.064,242.186,135.151z"/>
							</g>
						</g>
						<path style="fill:#2F2E74;" d="M286.327,144.748c-0.174,2.17,0.636,4.005,1.809,4.099c1.172,0.094,2.264-1.589,2.437-3.759
							c0.174-2.17-0.636-4.006-1.808-4.1C287.592,140.895,286.5,142.578,286.327,144.748z"/>
						<path style="fill:#2F2E74;" d="M259.404,142.465c-0.174,2.17,0.636,4.006,1.809,4.099c1.173,0.094,2.264-1.589,2.437-3.76
							c0.174-2.17-0.636-4.006-1.809-4.099C260.669,138.612,259.577,140.295,259.404,142.465z"/>
						<g>
							<path style="fill:#7F334E;" d="M267.74,150.221c0.153-0.085,0.638,0.658,1.646,1.579c0.99,0.917,2.606,1.99,4.608,2.275
								c1.996,0.274,3.835-0.363,4.96-1.069c1.152-0.704,1.692-1.412,1.84-1.309c0.115,0.059-0.202,0.981-1.372,1.961
								c-1.134,0.969-3.227,1.864-5.584,1.541c-2.348-0.336-4.112-1.702-5.033-2.847
								C267.857,151.189,267.618,150.278,267.74,150.221z"/>
						</g>
						<polygon style="fill:#CC5E80;" points="277.295,128.08 279.512,149.604 269.647,148.463 						"/>
						<path style="fill:#2F2E74;" d="M287.211,130.616c-0.536,1.301,0.965,3.152,3.351,4.135c2.387,0.983,4.755,0.724,5.291-0.576
							c0.536-1.301-0.965-3.152-3.351-4.135C290.115,129.057,287.746,129.315,287.211,130.616z"/>
						<path style="fill:#2F2E74;" d="M259.252,129.028c0.285,1.378,2.565,2.07,5.093,1.547c2.527-0.523,4.345-2.065,4.059-3.442
							s-2.565-2.07-5.093-1.547C260.784,126.109,258.967,127.65,259.252,129.028z"/>
						<g>
							<path style="fill:#A34562;" d="M246.078,121.907c6.851-10.986,19.894-14.643,32.224-13.228c0-0.002-0.001-0.003-0.001-0.005
								c0.069,0.008,0.137,0.019,0.206,0.027c0.439,0.052,0.877,0.107,1.314,0.172c0.744,0.106,1.485,0.223,2.219,0.37
								c6.753,1.353,13.658,3.8,18.18,8.995c3.923,4.506,5.467,10.321,5.873,16.375c-8.965-2.595-17.224-7.722-22.68-15.238
								c-1.298-1.788-2.401-3.722-3.313-5.744c-2.226,4.698-5.558,8.905-9.603,12.184c-7.061,5.723-16.103,8.738-25.177,9.27
								c-1.043,0.061-2.088,0.078-3.133,0.065C242.484,130.508,243.566,125.935,246.078,121.907z"/>
						</g>
						<g>
							<g>
								<path style="fill:#7F334E;" d="M268.391,126.745c-0.083-0.159,1.027-0.828,2.646-2.099c1.621-1.265,3.704-3.212,5.541-5.741
									c1.827-2.536,3.024-5.124,3.719-7.059c0.701-1.935,0.989-3.199,1.166-3.17c0.132,0.017,0.125,1.342-0.4,3.408
									c-0.517,2.06-1.653,4.833-3.565,7.486c-1.921,2.646-4.2,4.593-5.995,5.729C269.704,126.444,268.448,126.866,268.391,126.745
									z"/>
							</g>
							<g>
								<path style="fill:#7F334E;" d="M259.079,129.109c-0.161-0.314,4.732-2.679,9.588-7.153c4.898-4.427,7.701-9.083,7.999-8.894
									c0.123,0.071-0.418,1.331-1.622,3.185c-1.199,1.853-3.115,4.264-5.612,6.547c-2.502,2.278-5.078,3.965-7.033,4.99
									C260.442,128.815,259.138,129.238,259.079,129.109z"/>
							</g>
							<g>
								<path style="fill:#7F334E;" d="M245.171,130.138c-0.047-0.161,1.681-0.762,4.423-1.814c2.736-1.057,6.493-2.598,10.293-4.91
									c3.8-2.307,6.813-5.019,8.725-7.211c1.931-2.183,2.87-3.756,3.028-3.663c0.115,0.057-0.584,1.793-2.41,4.174
									c-1.803,2.385-4.843,5.296-8.752,7.668c-3.906,2.376-7.791,3.827-10.621,4.699
									C247.017,129.95,245.21,130.278,245.171,130.138z"/>
							</g>
							<g>
								<path style="fill:#7F334E;" d="M246.447,123.074c-0.058-0.148,0.909-0.67,2.498-1.424c1.585-0.759,3.792-1.751,6.115-3.022
									c2.323-1.272,4.27-2.654,5.584-3.78c1.32-1.117,2.068-1.912,2.205-1.803c0.11,0.082-0.423,1.069-1.654,2.385
									c-1.22,1.322-3.193,2.881-5.588,4.191c-2.395,1.311-4.688,2.198-6.36,2.772
									C247.571,122.961,246.503,123.217,246.447,123.074z"/>
							</g>
							<g>
								<path style="fill:#7F334E;" d="M282.462,111.453c0.301-0.207,3.698,5.49,9.892,10.606c6.139,5.181,12.352,7.507,12.201,7.84
									c-0.046,0.128-1.656-0.281-4.099-1.382c-2.44-1.095-5.677-2.962-8.828-5.587c-3.145-2.633-5.561-5.484-7.073-7.69
									C283.035,113.032,282.345,111.521,282.462,111.453z"/>
							</g>
							<g>
								<path style="fill:#7F334E;" d="M290.515,114.48c0.238-0.216,1.997,1.362,4.234,3.189c2.229,1.838,4.119,3.255,3.954,3.531
									c-0.152,0.264-2.369-0.756-4.673-2.654C291.719,116.656,290.286,114.68,290.515,114.48z"/>
							</g>
						</g>
						<g>
							<g>
								<path style="fill:#E09A53;" d="M212.532,121.962c-0.341-0.019-0.184-5.679,0.352-12.642
									c0.536-6.963,1.246-12.58,1.586-12.546c0.34,0.033,0.183,5.693-0.351,12.641
									C213.584,116.364,212.874,121.981,212.532,121.962z"/>
							</g>
							<g>
								<path style="fill:#E09A53;" d="M215.316,139.999c-0.253,0.033-0.969-3.911-1.599-8.809c-0.63-4.897-0.937-8.894-0.684-8.927
									c0.253-0.032,0.969,3.911,1.599,8.809C215.262,135.97,215.569,139.966,215.316,139.999z"/>
							</g>
							<g>
								<path style="fill:#E09A53;" d="M211.509,143.338c-0.255-0.01-0.29-4.669-0.079-10.408
									c0.211-5.738,0.588-10.383,0.842-10.374c0.255,0.009,0.29,4.669,0.079,10.408
									C212.141,138.702,211.763,143.347,211.509,143.338z"/>
							</g>
							<g>
								<path style="fill:#E09A53;" d="M213.858,140.865c-0.254,0.016-0.721-4.2-1.043-9.415c-0.322-5.216-0.377-9.456-0.123-9.472
									c0.254-0.016,0.721,4.2,1.044,9.415C214.057,136.609,214.112,140.85,213.858,140.865z"/>
							</g>
							<g>
								<path style="fill:#E09A53;" d="M209.157,138.564c-0.253-0.06,0.399-3.705,1.21-8.193c0.818-4.486,1.496-8.128,1.753-8.094
									c0.248,0.031-0.023,3.747-0.846,8.259C210.458,135.05,209.4,138.622,209.157,138.564z"/>
							</g>
							<g>
								<path style="fill:#E09A53;" d="M207.429,138.678c-0.247-0.063,0.476-3.728,1.615-8.186c1.139-4.458,2.262-8.02,2.509-7.957
									c0.247,0.063-0.476,3.728-1.615,8.186C208.799,135.178,207.676,138.741,207.429,138.678z"/>
							</g>
							<polygon style="fill:#19283D;" points="270.294,73.776 284.058,73.776 345.974,108.592 309.691,126.7 244.482,115.231 
								214.661,96.869 							"/>
							<path style="fill:#1E314F;" d="M310.353,130.18l1.48-24.429c0,0-20.758-22.032-64.903-8.321l-5.861,22.341
								c-0.474,1.805,1.161,3.468,2.97,3.007c10.147-2.585,37.544-7.224,62.535,9.321
								C308.139,133.133,310.24,132.053,310.353,130.18z"/>
							<path style="fill:#F4AF64;" d="M210.054,121.919c0.024-1.369,1.153-2.459,2.521-2.435c1.369,0.024,2.459,1.153,2.435,2.521
								c-0.024,1.369-1.153,2.459-2.521,2.435C211.121,124.416,210.03,123.287,210.054,121.919z"/>
						</g>
						<g>
							<path style="fill:#B25270;" d="M302.86,160.102c-0.143-0.045,0-1.067,0.465-2.673c0.476-1.587,1.292-3.837,2.986-5.88
								c1.713-2.049,4.022-3.149,5.752-3.347c1.754-0.22,2.777,0.284,2.731,0.398c-0.033,0.184-1.056-0.004-2.58,0.39
								c-1.512,0.37-3.494,1.45-5.034,3.288c-1.543,1.855-2.444,3.933-3.101,5.425C303.432,159.206,303.015,160.152,302.86,160.102z
								"/>
						</g>
						<g>
							<path style="fill:#B25270;" d="M306.093,161.405c-0.093-0.143,0.416-0.581,1.021-1.404c0.606-0.812,1.282-2.072,1.458-3.572
								c0.172-1.5-0.197-2.882-0.602-3.811c-0.401-0.939-0.796-1.482-0.673-1.6c0.096-0.102,0.728,0.259,1.376,1.215
								c0.644,0.934,1.232,2.529,1.026,4.327c-0.211,1.797-1.147,3.215-1.988,3.977
								C306.861,161.319,306.163,161.527,306.093,161.405z"/>
						</g>
					</g>
				</g>
				<g>
					<path style="opacity:0.2;fill:#90599C;" d="M576.199,204.684H392.196c-5.016,0-9.082-4.066-9.082-9.081V82.851
						c0-5.016,4.066-9.082,9.082-9.082h184.003c5.016,0,9.082,4.066,9.082,9.082v112.751
						C585.28,200.618,581.214,204.684,576.199,204.684z"/>
					<g>
						<g>
							<path style="fill:#F4AF64;" d="M548.867,204.684c0.161-3.092,0.039-6.186-0.51-9.235
								c-1.223-6.792-4.648-13.362-10.231-17.419c-2.731-1.985-6.037-3.463-7.763-6.365c-2.548-4.282-0.651-9.679-0.218-14.644
								c0.574-6.587-1.744-13.374-6.227-18.234c-1.539-1.668-3.335-3.141-4.489-5.095c-1.751-2.965-1.784-6.588-2.126-10.015
								c-0.569-5.703-3.052-10.124-8.857-11.573c-3.33-0.831-6.811-0.751-10.241-0.64c-11.142,0.36-22.273,0.992-33.396,1.723
								c-2.247,0.148-4.55,0.314-6.596,1.254c-7.088,3.255-6.601,11.23-9.857,17.027c-3.87,6.89-13.854,8.617-17.388,15.685
								c-2.592,5.185-0.801,11.359,0.6,16.983c1.401,5.624,2.089,12.351-1.959,16.499c-1.99,2.039-4.777,3.038-7.329,4.305
								c-4.979,2.472-9.508,6.435-11.248,11.715c-0.845,2.564-0.851,5.443-0.08,8.029H548.867z"/>
						</g>
						<g>
							<path style="fill:#EA7F9D;" d="M550.493,169.9c1.202-2.656,0.175-5.809-1.393-8.267c-1.568-2.458-3.667-4.587-4.893-7.232
								c-0.311-0.67-0.53-1.549-0.016-2.08c0.622-0.641,1.701-0.202,2.429,0.314c1.763,1.249,3.315,2.794,4.571,4.551
								c0.247-1.803-0.268-3.578-0.863-5.262c-0.602-1.705-0.983-3.473-1.212-5.277c-0.058-0.458-0.104-0.93,0.016-1.375
								c0.119-0.446,0.438-0.866,0.885-0.979c1.56-0.395,2.685,2.767,3.129,3.807c0.492,1.154,0.878,2.348,1.226,3.552
								c0.227,0.786,0.323,1.848,0.837,2.494c-0.173-3.604-0.866-7.264-1.302-10.85c-0.133-1.091,0.358-2.912,1.72-1.946
								c1.229,0.872,1.805,2.633,2.137,4.023c0.568,2.377,1.031,4.719,1.954,6.999c-0.191-1.606-0.318-3.22-0.381-4.836
								c-0.058-1.49-0.048-3.047,0.613-4.383c0.167-0.339,0.44-0.696,0.817-0.697c0.171-0.001,0.333,0.075,0.475,0.169
								c0.715,0.471,1.012,1.357,1.247,2.18c0.746,2.612,1.35,5.265,1.807,7.943c-0.077-1.514-0.153-3.046,0.131-4.535
								c0.209-1.097,1.099-3.952,2.57-4.06c1.761-0.13,1.35,3.903,1.314,4.928c-0.081,2.281,0.074,4.57,0.46,6.819
								c0.803,4.674,1.988,8.962,1.919,13.827"/>
						</g>
						<g style="opacity:0.23;">
							<path style="fill:#F4AF64;" d="M541.765,204.684c-0.338-5.087-2.121-10.079-5.296-14.075
								c-3.479-4.379-8.281-7.466-12.584-11.039c-4.303-3.573-8.336-8.033-9.287-13.544c-1.043-6.041,1.792-12.395,0.091-18.285
								c-1.14-3.949-4.244-7.129-7.87-9.066c-3.625-1.938-7.746-2.755-11.837-3.163c-12.556-1.253-26.45,0.576-38.585,3.966
								c-9.285,2.594-15.605,13.613-15.526,22.894c0.036,4.187,1.12,8.326,0.985,12.511c-0.09,2.792-0.818,5.725-2.828,7.665
								c-1.284,1.239-2.965,1.958-4.521,2.831c-6.913,3.878-11.485,11.443-12.135,19.305H541.765z"/>
						</g>
						<g>
							<g>
								<path style="fill:#1E314F;" d="M534.638,204.684c-3.05-8.386-11.788-24.345-34.427-25.803
									c-0.973-0.063-1.848-0.447-2.55-1.03l0,0c-0.74,0.684-1.536,1.312-2.357,1.891c-4.528,3.193-10.149,5.135-15.633,4.345
									c-4.057-0.585-7.94-2.875-10.239-6.2c-0.577,0.321-1.224,0.532-1.924,0.562c-7.458,0.328-23.07,2.273-28.646,12.576
									c-3.8,7.023-5.615,11.225-6.482,13.659H534.638z"/>
							</g>
						</g>
						<g>
							<path style="fill:#E887AA;" d="M452.348,130.967c-4.849-0.707-9.826,2.489-11.475,6.958
								c-1.649,4.469-0.127,9.775,3.349,13.155c3.183,3.095,8.778,3.802,12.943,2.838"/>
						</g>
						<g>
							<g>
								<path style="fill:#B25270;" d="M453.003,149.825c0.148-0.026,0.141-1.058-0.11-2.711c-0.263-1.636-0.776-3.974-2.186-6.222
									c-1.428-2.257-3.573-3.651-5.262-4.075c-1.709-0.449-2.79-0.084-2.76,0.035c0.008,0.187,1.048,0.135,2.506,0.726
									c1.451,0.566,3.273,1.897,4.558,3.922c1.286,2.042,1.906,4.22,2.36,5.786C452.553,148.861,452.842,149.854,453.003,149.825z
									"/>
							</g>
							<g>
								<path style="fill:#B25270;" d="M449.626,150.691c0.111-0.129-0.336-0.63-0.827-1.526c-0.494-0.885-0.998-2.223-0.975-3.733
									c0.027-1.51,0.575-2.831,1.098-3.698c0.521-0.879,0.984-1.365,0.878-1.498c-0.082-0.114-0.756,0.161-1.524,1.023
									c-0.762,0.841-1.554,2.345-1.586,4.154c-0.028,1.809,0.714,3.338,1.447,4.204
									C448.876,150.504,449.541,150.802,449.626,150.691z"/>
							</g>
						</g>
						<g>
							<path style="fill:#E887AA;" d="M516.065,134.252c4.9-0.044,9.399,3.796,10.428,8.447c1.029,4.651-1.197,9.702-5.098,12.58
								c-4.586,3.384-10.899,1.646-15.933,0.38"/>
						</g>
						<g>
							<g>
								<path style="fill:#B25270;" d="M512.864,152.848c0.155,0.05,0.576-0.893,1.228-2.395c0.662-1.489,1.571-3.563,3.121-5.413
									c1.547-1.832,3.533-2.905,5.047-3.27c1.525-0.389,2.548-0.197,2.581-0.38c0.046-0.114-0.975-0.622-2.729-0.408
									c-1.731,0.192-4.044,1.282-5.765,3.325c-1.701,2.036-2.526,4.283-3.008,5.869
									C512.868,151.781,512.721,152.802,512.864,152.848z"/>
							</g>
							<g>
								<path style="fill:#B25270;" d="M516.092,154.163c0.07,0.122,0.768-0.083,1.621-0.861c0.844-0.759,1.786-2.174,2.003-3.97
									c0.213-1.797-0.368-3.394-1.009-4.33c-0.645-0.958-1.276-1.322-1.372-1.22c-0.124,0.117,0.269,0.661,0.667,1.603
									c0.401,0.93,0.765,2.313,0.588,3.813c-0.181,1.499-0.862,2.757-1.471,3.566C516.51,153.583,516,154.02,516.092,154.163z"/>
							</g>
						</g>
						<g>
							<path style="fill:#EA7F9D;" d="M471.72,174.169c-0.055,1.603-0.968,2.983-2.287,3.717c2.298,3.326,6.181,5.615,10.239,6.2
								c5.484,0.791,11.105-1.152,15.633-4.345c0.821-0.579,1.617-1.207,2.357-1.891c-0.939-0.779-1.561-1.924-1.608-3.226
								l-0.433-11.861l-23.541,0.971L471.72,174.169z"/>
						</g>
						<g>
							<path style="fill:#1E314F;" d="M572.131,204.684c1.879-12.27,1.601-26.31-0.464-37.331
								c-7.795-0.498-15.596-0.881-23.405-1.041c-0.55,5.47-2.661,23.45-3.067,24.903c-0.963,3.452-1.892,7.502-3.712,10.614
								c-0.621,1.062-1.207,1.97-1.48,2.855H572.131z"/>
						</g>
						<path style="fill:#2CB6CA;" d="M557.115,204.684c0.066-0.276,0.13-0.549,0.198-0.829c0.877-4.05,1.633-8.546,2.172-13.293
							c0.775-7.113,1.035-13.73,1.116-19.233c-0.312-0.035-0.625-0.071-0.938-0.101c-0.202,5.5-0.533,12.112-1.306,19.208
							c-0.535,4.714-1.254,9.174-2.067,13.2c-0.081,0.353-0.157,0.7-0.235,1.048H557.115z"/>
						<g>
							<path style="fill:#2CB6CA;" d="M564.879,172.232c2.652,0.16,5.208,0.333,7.623,0.509c-0.047-0.373-0.102-0.735-0.153-1.103
								c-2.35-0.199-4.828-0.383-7.402-0.538c-6.521-0.389-12.501-0.532-17.143-0.531c-0.031,0.283-0.064,0.572-0.097,0.867
								C552.348,171.599,558.337,171.842,564.879,172.232z"/>
						</g>
						<g>
							<path style="fill:#F492B1;" d="M515.692,138.769c1.199-6.422,1.392-13.23-1.375-19.335
								c-5.889-12.992-20.4-18.18-33.982-17.285c-6.872,0.452-14.039,1.97-19.205,6.524c-7.199,6.345-8.761,16.847-9.193,26.433
								c-0.429,9.532,0.983,21.728,9.425,27.765c9.871,7.058,24.113,7.734,35.65,4.448c10.566-3.009,15.611-13.925,17.733-23.867
								C515.053,142.005,515.383,140.423,515.692,138.769z"/>
						</g>
						<g style="opacity:0.31;">
							<path style="fill:#F492B1;" d="M472.935,117.577c1.055,4.875,3.795,9.368,7.644,12.54c1.046,0.862,2.189,1.638,3.477,2.06
								c1.808,0.592,3.787,0.447,5.631-0.019c2.52-0.636,4.89-1.86,6.867-3.548c3.089,2.964,6.524,6.092,10.787,6.486
								c1.383,0.128,2.793-0.051,4.1-0.519c1.376-0.493,2.69-1.367,3.334-2.68c1.012-2.064,0.115-4.554-1.106-6.502
								c-1.24-1.978-2.813-3.747-4.633-5.209c-2.856-2.294-6.458-4.006-8.05-7.305c-0.784-1.624-1.016-3.537-2.152-4.938
								c-0.796-0.981-1.954-1.598-3.129-2.063c-5.176-2.048-11.315-1.471-16.02,1.504"/>
						</g>
						<g>
							<path style="fill:#2F2E74;" d="M470.995,140.307c-0.111,2.128-1.133,3.804-2.283,3.745c-1.15-0.06-1.992-1.834-1.881-3.962
								c0.111-2.128,1.133-3.805,2.283-3.745C470.264,136.405,471.106,138.179,470.995,140.307z"/>
							<path style="fill:#2F2E74;" d="M495.471,141.522c-0.111,2.128-1.133,3.805-2.283,3.745c-1.15-0.06-1.992-1.834-1.881-3.962
								c0.111-2.128,1.133-3.804,2.283-3.744C494.74,137.621,495.582,139.394,495.471,141.522z"/>
							<polygon style="fill:#CC5E80;" points="480.874,126.681 476.613,144.512 485.025,144.653 							"/>
							<path style="fill:#CC5E80;" d="M471.957,128.447c0.352,1.331-1.342,2.934-3.784,3.58c-2.442,0.646-4.707,0.09-5.059-1.241
								c-0.352-1.331,1.342-2.934,3.784-3.58C469.34,126.56,471.605,127.115,471.957,128.447z"/>
							<path style="fill:#CC5E80;" d="M498.737,130.278c-0.454,1.3-2.756,1.678-5.14,0.845c-2.385-0.833-3.949-2.563-3.495-3.863
								c0.454-1.3,2.756-1.678,5.14-0.845C497.627,127.249,499.192,128.978,498.737,130.278z"/>
							<path style="fill:#F7F7F7;" d="M475.763,148.886c0.456,3.323,2.837,5.861,5.718,5.861c2.951,0,5.381-2.661,5.751-6.102
								C483.411,148.8,479.589,148.88,475.763,148.886z"/>
						</g>
						<g>
							<path style="fill:#F4AF64;" d="M473.35,112.14c1.092,3.906,2.425,7.826,4.829,11.092c2.404,3.266,6.045,5.828,10.093,6.072
								c4.048,0.244,8.342-2.304,9.309-6.242c1.564,2.908,3.159,5.859,5.473,8.215c2.313,2.356,5.484,4.079,8.781,3.903
								c3.297-0.177,6.55-2.658,6.892-5.942c0.131-1.253-0.146-2.51-0.451-3.733c-0.989-3.96-2.331-7.907-4.716-11.22
								c-2.385-3.312-5.943-5.948-9.99-6.478"/>
						</g>
						<path style="fill:#F7F7F7;" d="M490.005,204.684l13.167-25.518c-0.961-0.122-1.945-0.22-2.961-0.286
							c-0.973-0.063-1.848-0.447-2.55-1.03l0,0c-0.74,0.684-1.536,1.312-2.357,1.891c-4.528,3.193-10.149,5.135-15.633,4.345
							c-4.057-0.585-7.94-2.875-10.239-6.2c-0.577,0.321-1.224,0.532-1.924,0.562c-1.147,0.051-2.489,0.14-3.957,0.292
							l12.455,25.944H490.005z"/>
						<path style="fill:#2CB6CA;" d="M493.328,204.684c3.761-8.485,7.689-16.894,11.796-25.217
							c-1.367-0.235-2.793-0.412-4.279-0.527c-4.163,8.497-8.136,17.082-11.945,25.744H493.328z"/>
						<path style="fill:#2CB6CA;" d="M477.452,204.684c-4.396-8.545-8.482-17.238-12.206-26.097c-1.282,0.1-2.704,0.249-4.204,0.464
							c3.624,8.693,7.581,17.234,11.834,25.633H477.452z"/>
						<g>
							<path style="fill:#F4AF64;" d="M450.693,128.96c3.561,0.617,7.149-0.679,10.506-2.017c3.412-1.36,6.872-2.834,9.582-5.313
								c2.71-2.479,4.574-6.183,3.928-9.799c-5.276-0.907-10.742,0.302-15.633,2.48c-2.188,0.974-4.347,2.188-5.844,4.056
								c-0.982,1.225-1.656,2.783-1.483,4.343"/>
						</g>
						<g>
							<polygon style="fill:#19283D;" points="497.23,73.849 477.666,73.849 419.819,95.815 451.714,118.214 515.332,116.638 
								546.302,103.45 							"/>
							<g>
								<g>
									<path style="fill:#E09A53;" d="M419.694,120.122c0.329,0.01,0.641-5.423,0.698-12.135
										c0.057-6.712-0.164-12.149-0.492-12.145c-0.329,0.004-0.641,5.437-0.698,12.135
										C419.145,114.675,419.365,120.112,419.694,120.122z"/>
								</g>
							</g>
							<g>
								<g>
									<path style="fill:#E09A53;" d="M415.552,137.167c0.239,0.052,1.248-3.666,2.252-8.305c1.005-4.638,1.625-8.441,1.386-8.493
										c-0.239-0.052-1.248,3.666-2.252,8.305C415.933,133.313,415.313,137.116,415.552,137.167z"/>
								</g>
							</g>
							<g>
								<g>
									<path style="fill:#E09A53;" d="M418.924,140.676c0.245,0.012,0.66-4.448,0.928-9.961c0.268-5.513,0.287-9.991,0.042-10.003
										c-0.245-0.012-0.66,4.448-0.928,9.96C418.699,136.186,418.68,140.665,418.924,140.676z"/>
								</g>
							</g>
							<g>
								<g>
									<path style="fill:#E09A53;" d="M416.877,138.117c0.242,0.036,1.035-3.963,1.77-8.931c0.735-4.968,1.135-9.025,0.893-9.061
										c-0.242-0.036-1.034,3.963-1.77,8.931C417.035,134.024,416.635,138.081,416.877,138.117z"/>
								</g>
							</g>
							<g>
								<g>
									<path style="fill:#E09A53;" d="M421.567,136.298c0.247-0.036-0.078-3.581-0.488-7.945
										c-0.416-4.363-0.767-7.906-1.016-7.895c-0.24,0.01-0.285,3.59,0.134,7.978C420.609,132.826,421.33,136.333,421.567,136.298
										z"/>
								</g>
							</g>
							<g>
								<g>
									<path style="fill:#E09A53;" d="M423.213,136.548c0.241-0.04-0.151-3.609-0.877-7.971c-0.726-4.362-1.51-7.866-1.751-7.826
										c-0.242,0.04,0.151,3.609,0.877,7.971C422.187,133.085,422.971,136.588,423.213,136.548z"/>
								</g>
							</g>
							<path style="fill:#1E314F;" d="M450.591,121.389l2.083-23.393c0,0,22.88-17.972,62.877,1.372l2.379,22.968
								c0.189,1.823-1.662,3.176-3.335,2.429c-9.335-4.171-34.624-13.026-60.657-0.987
								C452.286,124.542,450.429,123.202,450.591,121.389z"/>
							<path style="fill:#F4AF64;" d="M422.071,120.284c0.089-1.313-0.902-2.449-2.215-2.538c-1.313-0.089-2.449,0.903-2.538,2.215
								c-0.089,1.313,0.902,2.449,2.215,2.539C420.845,122.588,421.981,121.596,422.071,120.284z"/>
						</g>
					</g>
				</g>
				<g>
					<path style="fill:#B4D9E3;" d="M576.655,350.007H392.652c-5.016,0-9.082-4.066-9.082-9.082V228.174
						c0-5.016,4.066-9.082,9.082-9.082h184.003c5.016,0,9.082,4.066,9.082,9.082v112.751
						C585.736,345.941,581.67,350.007,576.655,350.007z"/>
					<g>
						<g>
							<path style="fill:#A34562;" d="M453.14,294.501c-0.928,4.867,1.738,10.063,5.99,12.607c4.251,2.544,9.769,2.553,14.286,0.517
								c1.587-6.728,0.565-14.038-2.807-20.073"/>
						</g>
						<g>
							<path style="fill:#D87393;" d="M475.532,305.988l-0.891,14.532c-0.129,2.1-1.92,3.736-4.021,3.614
								c-0.039-0.002-0.077-0.001-0.116-0.004c2.626,2.453,5.994,4.166,9.531,4.871c5.93,1.183,12.198-0.237,17.476-3.188
								c0.482-0.269,0.953-0.559,1.419-0.857c-1.311-0.65-2.193-2.023-2.141-3.581l0.358-10.669L475.532,305.988z"/>
						</g>
						<g>
							<path style="fill:#A34562;" d="M501.737,310.086c2.762,2.72,7.29,2.552,10.955,1.29c2.51-0.864,4.949-2.214,6.527-4.349
								c2.111-2.857,2.375-6.632,2.561-10.179c0.015-0.28,0.022-0.584-0.143-0.81c-0.129-0.177-0.34-0.271-0.542-0.355
								c-6.803-2.823-14.873-2.401-21.344,1.118"/>
						</g>
						<g style="opacity:0.15;">
							<path style="fill:#EA7F9D;" d="M496.871,318.93l0.276-8.224l-21.614-4.718l-0.88,14.357c0.154,0.029,0.306,0.068,0.461,0.096
								C482.367,321.768,490.128,321.81,496.871,318.93z"/>
						</g>
						<g>
							<path style="fill:#D87393;" d="M518.463,280.947c4.9-0.062,9.413,3.76,10.46,8.407c1.046,4.647-1.161,9.707-5.051,12.6
								c-2.952,2.195-11.43,3.561-13.516-0.57"/>
							<g>
								<g>
									<path style="fill:#BF5878;" d="M515.332,299.554c0.155,0.05,0.572-0.896,1.219-2.4c0.656-1.492,1.558-3.569,3.101-5.425
										c1.54-1.838,3.522-2.919,5.034-3.288c1.523-0.394,2.547-0.206,2.58-0.39c0.046-0.114-0.977-0.618-2.731-0.398
										c-1.73,0.198-4.039,1.298-5.752,3.347c-1.694,2.043-2.51,4.293-2.986,5.88C515.332,298.487,515.19,299.509,515.332,299.554
										z"/>
								</g>
								<g>
									<path style="fill:#BF5878;" d="M518.565,300.857c0.07,0.121,0.768-0.086,1.618-0.868c0.841-0.762,1.777-2.18,1.988-3.977
										c0.206-1.798-0.381-3.392-1.026-4.326c-0.648-0.955-1.281-1.317-1.376-1.215c-0.123,0.118,0.272,0.66,0.673,1.6
										c0.405,0.929,0.774,2.31,0.602,3.81c-0.176,1.5-0.851,2.76-1.458,3.572C518.981,300.276,518.472,300.714,518.565,300.857z"
										/>
								</g>
							</g>
						</g>
						<g>
							<path style="fill:#1E314F;" d="M498.918,324.949c-0.165-0.083-0.324-0.177-0.474-0.282
								C498.594,324.772,498.753,324.866,498.918,324.949z"/>
							<path style="fill:#1E314F;" d="M417.254,350.007h124.554c-12.328-21.275-32.866-24.342-41.33-24.653
								c-0.563-0.021-1.089-0.167-1.56-0.405c0.004,0.002,0.008,0.005,0.012,0.007c-0.466,0.298-0.937,0.588-1.419,0.857
								c-5.278,2.951-11.546,4.371-17.476,3.188c-3.537-0.706-6.905-2.418-9.531-4.871c0.039,0.002,0.077,0.001,0.116,0.004
								C440.167,322.367,422.878,342.155,417.254,350.007z"/>
						</g>
						<g>
							<path style="fill:#D87393;" d="M457.919,276.577c-4.852-0.688-9.817,2.526-11.449,7.001
								c-1.632,4.475-0.09,9.775,3.398,13.142c2.714,2.619,7.74,3.686,11.366,2.655"/>
							<g>
								<g>
									<path style="fill:#BF5878;" d="M458.645,295.432c0.148-0.027,0.137-1.058-0.12-2.711c-0.269-1.635-0.791-3.971-2.21-6.214
										c-1.436-2.252-3.586-3.637-5.277-4.055c-1.711-0.443-2.79-0.074-2.759,0.046c0.009,0.186,1.048,0.131,2.509,0.716
										c1.453,0.56,3.28,1.885,4.573,3.905c1.293,2.037,1.921,4.213,2.382,5.777C458.192,294.47,458.485,295.461,458.645,295.432z
										"/>
								</g>
								<g>
									<path style="fill:#BF5878;" d="M455.272,296.311c0.111-0.13-0.338-0.629-0.833-1.523c-0.498-0.883-1.007-2.219-0.989-3.729
										c0.021-1.51,0.564-2.833,1.084-3.702c0.518-0.881,0.979-1.368,0.872-1.501c-0.082-0.114-0.755,0.164-1.52,1.029
										c-0.758,0.844-1.545,2.351-1.57,4.16c-0.021,1.809,0.726,3.336,1.463,4.199
										C454.522,296.127,455.187,296.422,455.272,296.311z"/>
								</g>
							</g>
						</g>
						<path style="fill:#5454AF;" d="M498.918,324.949c0.004,0.002,0.008,0.005,0.012,0.007c-0.466,0.298-0.937,0.588-1.419,0.857
							c-5.278,2.951-11.546,4.371-17.476,3.188c-3.537-0.706-6.905-2.418-9.531-4.871c0.039,0.002,0.077,0.001,0.116,0.004
							c-2.693-0.156-5.271-0.127-7.759,0.031l7.562,25.843H495l11.951-23.993c-2.54-0.417-4.757-0.596-6.473-0.659
							C499.915,325.334,499.389,325.188,498.918,324.949z"/>
						<g>
							<path style="fill:#EA7F9D;" d="M455.729,281.103c-0.344-6.524,0.361-13.298,3.907-18.986
								c7.547-12.104,22.615-15.337,35.961-12.663c6.753,1.353,13.657,3.801,18.18,8.995c6.301,7.237,6.468,17.853,5.634,27.413
								c-0.829,9.506-3.704,20.436-12.867,25.309c-10.714,5.698-25.05,5.467-36.055,0.692
								c-10.078-4.374-13.642-15.858-14.438-25.993C455.936,284.396,455.818,282.784,455.729,281.103z"/>
						</g>
						<g>
							<path style="fill:#2F2E74;" d="M495.824,286.398c-0.082,2.096,0.769,3.831,1.901,3.876c1.132,0.044,2.117-1.619,2.2-3.715
								c0.082-2.096-0.769-3.831-1.901-3.876C496.891,282.639,495.906,284.302,495.824,286.398z"/>
							<path style="fill:#2F2E74;" d="M471.781,285.216c-0.082,2.096,0.769,3.831,1.901,3.876c1.133,0.044,2.117-1.619,2.199-3.715
								c0.082-2.096-0.769-3.831-1.901-3.876C472.848,281.457,471.863,283.121,471.781,285.216z"/>
							<polygon style="fill:#BF5878;" points="486.787,272.847 489.762,293.481 480.221,292.768 							"/>
							<path style="fill:#1E314F;" d="M496.123,272.759c-0.465,1.273,1.052,2.997,3.388,3.85c2.336,0.852,4.606,0.511,5.071-0.762
								c0.465-1.273-1.052-2.997-3.388-3.849C498.858,271.145,496.588,271.486,496.123,272.759z"/>
							<path style="fill:#1E314F;" d="M471.111,272.323c0.329,1.315,2.551,1.893,4.963,1.29c2.412-0.603,4.102-2.158,3.773-3.473
								c-0.329-1.315-2.551-1.893-4.963-1.29C472.471,269.454,470.782,271.008,471.111,272.323z"/>
							<g>
								<path style="fill:#BF5878;" d="M493.375,295.061c-0.144-0.085-0.525,0.362-1.219,0.92c-0.69,0.563-1.743,1.198-3.037,1.554
									c-1.296,0.346-2.526,0.329-3.406,0.19c-0.881-0.132-1.436-0.326-1.517-0.18c-0.069,0.113,0.375,0.57,1.322,0.927
									c0.935,0.361,2.386,0.52,3.886,0.117c1.499-0.409,2.671-1.278,3.297-2.061C493.339,295.742,493.492,295.123,493.375,295.061
									z"/>
							</g>
						</g>
						<path style="fill:#F7F7F7;" d="M500.478,325.354c-0.563-0.021-1.089-0.167-1.56-0.405c0.004,0.002,0.008,0.005,0.012,0.007
							c-0.466,0.298-0.937,0.588-1.419,0.857c-4.248,2.375-9.137,3.75-13.976,3.582c-1.173-0.04-2.343-0.163-3.5-0.394
							c-3.537-0.706-6.905-2.418-9.531-4.871c0.039,0.002,0.077,0.001,0.116,0.004c-1.154-0.067-2.288-0.101-3.405-0.108
							c-0.026,0.623-0.031,1.246-0.003,1.87c0.113,2.557,0.78,5.157,2.313,7.156c1.782,2.324,4.323,3.217,7.085,2.805
							c2.578-0.385,4.667-2.63,6.123-4.818c0.252-0.378,0.475-0.779,0.684-1.188c0.445,2.385,1.333,4.66,3.36,5.843
							c1.954,1.141,4.459,0.885,6.549,0.016c3.015-1.254,5.466-3.677,7.069-6.522c0.67-1.189,1.192-2.451,1.6-3.751
							C501.457,325.4,500.945,325.372,500.478,325.354z"/>
						<g>
							<g>
								<path style="fill:#D69554;" d="M428.736,264.264c0.328,0.013,0.915-5.388,1.313-12.061
									c0.397-6.674,0.454-12.105,0.127-12.132c-0.327-0.026-0.915,5.374-1.313,12.061
									C428.465,258.82,428.408,264.251,428.736,264.264z"/>
							</g>
							<g>
								<path style="fill:#D69554;" d="M431.706,281.519c0.242-0.035-0.119-3.864-0.805-8.551c-0.686-4.687-1.439-8.458-1.681-8.423
									c-0.242,0.035,0.119,3.864,0.805,8.551C430.712,277.784,431.465,281.555,431.706,281.519z"/>
							</g>
							<g>
								<path style="fill:#D69554;" d="M428.11,284.785c0.244,0.005,0.529-4.457,0.635-9.965c0.107-5.508-0.005-9.977-0.249-9.982
									c-0.244-0.005-0.529,4.457-0.635,9.965C427.754,280.311,427.866,284.781,428.11,284.785z"/>
							</g>
							<g>
								<path style="fill:#D69554;" d="M430.322,282.375c0.244-0.019,0.12-4.086-0.275-9.084c-0.396-4.997-0.914-9.033-1.158-9.014
									c-0.244,0.019-0.12,4.086,0.276,9.084C429.56,278.358,430.078,282.394,430.322,282.375z"/>
							</g>
							<g>
								<path style="fill:#D69554;" d="M425.775,280.246c0.234,0.052,1.19-3.392,1.898-7.736c0.714-4.342,0.912-7.91,0.674-7.936
									c-0.247-0.028-0.837,3.477-1.547,7.793C426.095,276.685,425.531,280.193,425.775,280.246z"/>
							</g>
							<g>
								<path style="fill:#D69554;" d="M424.119,280.384c0.238,0.056,1.256-3.38,2.274-7.675c1.018-4.295,1.651-7.822,1.413-7.879
									c-0.238-0.056-1.256,3.38-2.274,7.675C424.514,276.8,423.881,280.327,424.119,280.384z"/>
							</g>
							<path style="fill:#F4AF64;" d="M426.358,264.264c0-1.313,1.065-2.378,2.378-2.378c1.313,0,2.378,1.065,2.378,2.378
								s-1.065,2.378-2.378,2.378C427.423,266.642,426.358,265.577,426.358,264.264z"/>
						</g>
						<polygon style="fill:#19283D;" points="430.36,240.159 459.271,257.275 522.012,267.19 556.514,249.217 500.695,219.093 
							478.721,219.093 						"/>
						<g>
							<path style="fill:#A34562;" d="M466.273,266.826c4.745,1.208,10.404-0.495,12.806-4.761c1.037-1.842,1.401-4.154,0.558-6.092
								c-1.174-2.701-4.317-4.008-7.251-4.253c-6.913-0.577-13.957,3.758-16.556,10.189c-1.144,2.829-1.474,5.911-1.794,8.946
								c-0.446,4.244-0.621,7.581,4.442,4.928C462.062,273.906,464.953,270.664,466.273,266.826z"/>
						</g>
						<path style="fill:#F4AF64;" d="M494.368,350.007h4.426c4.043-7.736,8.109-15.461,12.221-23.16
							c-1.403-0.344-2.745-0.615-4.008-0.823C502.754,333.997,498.55,341.996,494.368,350.007z"/>
						<path style="fill:#F4AF64;" d="M465.708,324.054c-1.353,0.024-2.678,0.089-3.974,0.195c1.892,8.661,4.079,17.247,6.548,25.758
							h4.087C469.858,341.433,467.634,332.781,465.708,324.054z"/>
						<g style="opacity:0.15;">
							<path style="fill:#EA7F9D;" d="M480.425,259.286c-0.468,6.439,1.828,13.229,6.772,17.382
								c4.943,4.152,12.604,5.125,18.004,1.586c-0.501,2.143,0.983,4.241,2.623,5.708c1.311,1.172,2.829,2.19,4.552,2.545
								c1.723,0.355,3.677-0.058,4.849-1.37c0.924-1.034,1.253-2.459,1.477-3.828c1.273-7.794-0.004-16.26-4.804-22.53
								c-4.8-6.271-13.476-9.781-20.971-7.296"/>
						</g>
						<g>
							<path style="fill:#A34562;" d="M482.882,254.87c-1.645,5.593,0.935,11.627,4.575,16.181c1.7,2.127,3.691,4.099,6.15,5.268
								c4.13,1.965,9.38,1.291,12.881-1.652c0.486,4.783,3.608,9.213,7.949,11.278c10.537,5.013,9.048-14.478,6.298-19.726
								c-3.806-7.265-16.02-14.461-24.039-11.609"/>
						</g>
						<path style="fill:#1E314F;" d="M523.482,274.635l2.925-29.347c0,0-29.903-21.199-66.959-6.694l-5.127,25.799
							c-0.149,0.748,0.547,1.384,1.279,1.17c7.327-2.141,38.339-9.484,66.292,9.796
							C522.529,275.799,523.405,275.407,523.482,274.635z"/>
					</g>
				</g>
				<g>
					<path style="opacity:0.2;fill:#90599C;" d="M361.233,350.007H170.839c-5.119,0-9.269-4.15-9.269-9.269V228.362
						c0-5.119,4.15-9.269,9.269-9.269h190.394c5.119,0,9.269,4.15,9.269,9.269v112.376
						C370.502,345.857,366.352,350.007,361.233,350.007z"/>
					<g>
						<g>
							<path style="fill:#7F334E;" d="M337.288,317.721c-3.008-1.96-6.428-3.55-8.517-6.47c-3.827-5.349-1.745-12.698-2.26-19.255
								c-0.863-11-10.547-20.627-21.552-21.424c-1.193-0.087-2.509-0.126-3.387-0.94c-0.599-0.556-0.871-1.374-1.085-2.163
								c-0.784-2.894-1.102-5.911-2.063-8.751c-0.961-2.841-2.723-5.605-5.467-6.816c-2.376-1.049-5.101-0.785-7.68-0.474
								c-7.924,0.953-15.818,2.155-23.666,3.602c-6.304,1.162-12.905,3.72-19.389,3.407c-1.768-0.085-3.798-1.105-5.535-0.577
								c-2.363,0.718-3.865,3.913-4.558,6.044c-1,3.074-1.277,6.388-2.666,9.307c-2.14,4.497-6.754,7.008-10.765,9.586
								c-8.194,5.265-7.495,13.867-6.862,22.42c0.299,4.046-0.31,8.089-3.626,10.764c-2.483,2.003-5.348,1.997-8.051,3.351
								c-6.446,3.23-10.674,12.583-12.039,19.25c-0.752,3.671-0.763,7.659-1.051,11.426h165.803c0.25-2.563,0.222-5.152-0.113-7.708
								C351.461,332.396,345.656,323.174,337.288,317.721z"/>
						</g>
						<g style="opacity:0.31;">
							<path style="fill:#7F334E;" d="M340.041,350.007c-0.089-12.035-4.841-24.114-14.314-31.379
								c-2.116-1.623-4.441-3.003-6.293-4.922c-3.21-3.327-4.688-7.953-5.534-12.497c-0.693-3.72-1.03-7.506-1.008-11.289
								c0.01-1.732,0.093-3.492-0.341-5.169c-0.806-3.109-3.333-5.555-6.215-6.972c-2.882-1.417-6.113-1.942-9.301-2.336
								c-2.298-0.284-4.603-0.51-6.913-0.677c-1.474-0.107-2.999-0.183-4.388,0.321c-1.624,0.589-2.866,1.893-4.297,2.86
								c-3.1,2.092-7.049,2.547-10.776,2.229s-7.354-1.339-11.044-1.953c-13.424-2.235-30.068,0.404-35.184,14.991
								c-1.966,5.606-1.553,11.717-1.924,17.646c-0.221,3.529-0.82,7.251-3.111,9.944c-1.871,2.199-4.614,3.41-7.114,4.855
								c-3.825,2.212-7.284,5.158-9.688,8.865c-2.982,4.598-4.143,9.963-4.573,15.484H340.041z"/>
						</g>
						<g>
							<path style="fill:#CE6B8F;" d="M296.958,269.237c4.807-0.953,9.94,1.984,11.815,6.363c1.875,4.379,0.625,9.756-2.673,13.308
								c-2.842,3.061-7.827,3.876-11.824,3.876"/>
						</g>
						<g>
							<g>
								<path style="fill:#A84A6C;" d="M297.267,288.103c0.162,0.021,0.4-0.985,0.762-2.582c0.374-1.586,0.882-3.793,2.062-5.898
									c1.18-2.088,2.932-3.511,4.352-4.15c1.426-0.665,2.467-0.666,2.466-0.853c0.024-0.12-1.074-0.43-2.758,0.106
									c-1.665,0.51-3.736,2.011-5.047,4.338c-1.293,2.317-1.687,4.678-1.866,6.325
									C297.072,287.053,297.118,288.084,297.267,288.103z"/>
							</g>
							<g>
								<path style="fill:#A84A6C;" d="M300.683,288.795c0.091,0.107,0.74-0.224,1.433-1.147c0.688-0.902,1.351-2.467,1.231-4.273
									c-0.125-1.805-0.992-3.266-1.796-4.068c-0.812-0.821-1.499-1.062-1.575-0.944c-0.1,0.138,0.388,0.6,0.953,1.451
									c0.567,0.84,1.182,2.131,1.286,3.637c0.1,1.507-0.335,2.869-0.783,3.777C300.986,288.148,300.565,288.672,300.683,288.795z"
									/>
							</g>
						</g>
						<g>
							<path style="fill:#D87393;" d="M234.475,275.768c-4.896,0.206-9.193,4.27-9.983,8.968c-0.79,4.697,1.691,9.628,5.733,12.304
								c3.793,2.51,9.418,2.207,12.839-0.806"/>
						</g>
						<g>
							<path style="fill:#CE6B8F;" d="M256.287,316.177c-0.002,1.66-1.063,3.07-2.562,3.604c4.595,2.775,10.05,4.154,15.42,3.844
								c4.509-0.261,8.911-1.693,12.79-4.01c-0.861-0.656-1.449-1.651-1.517-2.811l-0.978-18.569l-23.372,6.213
								C256.26,305.441,256.29,312.567,256.287,316.177z"/>
						</g>
						<g style="opacity:0.16;">
							<path style="fill:#D87393;" d="M256.066,304.447c0.17,0.87,0.214,6.427,0.22,10.223c7.451,0.669,15.051-0.285,22.071-2.874
								c0.59-0.218,1.175-0.459,1.758-0.703l-0.677-12.86L256.066,304.447z"/>
						</g>
						<g>
							<path style="fill:#D87393;" d="M235.078,280.26c-1.525-6.352-2.065-13.142,0.387-19.38
								c5.218-13.275,19.446-19.197,33.055-18.997c6.886,0.101,14.121,1.251,19.513,5.536c7.513,5.97,9.609,16.378,10.53,25.93
								c0.915,9.498,0.077,20.769-8.046,27.228c-9.498,7.553-23.637,9.936-35.327,7.243c-10.706-2.466-16.301-13.111-18.928-22.931
								C235.881,283.459,235.471,281.897,235.078,280.26z"/>
						</g>
						<g>
							<g>
								<path style="fill:#A84A6C;" d="M238.62,294.176c0.14-0.053-0.058-1.065-0.611-2.644c-0.562-1.559-1.501-3.761-3.304-5.708
									c-1.822-1.952-4.188-2.924-5.927-3.027c-1.763-0.124-2.757,0.436-2.705,0.547c0.043,0.182,1.054-0.062,2.597,0.248
									c1.53,0.286,3.569,1.257,5.207,3.008c1.642,1.768,2.656,3.793,3.393,5.247C238,293.313,238.468,294.234,238.62,294.176z"/>
							</g>
							<g>
								<path style="fill:#A84A6C;" d="M235.464,295.654c0.085-0.147-0.447-0.557-1.096-1.346c-0.65-0.777-1.394-1.999-1.651-3.487
									c-0.254-1.488,0.039-2.888,0.393-3.838c0.349-0.96,0.714-1.524,0.584-1.634c-0.101-0.097-0.713,0.299-1.308,1.288
									c-0.592,0.968-1.091,2.593-0.787,4.376c0.309,1.783,1.321,3.148,2.203,3.862C234.692,295.61,235.4,295.779,235.464,295.654z
									"/>
							</g>
						</g>
						<polygon style="fill:#19283D;" points="202.485,245.657 234.19,257.285 298.014,255.607 328.825,231.532 290.24,219.093 
							241.833,219.093 						"/>
						<g>
							<g>
								<g>
									<path style="fill:#DD9D50;" d="M330.195,255.88c0.329-0.027,0.271-5.486-0.128-12.194
										c-0.4-6.708-0.991-12.136-1.321-12.123s-0.272,5.472,0.129,12.194C329.275,250.479,329.866,255.906,330.195,255.88z"/>
								</g>
								<g>
									<path style="fill:#DD9D50;" d="M335.218,272.747c0.237-0.064-0.579-3.842-1.823-8.438c-1.244-4.596-2.445-8.27-2.682-8.206
										c-0.237,0.064,0.579,3.842,1.823,8.438C333.78,269.137,334.98,272.811,335.218,272.747z"/>
								</g>
								<g>
									<path style="fill:#DD9D50;" d="M332.018,276.435c0.244-0.024-0.004-4.511-0.555-10.021c-0.551-5.51-1.195-9.957-1.44-9.932
										c-0.245,0.024,0.004,4.511,0.554,10.021C331.129,272.013,331.774,276.46,332.018,276.435z"/>
								</g>
								<g>
									<path style="fill:#DD9D50;" d="M333.938,273.766c0.241-0.048-0.367-4.093-1.358-9.033c-0.991-4.94-1.99-8.906-2.231-8.858
										c-0.241,0.048,0.367,4.093,1.358,9.033C332.698,269.848,333.697,273.814,333.938,273.766z"/>
								</g>
								<g>
									<path style="fill:#DD9D50;" d="M329.146,272.183c0.24,0.024,0.783-3.528,0.971-7.947c0.195-4.419-0.033-8.004-0.274-8.001
										c-0.25,0.002-0.421,3.569-0.614,7.962C329.041,268.591,328.896,272.159,329.146,272.183z"/>
								</g>
								<g>
									<path style="fill:#DD9D50;" d="M327.51,272.518c0.244,0.028,0.85-3.523,1.354-7.931c0.504-4.408,0.714-8.004,0.47-8.032
										c-0.244-0.028-0.85,3.523-1.354,7.931C327.476,268.895,327.266,272.491,327.51,272.518z"/>
								</g>
							</g>
						</g>
						<g>
							<polygon style="fill:#BF5878;" points="270.115,264.399 276.194,283.309 267.8,283.88 							"/>
							<g>
								<path style="fill:#2F2E74;" d="M281.658,275.487c0.219,2.12,1.326,3.742,2.471,3.623c1.145-0.119,1.896-1.933,1.676-4.053
									c-0.219-2.12-1.326-3.742-2.471-3.623C282.189,271.553,281.438,273.367,281.658,275.487z"/>
								<path style="fill:#2F2E74;" d="M256.294,278c0.22,2.12,1.326,3.742,2.471,3.623c1.145-0.119,1.896-1.933,1.676-4.052
									c-0.219-2.12-1.326-3.742-2.471-3.623C256.825,274.066,256.074,275.88,256.294,278z"/>
								<path style="fill:#BF5878;" d="M279.991,263.694c-0.284,1.348,1.49,2.862,3.962,3.382c2.472,0.52,4.706-0.15,4.99-1.498
									c0.284-1.348-1.49-2.862-3.962-3.382C282.509,261.676,280.275,262.346,279.991,263.694z"/>
								<path style="fill:#1E314F;" d="M252.506,266.932c0.52,1.275,2.838,1.535,5.177,0.581c2.339-0.954,3.814-2.761,3.293-4.036
									c-0.52-1.275-2.838-1.535-5.177-0.581C253.46,263.85,251.986,265.657,252.506,266.932z"/>
							</g>
							<g>
								<path style="fill:#A84A6C;" d="M273.553,288.038c-0.081-0.146-0.629,0.039-1.494,0.176c-0.86,0.142-2.07,0.195-3.312-0.156
									c-1.242-0.354-2.242-1.035-2.9-1.608c-0.664-0.571-1.032-1.016-1.178-0.935c-0.128,0.066-0.002,0.68,0.589,1.479
									c0.577,0.792,1.684,1.73,3.179,2.155c1.495,0.424,2.93,0.208,3.837-0.162C273.197,288.617,273.627,288.161,273.553,288.038z
									"/>
							</g>
						</g>
						<path style="opacity:0.16;fill:#D87393;" d="M243.985,284.136c-2.731,0-5.236,0.955-7.211,2.544
							c2.253,7.441,6.261,15.04,12.938,18.959c3.457-1.988,5.791-5.71,5.791-9.984C255.503,289.293,250.346,284.136,243.985,284.136
							z"/>
						<g style="opacity:0.16;">
							<path style="fill:#D87393;" d="M298.249,278.984c-6.361,0-11.518,5.157-11.518,11.518c0,3.807,1.855,7.172,4.701,9.269
								c5.79-5.238,7.444-13.137,7.421-20.757C298.652,279.004,298.453,278.984,298.249,278.984z"/>
						</g>
						<path style="fill:#1E314F;" d="M269.144,323.625c-5.369,0.311-10.825-1.069-15.42-3.843c-0.298,0.106-0.606,0.19-0.934,0.22
							c-10.101,0.945-39.107,4.051-45.84,30.006H332.49c-1.827-7.751-10.354-29.842-48.173-29.584
							c-0.897,0.006-1.719-0.303-2.383-0.809C278.055,321.932,273.653,323.363,269.144,323.625z"/>
						<path style="fill:#F7F7F7;" d="M281.934,319.614c-3.878,2.318-8.28,3.749-12.79,4.01c-5.369,0.311-10.825-1.069-15.42-3.843
							c-0.298,0.106-0.606,0.19-0.934,0.22c-2.663,0.249-6.645,0.652-11.183,1.579l7.751,28.427h32.551l12.578-29.063
							c-3.131-0.36-6.512-0.546-10.17-0.521C283.42,320.429,282.598,320.12,281.934,319.614z"/>
						<g>
							<path style="fill:#EAD3DC;" d="M271.029,328.584c5.998-0.879,11.512-3.886,15.853-8.14c-0.841-0.017-1.692-0.027-2.564-0.021
								c-0.897,0.006-1.719-0.303-2.383-0.809c-3.878,2.318-8.28,3.749-12.79,4.01c-5.369,0.311-10.825-1.069-15.42-3.844
								c-0.298,0.106-0.606,0.19-0.934,0.22c-1.117,0.105-2.477,0.239-4.001,0.424C254.093,326.617,262.868,329.78,271.029,328.584z
								"/>
						</g>
						<g>
							<g>
								<path style="fill:#5454AF;" d="M267.936,324.02c-1.381-2.094-3.326-3.811-5.574-4.921c-1.963-0.969-4.38-1.45-6.302-0.401
									c-2.098,1.146-2.947,3.726-3.186,6.105c-0.184,1.826-0.119,3.676,0.191,5.485c0.489,2.85,1.949,5.929,4.732,6.713
									c5.842,1.644,9.525-5.374,11.01-9.734"/>
							</g>
							<g style="opacity:0.35;">
								<g>
									<path style="opacity:0.46;fill:#5454AF;" d="M267.865,326.658c0.117-0.144-1.435-1.554-3.726-2.718
										c-2.285-1.174-4.338-1.605-4.385-1.426c-0.06,0.195,1.847,0.914,4.065,2.054
										C266.042,325.697,267.742,326.82,267.865,326.658z"/>
								</g>
							</g>
							<g style="opacity:0.35;">
								<g>
									<path style="opacity:0.46;fill:#5454AF;" d="M268.557,325.56c-0.155-0.14-1.777,1.512-4.1,3.119
										c-2.312,1.625-4.422,2.576-4.344,2.769c0.055,0.173,2.353-0.51,4.748-2.191C267.265,327.592,268.7,325.672,268.557,325.56z
										"/>
								</g>
							</g>
							<g>
								<path style="fill:#5454AF;" d="M271.12,323.857c1.16-2.223,2.92-4.13,5.043-5.464c1.854-1.164,4.21-1.889,6.228-1.042
									c2.204,0.926,3.311,3.406,3.792,5.748c0.369,1.797,0.494,3.645,0.369,5.476c-0.196,2.885-1.334,6.097-4.023,7.16
									c-5.643,2.231-10.023-4.374-11.945-8.56"/>
							</g>
							<g style="opacity:0.35;">
								<g>
									<path style="opacity:0.46;fill:#5454AF;" d="M271.46,326.474c0.139,0.149,1.715-1.142,3.812-2.492
										c2.09-1.361,3.913-2.27,3.834-2.458c-0.066-0.173-2.064,0.465-4.217,1.866C272.729,324.781,271.328,326.343,271.46,326.474
										z"/>
								</g>
							</g>
							<g style="opacity:0.35;">
								<g>
									<path style="opacity:0.46;fill:#5454AF;" d="M270.66,325.453c-0.131,0.125,1.492,1.889,4.055,3.302
										c2.554,1.427,4.909,1.872,4.946,1.695c0.058-0.2-2.139-0.932-4.604-2.312C272.582,326.776,270.799,325.298,270.66,325.453z
										"/>
								</g>
							</g>
							<g>
								<path style="fill:#5C5CC4;" d="M271.859,330.935c0.02-0.017,0.039-0.034,0.059-0.051c2.295-2.068,1.647-8.336-1.879-8.88
									c-2.91-0.449-4.084,2.7-3.945,5.082c0.078,1.332,0.799,2.909,1.634,3.944C268.698,332.231,270.802,331.833,271.859,330.935z
									"/>
							</g>
						</g>
						<path style="fill:#F4AF64;" d="M327.822,256.164c-0.157-1.311,0.779-2.5,2.09-2.657c1.311-0.157,2.5,0.779,2.657,2.09
							c0.157,1.311-0.779,2.5-2.09,2.657C329.168,258.41,327.978,257.474,327.822,256.164z"/>
						<path style="fill:#F4AF64;" d="M279.956,350.007h4.193c3.739-9.651,7.478-19.302,11.217-28.953
							c-1.3-0.166-2.646-0.3-4.037-0.402C287.538,330.437,283.747,340.222,279.956,350.007z"/>
						<path style="fill:#F4AF64;" d="M244.06,321.118c-1.236,0.214-2.525,0.464-3.859,0.762c2.357,9.376,4.714,18.752,7.072,28.128
							h4.051C248.903,340.377,246.482,330.747,244.06,321.118z"/>
						<g style="opacity:0.16;">
							<path style="fill:#D87393;" d="M234.119,277.733c2.61,1.38,5.805,1.608,8.584,0.611c2.78-0.997,5.102-3.202,6.24-5.926
								c-0.155,0.37,4.354,0.471,4.726,0.422c1.633-0.213,2.852-0.793,4.28-1.528c2.886-1.485,5.331-3.518,7.428-5.993
								c1.673-1.976,3.133-4.195,3.83-6.689c0.499-1.783,0.527-10.274-3.107-8.315c-1.444,0.778-2.415,2.698-3.895,3.622
								c-1.528,0.954-3.277,1.561-5.076,1.703c-2.779,0.219-5.526-0.589-8.197-1.387"/>
						</g>
						<g>
							<path style="fill:#7F334E;" d="M230.988,275.043c2.713,1.956,6.384,2.51,9.553,1.44c3.169-1.069,5.754-3.734,6.727-6.934
								c4.2,0.585,8.601-0.409,12.143-2.741c3.542-2.332,6.193-5.983,7.315-10.073c0.586-2.137,0.755-4.463-0.022-6.538
								c-0.777-2.075-2.643-3.83-4.85-4.023c-1.08-0.095-2.157,0.175-3.197,0.485c-4.359,1.299-8.494,3.348-12.168,6.03
								c-1.593,1.163-3.117,2.454-4.9,3.297c-1.249,0.59-2.604,0.949-3.804,1.631c-2.145,1.22-3.626,3.403-4.396,5.748
								c-0.77,2.345-0.89,4.854-0.812,7.32"/>
						</g>
						<path style="fill:#1E314F;" d="M299.959,259.575l-3.432-24.373c0,0-24.23-17.108-63.947,4.668l-1.305,23.21
							c-0.088,1.562,1.537,2.647,2.94,1.955c8.815-4.349,34.956-14.869,62.92-3.295C298.604,262.348,300.181,261.15,299.959,259.575
							z"/>
					</g>
				</g>
			</g>
			<g>
				<path style="fill:#2CB6CA;" d="M163.867,24.911h-44.716c-13.377,0-24.221,10.844-24.221,24.221v24.646
					c0,13.377,10.844,24.221,24.221,24.221h25.181l9.949,10.701c1.455,1.565,4.075,0.536,4.075-1.602v-9.1h5.511
					c13.377,0,24.221-10.844,24.221-24.221V49.132C188.089,35.756,177.244,24.911,163.867,24.911z"/>
				<g>
					<path style="fill:#F7F7F7;" d="M126.679,62.804c0-2.419-1.961-4.379-4.379-4.379c-2.419,0-4.379,1.961-4.379,4.379
						c0,2.419,1.961,4.379,4.379,4.379C124.718,67.184,126.679,65.223,126.679,62.804z"/>
					<path style="fill:#F7F7F7;" d="M145.889,62.804c0-2.419-1.961-4.379-4.379-4.379c-2.419,0-4.379,1.961-4.379,4.379
						c0,2.419,1.961,4.379,4.379,4.379C143.928,67.184,145.889,65.223,145.889,62.804z"/>
					<path style="fill:#F7F7F7;" d="M165.099,62.804c0-2.419-1.961-4.379-4.379-4.379c-2.419,0-4.379,1.961-4.379,4.379
						c0,2.419,1.961,4.379,4.379,4.379C163.139,67.184,165.099,65.223,165.099,62.804z"/>
				</g>
				<g style="opacity:0.19;">
					<path style="fill:#21959E;" d="M183.281,77.65c-9.551-4.553-19.947-7.329-30.496-8.144c-6.164-0.476-12.393-0.292-18.49-1.321
						c-6.096-1.029-12.23-3.449-16.228-8.164c-5.01-5.908-5.793-14.162-7.5-21.718c-0.77-3.41-1.975-6.955-3.745-10.016
						C99.705,32.504,94.93,40.259,94.93,49.132v24.646c0,13.377,10.844,24.221,24.221,24.221h25.181l9.949,10.701
						c1.455,1.565,4.075,0.536,4.075-1.602v-9.1h5.511c11.309,0,20.806-7.751,23.473-18.229
						C186.015,79.01,184.655,78.305,183.281,77.65z"/>
				</g>
			</g>
			<g>
				<polygon style="fill:#F9AD48;" points="584.036,460.9 560.427,437.021 536.172,460.9 536.172,396.469 584.036,396.469 				"/>
				<g style="opacity:0.31;">
					<path style="fill:#F9AD48;" d="M536.172,396.923v12.72c0.203,0.035,0.403,0.087,0.609,0.108
						c2.048,0.199,4.113-0.309,6.163-0.139c4.333,0.358,7.785,3.579,11.217,6.248c3.432,2.67,7.941,5.018,11.966,3.372
						c3.059-1.251,4.832-4.437,7.498-6.389c2.962-2.169,6.677-2.624,10.411-2.903v-15.539h-45.204L536.172,396.923z"/>
				</g>
				<g>
					<path style="fill:#F7C94B;" d="M541.332,445.286c-0.86,0-1.56-0.698-1.56-1.556v-40.088c0-0.822,0.642-1.504,1.464-1.55
						l36.925-2.136c0.002,0,0.004,0,0.005,0c0.944,0,1.638,0.696,1.638,1.551v42.169c0,0.436-0.172,0.837-0.485,1.131
						c-0.289,0.269-0.681,0.425-1.076,0.425l0,0c-0.398,0-0.778-0.156-1.071-0.437l-16.538-15.948
						c-0.22-0.212-0.595-0.217-0.822-0.01l-17.435,16.037C542.087,445.14,541.716,445.286,541.332,445.286z M578.25,400.909
						l-36.96,2.137c-0.317,0.019-0.564,0.281-0.564,0.598v40.088c0,0.377,0.308,0.601,0.606,0.601c0.103,0,0.255-0.028,0.399-0.16
						l17.435-16.037c0.587-0.537,1.56-0.525,2.13,0.025l16.538,15.948c0.146,0.141,0.303,0.171,0.409,0.171l0,0
						c0.155,0,0.31-0.062,0.423-0.168c0.083-0.078,0.183-0.217,0.183-0.434v-42.169C578.849,401.177,578.58,400.909,578.25,400.909z
						"/>
				</g>
				<path style="fill:#2CB6CA;" d="M597.792,371.185c0-4.272,3.048-8.975,1.797-12.829c-1.297-3.995-6.571-5.998-8.991-9.323
					c-2.444-3.358-2.736-8.985-6.095-11.429c-3.325-2.42-8.754-0.975-12.749-2.272c-3.855-1.252-7.379-5.653-11.65-5.653
					c-4.272,0-7.796,4.401-11.65,5.653c-3.995,1.297-9.424-0.147-12.749,2.273c-3.358,2.444-3.651,8.07-6.095,11.429
					c-2.42,3.325-7.694,5.328-8.991,9.323c-1.252,3.854,1.797,8.558,1.797,12.829c0,4.272-3.048,8.975-1.797,12.829
					c1.297,3.995,6.571,5.998,8.991,9.323c2.444,3.358,2.736,8.984,6.095,11.429c3.325,2.42,8.754,0.975,12.749,2.272
					c3.855,1.251,7.379,5.653,11.65,5.653c4.272,0,7.796-4.401,11.65-5.653c3.995-1.297,9.424,0.147,12.749-2.272
					c3.358-2.444,3.651-8.07,6.095-11.429c2.42-3.325,7.694-5.328,8.991-9.323C600.841,380.16,597.792,375.457,597.792,371.185z"/>
				
					<ellipse transform="matrix(0.7071 -0.7071 0.7071 0.7071 -98.4168 504.7711)" style="opacity:0.2;fill:#90599C;" cx="560.104" cy="371.185" rx="32.35" ry="32.35"/>
				<circle style="fill:#F9AD48;" cx="560.104" cy="371.185" r="21.323"/>
			</g>
			<g>
				<path style="fill:#90599C;" d="M679.196,250.747l-46.535-0.202c-13.588-0.059-24.65,10.908-24.709,24.495l-0.033,7.647
					L594.4,295.239c-1.488,1.27-0.596,3.706,1.36,3.715l12.087,0.052l-0.012,2.742c-0.059,13.587,10.908,24.65,24.495,24.709
					l46.535,0.202c13.587,0.059,24.65-10.908,24.709-24.495l0.116-26.708C703.75,261.868,692.783,250.806,679.196,250.747z"/>
				<g>
					<g>
						<path style="fill:#F4AF64;" d="M643.879,288.551c0.01-2.249-1.805-4.08-4.054-4.09c-2.249-0.01-4.08,1.805-4.09,4.054
							c-0.01,2.249,1.805,4.08,4.054,4.09C642.038,292.615,643.869,290.799,643.879,288.551z"/>
						<path style="fill:#F4AF64;" d="M661.741,288.628c0.01-2.249-1.805-4.08-4.054-4.09s-4.08,1.805-4.09,4.054
							c-0.01,2.249,1.805,4.08,4.054,4.09C659.9,292.692,661.731,290.877,661.741,288.628z"/>
						<path style="fill:#F4AF64;" d="M679.603,288.706c0.01-2.249-1.805-4.08-4.054-4.09c-2.249-0.01-4.08,1.805-4.09,4.054
							c-0.01,2.249,1.805,4.08,4.054,4.09C677.762,292.77,679.593,290.954,679.603,288.706z"/>
					</g>
				</g>
				<g style="opacity:0.2;">
					<path style="fill:#90599C;" d="M694.282,302.057c-13.511-5.204-28.031-7.062-42.158-10.234
						c-7.399-1.661-15.267-4.048-19.844-10.095c-3.958-5.228-4.647-12.128-5.775-18.588c-0.639-3.66-1.599-7.481-3.315-10.748
						c-8.906,3.67-15.193,12.414-15.237,22.648l-0.033,7.647L594.4,295.239c-1.488,1.27-0.596,3.706,1.36,3.715l12.087,0.052
						l-0.012,2.742c-0.059,13.587,10.908,24.65,24.495,24.709l46.535,0.202c12.174,0.053,22.314-8.748,24.336-20.351
						C700.367,304.636,697.343,303.236,694.282,302.057z"/>
				</g>
			</g>
		</g>
	</g>
</g>
</svg>
